  0
SECTION
  2
HEADER
  9
$ACADVER
  1
AC1014
  9
$ACADMAINTVER
 70
     9
  9
$DWGCODEPAGE
  3
ANSI_1252
  9
$INSBASE
 10
0.0
 20
0.0
 30
0.0
  9
$EXTMIN
 10
1.000000000000000E+20
 20
1.000000000000000E+20
 30
1.000000000000000E+20
  9
$EXTMAX
 10
-1.000000000000000E+20
 20
-1.000000000000000E+20
 30
-1.000000000000000E+20
  9
$LIMMIN
 10
0.0
 20
0.0
  9
$LIMMAX
 10
12.0
 20
9.0
  9
$ORTHOMODE
 70
     0
  9
$REGENMODE
 70
     1
  9
$FILLMODE
 70
     1
  9
$QTEXTMODE
 70
     0
  9
$MIRRTEXT
 70
     1
  9
$DRAGMODE
 70
     2
  9
$LTSCALE
 40
1.0
  9
$OSMODE
 70
    37
  9
$ATTMODE
 70
     1
  9
$TEXTSIZE
 40
0.2
  9
$TRACEWID
 40
0.05
  9
$TEXTSTYLE
  7
STANDARD
  9
$CLAYER
  8
0
  9
$CELTYPE
  6
BYLAYER
  9
$CECOLOR
 62
   256
  9
$CELTSCALE
 40
1.0
  9
$DELOBJ
 70
     1
  9
$DISPSILH
 70
     0
  9
$DIMSCALE
 40
1.0
  9
$DIMASZ
 40
0.18
  9
$DIMEXO
 40
0.0625
  9
$DIMDLI
 40
0.38
  9
$DIMRND
 40
0.0
  9
$DIMDLE
 40
0.0
  9
$DIMEXE
 40
0.18
  9
$DIMTP
 40
0.0
  9
$DIMTM
 40
0.0
  9
$DIMTXT
 40
0.18
  9
$DIMCEN
 40
0.09
  9
$DIMTSZ
 40
0.0
  9
$DIMTOL
 70
     0
  9
$DIMLIM
 70
     0
  9
$DIMTIH
 70
     1
  9
$DIMTOH
 70
     1
  9
$DIMSE1
 70
     0
  9
$DIMSE2
 70
     0
  9
$DIMTAD
 70
     0
  9
$DIMZIN
 70
     0
  9
$DIMBLK
  1

  9
$DIMASO
 70
     1
  9
$DIMSHO
 70
     1
  9
$DIMPOST
  1

  9
$DIMAPOST
  1

  9
$DIMALT
 70
     0
  9
$DIMALTD
 70
     2
  9
$DIMALTF
 40
25.4
  9
$DIMLFAC
 40
1.0
  9
$DIMTOFL
 70
     0
  9
$DIMTVP
 40
0.0
  9
$DIMTIX
 70
     0
  9
$DIMSOXD
 70
     0
  9
$DIMSAH
 70
     0
  9
$DIMBLK1
  1

  9
$DIMBLK2
  1

  9
$DIMSTYLE
  2
STANDARD
  9
$DIMCLRD
 70
     0
  9
$DIMCLRE
 70
     0
  9
$DIMCLRT
 70
     0
  9
$DIMTFAC
 40
1.0
  9
$DIMGAP
 40
0.09
  9
$DIMJUST
 70
     0
  9
$DIMSD1
 70
     0
  9
$DIMSD2
 70
     0
  9
$DIMTOLJ
 70
     1
  9
$DIMTZIN
 70
     0
  9
$DIMALTZ
 70
     0
  9
$DIMALTTZ
 70
     0
  9
$DIMFIT
 70
     3
  9
$DIMUPT
 70
     0
  9
$DIMUNIT
 70
     2
  9
$DIMDEC
 70
     4
  9
$DIMTDEC
 70
     4
  9
$DIMALTU
 70
     2
  9
$DIMALTTD
 70
     2
  9
$DIMTXSTY
  7
STANDARD
  9
$DIMAUNIT
 70
     0
  9
$LUNITS
 70
     2
  9
$LUPREC
 70
     4
  9
$SKETCHINC
 40
0.1
  9
$FILLETRAD
 40
0.5
  9
$AUNITS
 70
     0
  9
$AUPREC
 70
     0
  9
$MENU
  1
.
  9
$ELEVATION
 40
0.0
  9
$PELEVATION
 40
0.0
  9
$THICKNESS
 40
0.0
  9
$LIMCHECK
 70
     0
  9
$CHAMFERA
 40
0.0
  9
$CHAMFERB
 40
0.0
  9
$CHAMFERC
 40
0.0
  9
$CHAMFERD
 40
0.0
  9
$SKPOLY
 70
     0
  9
$TDCREATE
 40
2456775.435756724
  9
$TDUPDATE
 40
2456775.435756967
  9
$TDINDWG
 40
0.0000000116
  9
$TDUSRTIMER
 40
0.0000000116
  9
$USRTIMER
 70
     1
  9
$ANGBASE
 50
0.0
  9
$ANGDIR
 70
     0
  9
$PDMODE
 70
     0
  9
$PDSIZE
 40
0.0
  9
$PLINEWID
 40
0.0
  9
$COORDS
 70
     1
  9
$SPLFRAME
 70
     0
  9
$SPLINETYPE
 70
     6
  9
$SPLINESEGS
 70
     8
  9
$ATTDIA
 70
     0
  9
$ATTREQ
 70
     1
  9
$HANDLING
 70
     1
  9
$HANDSEED
  5
332
  9
$SURFTAB1
 70
     6
  9
$SURFTAB2
 70
     6
  9
$SURFTYPE
 70
     6
  9
$SURFU
 70
     6
  9
$SURFV
 70
     6
  9
$UCSNAME
  2

  9
$UCSORG
 10
0.0
 20
0.0
 30
0.0
  9
$UCSXDIR
 10
1.0
 20
0.0
 30
0.0
  9
$UCSYDIR
 10
0.0
 20
1.0
 30
0.0
  9
$PUCSNAME
  2

  9
$PUCSORG
 10
0.0
 20
0.0
 30
0.0
  9
$PUCSXDIR
 10
1.0
 20
0.0
 30
0.0
  9
$PUCSYDIR
 10
0.0
 20
1.0
 30
0.0
  9
$USERI1
 70
     0
  9
$USERI2
 70
     0
  9
$USERI3
 70
     0
  9
$USERI4
 70
     0
  9
$USERI5
 70
     0
  9
$USERR1
 40
0.0
  9
$USERR2
 40
0.0
  9
$USERR3
 40
0.0
  9
$USERR4
 40
0.0
  9
$USERR5
 40
0.0
  9
$WORLDVIEW
 70
     1
  9
$SHADEDGE
 70
     3
  9
$SHADEDIF
 70
    70
  9
$TILEMODE
 70
     1
  9
$MAXACTVP
 70
    64
  9
$PINSBASE
 10
0.0
 20
0.0
 30
0.0
  9
$PLIMCHECK
 70
     0
  9
$PEXTMIN
 10
1.000000000000000E+20
 20
1.000000000000000E+20
 30
1.000000000000000E+20
  9
$PEXTMAX
 10
-1.000000000000000E+20
 20
-1.000000000000000E+20
 30
-1.000000000000000E+20
  9
$PLIMMIN
 10
0.0
 20
0.0
  9
$PLIMMAX
 10
12.0
 20
9.0
  9
$UNITMODE
 70
     0
  9
$VISRETAIN
 70
     1
  9
$PLINEGEN
 70
     0
  9
$PSLTSCALE
 70
     1
  9
$TREEDEPTH
 70
  3020
  9
$PICKSTYLE
 70
     1
  9
$CMLSTYLE
  2
STANDARD
  9
$CMLJUST
 70
     0
  9
$CMLSCALE
 40
1.0
  9
$PROXYGRAPHICS
 70
     1
  9
$MEASUREMENT
 70
     0
  0
ENDSEC
  0
SECTION
  2
CLASSES
  0
CLASS
  1
ACDBDICTIONARYWDFLT
  2
AcDbDictionaryWithDefault
  3
ObjectDBX Classes
 90
        0
280
     0
281
     0
  0
CLASS
  1
VISUALSTYLE
  2
AcDbVisualStyle
  3
ObjectDBX Classes
 90
     4095
280
     0
281
     0
  0
CLASS
  1
MATERIAL
  2
AcDbMaterial
  3
ObjectDBX Classes
 90
     1153
280
     0
281
     0
  0
CLASS
  1
SCALE
  2
AcDbScale
  3
ObjectDBX Classes
 90
     1153
280
     0
281
     0
  0
CLASS
  1
SUN
  2
AcDbSun
  3
SCENEOE
 90
     1153
280
     0
281
     0
  0
CLASS
  1
DICTIONARYVAR
  2
AcDbDictionaryVar
  3
ObjectDBX Classes
 90
        0
280
     0
281
     0
  0
CLASS
  1
XRECORD
  2
AcDbXrecord
  3
ObjectDBX Classes
 90
        0
280
     0
281
     0
  0
CLASS
  1
LWPOLYLINE
  2
AcDbPolyline
  3
ObjectDBX Classes
 90
        0
280
     0
281
     1
  0
CLASS
  1
HATCH
  2
AcDbHatch
  3
ObjectDBX Classes
 90
        0
280
     0
281
     1
  0
CLASS
  1
ACDBPLACEHOLDER
  2
AcDbPlaceHolder
  3
ObjectDBX Classes
 90
        0
280
     0
281
     0
  0
CLASS
  1
LAYOUT
  2
AcDbLayout
  3
ObjectDBX Classes
 90
        0
280
     0
281
     0
  0
ENDSEC
  0
SECTION
  2
TABLES
  0
TABLE
  2
VPORT
  5
8
102
{ACAD_XDICTIONARY
360
328
102
}
330
0
100
AcDbSymbolTable
 70
     1
  0
VPORT
  5
29
330
8
100
AcDbSymbolTableRecord
100
AcDbViewportTableRecord
  2
*ACTIVE
 70
     0
 10
0.0
 20
0.0
 11
1.0
 21
1.0
 12
0.0
 22
0.0
 13
0.0
 23
0.0
 14
0.5
 24
0.5
 15
0.5
 25
0.5
 16
0.0
 26
0.0
 36
1.0
 17
0.0
 27
0.0
 37
-1000.0
 40
6408.052310637539
 41
1.693296602387511
 42
50.0
 43
7735.203398368694
 44
16415.76195245923
 50
0.0
 51
0.0
 71
     0
 72
   100
 73
     1
 74
     3
 75
     0
 76
     0
 77
     0
 78
     0
  0
ENDTAB
  0
TABLE
  2
LTYPE
  5
5
330
0
100
AcDbSymbolTable
 70
     1
  0
LTYPE
  5
14
330
5
100
AcDbSymbolTableRecord
100
AcDbLinetypeTableRecord
  2
BYBLOCK
 70
     0
  3

 72
    65
 73
     0
 40
0.0
  0
LTYPE
  5
15
330
5
100
AcDbSymbolTableRecord
100
AcDbLinetypeTableRecord
  2
BYLAYER
 70
     0
  3

 72
    65
 73
     0
 40
0.0
  0
LTYPE
  5
16
330
5
100
AcDbSymbolTableRecord
100
AcDbLinetypeTableRecord
  2
CONTINUOUS
 70
     0
  3
Solid line
 72
    65
 73
     0
 40
0.0
  0
ENDTAB
  0
TABLE
  2
LAYER
  5
2
330
0
100
AcDbSymbolTable
 70
     3
  0
LAYER
  5
10
330
2
100
AcDbSymbolTableRecord
100
AcDbLayerTableRecord
  2
0
 70
     0
 62
     7
  6
CONTINUOUS
  0
LAYER
  5
6A
330
2
100
AcDbSymbolTableRecord
100
AcDbLayerTableRecord
  2
PROFILEEDGES
 70
     0
 62
     7
  6
CONTINUOUS
  0
LAYER
  5
6B
330
2
100
AcDbSymbolTableRecord
100
AcDbLayerTableRecord
  2
SECTIONCUTEDGES
 70
     0
 62
     7
  6
CONTINUOUS
  0
ENDTAB
  0
TABLE
  2
STYLE
  5
3
330
0
100
AcDbSymbolTable
 70
     2
  0
STYLE
  5
11
330
3
100
AcDbSymbolTableRecord
100
AcDbTextStyleTableRecord
  2
STANDARD
 70
     0
 40
0.0
 41
1.0
 50
0.0
 71
     0
 42
0.2
  3
txt
  4

  0
STYLE
  5
2F4
330
3
100
AcDbSymbolTableRecord
100
AcDbTextStyleTableRecord
  2
TAHOMA
 70
     0
 40
0.0
 41
1.0
 50
0.0
 71
     0
 42
0.2
  3
Tahoma
  4

1001
ACAD
1000
Tahoma
1071
       34
  0
ENDTAB
  0
TABLE
  2
VIEW
  5
6
330
0
100
AcDbSymbolTable
 70
     0
  0
ENDTAB
  0
TABLE
  2
UCS
  5
7
330
0
100
AcDbSymbolTable
 70
     0
  0
ENDTAB
  0
TABLE
  2
APPID
  5
9
330
0
100
AcDbSymbolTable
 70
     1
  0
APPID
  5
12
330
9
100
AcDbSymbolTableRecord
100
AcDbRegAppTableRecord
  2
ACAD
 70
     0
  0
ENDTAB
  0
TABLE
  2
DIMSTYLE
  5
A
330
0
100
AcDbSymbolTable
 70
     1
  0
DIMSTYLE
105
27
330
A
100
AcDbSymbolTableRecord
100
AcDbDimStyleTableRecord
  2
STANDARD
 70
     0
  3

  4

  5

  6

  7

 40
1.0
 41
0.18
 42
0.0625
 43
0.38
 44
0.18
 45
0.0
 46
0.0
 47
0.0
 48
0.0
140
0.18
141
0.09
142
0.0
143
25.4
144
1.0
145
0.0
146
1.0
147
0.09
 71
     0
 72
     0
 73
     1
 74
     1
 75
     0
 76
     0
 77
     0
 78
     0
170
     0
171
     2
172
     0
173
     0
174
     0
175
     0
176
     0
177
     0
178
     0
270
     2
271
     4
272
     4
273
     2
274
     2
340
11
275
     0
280
     0
281
     0
282
     0
283
     1
284
     0
285
     0
286
     0
287
     3
288
     0
  0
ENDTAB
  0
TABLE
  2
BLOCK_RECORD
  5
1
330
0
100
AcDbSymbolTable
 70
     1
  0
BLOCK_RECORD
  5
1F
330
1
100
AcDbSymbolTableRecord
100
AcDbBlockTableRecord
  2
*MODEL_SPACE
  0
BLOCK_RECORD
  5
1B
330
1
100
AcDbSymbolTableRecord
100
AcDbBlockTableRecord
  2
*PAPER_SPACE
  0
ENDTAB
  0
ENDSEC
  0
SECTION
  2
BLOCKS
  0
BLOCK
  5
20
330
1F
100
AcDbEntity
  8
0
100
AcDbBlockBegin
  2
*MODEL_SPACE
 70
     0
 10
0.0
 20
0.0
 30
0.0
  3
*MODEL_SPACE
  1

  0
ENDBLK
  5
21
330
1F
100
AcDbEntity
  8
0
100
AcDbBlockEnd
  0
BLOCK
  5
1C
330
1B
100
AcDbEntity
 67
     1
  8
0
100
AcDbBlockBegin
  2
*PAPER_SPACE
 70
     0
 10
0.0
 20
0.0
 30
0.0
  3
*PAPER_SPACE
  1

  0
ENDBLK
  5
1D
330
1B
100
AcDbEntity
 67
     1
  8
0
100
AcDbBlockEnd
  0
ENDSEC
  0
SECTION
  2
ENTITIES
  0
LINE
  5
6C
330
1F
100
AcDbEntity
  8
0
100
AcDbLine
 10
-4357.677141035132
 20
1294.167596432662
 30
0.0
 11
-4377.014380454822
 21
1305.919261667824
 31
0.0
  0
LINE
  5
6D
330
1F
100
AcDbEntity
  8
0
100
AcDbLine
 10
-4706.269934029188
 20
1974.621990521148
 30
0.0
 11
-4741.212422476302
 21
1988.536420444645
 31
0.0
  0
LINE
  5
6E
330
1F
100
AcDbEntity
  8
0
100
AcDbLine
 10
-4504.793862161383
 20
1840.27304568924
 30
0.0
 11
-4611.795015952323
 21
1918.301338284441
 31
0.0
  0
LINE
  5
6F
330
1F
100
AcDbEntity
  8
0
100
AcDbLine
 10
-3529.92661155719
 20
852.2994571642242
 30
0.0
 11
-3525.594838160411
 21
847.5496473979956
 31
0.0
  0
LINE
  5
70
330
1F
100
AcDbEntity
  8
0
100
AcDbLine
 10
-4271.633134591126
 20
1484.778602638297
 30
0.0
 11
-4195.038129893483
 21
1478.238739533569
 31
0.0
  0
LINE
  5
71
330
1F
100
AcDbEntity
  8
0
100
AcDbLine
 10
-4334.102145238146
 20
1267.358398609154
 30
0.0
 11
-4333.422253048554
 21
1269.039705586354
 31
0.0
  0
LINE
  5
72
330
1F
100
AcDbEntity
  8
0
100
AcDbLine
 10
-4353.046632643316
 20
1282.784765672334
 30
0.0
 11
-4351.364426007942
 21
1286.572534549776
 31
0.0
  0
LINE
  5
73
330
1F
100
AcDbEntity
  8
0
100
AcDbLine
 10
-4721.086670621725
 20
1817.525268700101
 30
0.0
 11
-4698.404055023735
 21
1796.926406456452
 31
0.0
  0
LINE
  5
74
330
1F
100
AcDbEntity
  8
0
100
AcDbLine
 10
-4310.554505741813
 20
1471.614592724918
 30
0.0
 11
-4312.250930220076
 21
1473.557355208668
 31
0.0
  0
LINE
  5
75
330
1F
100
AcDbEntity
  8
0
100
AcDbLine
 10
-4344.232911856397
 20
1274.583258206627
 30
0.0
 11
-4354.031513793166
 21
1275.170191156979
 31
0.0
  0
LINE
  5
76
330
1F
100
AcDbEntity
  8
0
100
AcDbLine
 10
-3640.269437391392
 20
805.1963414299277
 30
0.0
 11
-3656.238412322775
 21
817.5744703211785
 31
0.0
  0
LINE
  5
77
330
1F
100
AcDbEntity
  8
0
100
AcDbLine
 10
-4671.170786831673
 20
1956.6782211516
 30
0.0
 11
-4706.269934029188
 21
1974.621990521148
 31
0.0
  0
LINE
  5
78
330
1F
100
AcDbEntity
  8
0
100
AcDbLine
 10
-4355.679650688306
 20
1275.273573664
 30
0.0
 11
-4354.031513793166
 21
1275.170191156979
 31
0.0
  0
LINE
  5
79
330
1F
100
AcDbEntity
  8
0
100
AcDbLine
 10
-4355.679650688306
 20
1275.273573664
 30
0.0
 11
-4378.057627609091
 21
1276.742986514959
 31
0.0
  0
LINE
  5
7A
330
1F
100
AcDbEntity
  8
0
100
AcDbLine
 10
-4367.15192662655
 20
1273.033412894456
 30
0.0
 11
-4378.057627609091
 21
1276.742986514959
 31
0.0
  0
LINE
  5
7B
330
1F
100
AcDbEntity
  8
0
100
AcDbLine
 10
-4336.731501839582
 20
1268.507513945452
 30
0.0
 11
-4367.15192662655
 21
1273.033412894456
 31
0.0
  0
LINE
  5
7C
330
1F
100
AcDbEntity
  8
0
100
AcDbLine
 10
-4334.102145238146
 20
1267.358398609154
 30
0.0
 11
-4336.731501839582
 21
1268.507513945452
 31
0.0
  0
LINE
  5
7D
330
1F
100
AcDbEntity
  8
0
100
AcDbLine
 10
-4333.422253048554
 20
1269.039705586354
 30
0.0
 11
-4336.866629584159
 21
1272.129567778467
 31
0.0
  0
LINE
  5
7E
330
1F
100
AcDbEntity
  8
0
100
AcDbLine
 10
-4336.866629584159
 20
1272.129567778467
 30
0.0
 11
-4344.232911856397
 21
1274.583258206627
 31
0.0
  0
LINE
  5
7F
330
1F
100
AcDbEntity
  8
0
100
AcDbLine
 10
-3877.14705100033
 20
847.8480884394651
 30
0.0
 11
-3863.527521344176
 21
857.7514822004531
 31
0.0
  0
LINE
  5
80
330
1F
100
AcDbEntity
  8
0
100
AcDbLine
 10
-3869.062508083904
 20
847.8480884280933
 30
0.0
 11
-3877.14705100033
 21
847.8480884394651
 31
0.0
  0
LINE
  5
81
330
1F
100
AcDbEntity
  8
0
100
AcDbLine
 10
-3830.021804731498
 20
838.2112909542035
 30
0.0
 11
-3869.062508083904
 21
847.8480884280933
 31
0.0
  0
LINE
  5
82
330
1F
100
AcDbEntity
  8
0
100
AcDbLine
 10
-3819.456570184575
 20
832.2821276152266
 30
0.0
 11
-3830.021804731498
 21
838.2112909542035
 31
0.0
  0
LINE
  5
83
330
1F
100
AcDbEntity
  8
0
100
AcDbLine
 10
-3819.456570184575
 20
832.2821276152266
 30
0.0
 11
-3807.22239789081
 21
835.7649102574118
 31
0.0
  0
LINE
  5
84
330
1F
100
AcDbEntity
  8
0
100
AcDbLine
 10
-3766.814511445021
 20
840.9550284453071
 30
0.0
 11
-3807.22239789081
 21
835.7649102574118
 31
0.0
  0
LINE
  5
85
330
1F
100
AcDbEntity
  8
0
100
AcDbLine
 10
-3766.814511445021
 20
840.9550284453071
 30
0.0
 11
-3750.678742546319
 21
843.6796355873854
 31
0.0
  0
LINE
  5
86
330
1F
100
AcDbEntity
  8
0
100
AcDbLine
 10
-3749.400670342561
 20
848.9845858112737
 30
0.0
 11
-3750.678742546319
 21
843.6796355873854
 31
0.0
  0
LINE
  5
87
330
1F
100
AcDbEntity
  8
0
100
AcDbLine
 10
-3749.400670342561
 20
848.9845858112737
 30
0.0
 11
-3754.851539381037
 21
854.1667701206468
 31
0.0
  0
LINE
  5
88
330
1F
100
AcDbEntity
  8
0
100
AcDbLine
 10
-3754.851539381037
 20
854.1667701206468
 30
0.0
 11
-3766.286815889503
 21
861.1435568032326
 31
0.0
  0
LINE
  5
89
330
1F
100
AcDbEntity
  8
0
100
AcDbLine
 10
-3766.286815889503
 20
861.1435568032326
 30
0.0
 11
-3782.370045779186
 21
870.8965481643377
 31
0.0
  0
LINE
  5
8A
330
1F
100
AcDbEntity
  8
0
100
AcDbLine
 10
-3782.370045779186
 20
870.8965481643377
 30
0.0
 11
-3802.864351736675
 21
891.4261190369632
 31
0.0
  0
LINE
  5
8B
330
1F
100
AcDbEntity
  8
0
100
AcDbLine
 10
-3802.864351736675
 20
891.4261190369632
 30
0.0
 11
-3837.964618610662
 21
943.256777350768
 31
0.0
  0
LINE
  5
8C
330
1F
100
AcDbEntity
  8
0
100
AcDbLine
 10
-3837.964618610662
 20
943.256777350768
 30
0.0
 11
-3856.70368783554
 21
978.486210942588
 31
0.0
  0
LINE
  5
8D
330
1F
100
AcDbEntity
  8
0
100
AcDbLine
 10
-3856.70368783554
 20
978.486210942588
 30
0.0
 11
-3875.169729660892
 21
999.9740907761565
 31
0.0
  0
LINE
  5
8E
330
1F
100
AcDbEntity
  8
0
100
AcDbLine
 10
-3875.169729660892
 20
999.9740907761565
 30
0.0
 11
-3911.915971890954
 21
1032.964589523543
 31
0.0
  0
LINE
  5
8F
330
1F
100
AcDbEntity
  8
0
100
AcDbLine
 10
-3911.915971890954
 20
1032.964589523543
 30
0.0
 11
-3937.989788936984
 21
1055.971222868056
 31
0.0
  0
LINE
  5
90
330
1F
100
AcDbEntity
  8
0
100
AcDbLine
 10
-3937.989788936984
 20
1055.971222868056
 30
0.0
 11
-3950.125684494196
 21
1077.288158146681
 31
0.0
  0
LINE
  5
91
330
1F
100
AcDbEntity
  8
0
100
AcDbLine
 10
-3950.125684494196
 20
1077.288158146681
 30
0.0
 11
-3963.602049811807
 21
1094.297518082381
 31
0.0
  0
LINE
  5
92
330
1F
100
AcDbEntity
  8
0
100
AcDbLine
 10
-3963.602049811807
 20
1094.297518082381
 30
0.0
 11
-3975.348143281868
 21
1103.96946466564
 31
0.0
  0
LINE
  5
93
330
1F
100
AcDbEntity
  8
0
100
AcDbLine
 10
-3989.57423513092
 20
1103.129853799121
 30
0.0
 11
-3975.348143281868
 21
1103.96946466564
 31
0.0
  0
LINE
  5
94
330
1F
100
AcDbEntity
  8
0
100
AcDbLine
 10
-4107.964565901921
 20
1108.211291117847
 30
0.0
 11
-3989.57423513092
 21
1103.129853799121
 31
0.0
  0
LINE
  5
95
330
1F
100
AcDbEntity
  8
0
100
AcDbLine
 10
-4124.41297797172
 20
1109.870940402858
 30
0.0
 11
-4107.964565901921
 21
1108.211291117847
 31
0.0
  0
LINE
  5
96
330
1F
100
AcDbEntity
  8
0
100
AcDbLine
 10
-4091.145207367639
 20
1086.440028541449
 30
0.0
 11
-4124.41297797172
 21
1109.870940402858
 31
0.0
  0
LINE
  5
97
330
1F
100
AcDbEntity
  8
0
100
AcDbLine
 10
-4048.096966585846
 20
1054.292219445816
 30
0.0
 11
-4062.789434825648
 21
1063.450013989008
 31
0.0
  0
LINE
  5
98
330
1F
100
AcDbEntity
  8
0
100
AcDbLine
 10
-4033.906047293675
 20
1032.114343452314
 30
0.0
 11
-4048.096966585846
 21
1054.292219445816
 31
0.0
  0
LINE
  5
99
330
1F
100
AcDbEntity
  8
0
100
AcDbLine
 10
-4003.258084683035
 20
1000.462985868103
 30
0.0
 11
-4033.906047293675
 21
1032.114343452314
 31
0.0
  0
LINE
  5
9A
330
1F
100
AcDbEntity
  8
0
100
AcDbLine
 10
-3867.969999530268
 20
889.3328156666987
 30
0.0
 11
-4003.258084683035
 21
1000.462985868103
 31
0.0
  0
LINE
  5
9B
330
1F
100
AcDbEntity
  8
0
100
AcDbLine
 10
-3857.818247022633
 20
873.7210547364233
 30
0.0
 11
-3867.969999530268
 21
889.3328156666987
 31
0.0
  0
LINE
  5
9C
330
1F
100
AcDbEntity
  8
0
100
AcDbLine
 10
-3863.527521344176
 20
857.7514822004531
 30
0.0
 11
-3857.818247022633
 21
873.7210547364233
 31
0.0
  0
LINE
  5
9D
330
1F
100
AcDbEntity
  8
0
100
AcDbLine
 10
-3865.66324977114
 20
816.01300038499
 30
0.0
 11
-3897.01028513247
 21
816.0130004291606
 31
0.0
  0
LINE
  5
9E
330
1F
100
AcDbEntity
  8
0
100
AcDbLine
 10
-3897.01028513247
 20
816.0130004291606
 30
0.0
 11
-3918.417595881178
 21
817.3974250982708
 31
0.0
  0
LINE
  5
9F
330
1F
100
AcDbEntity
  8
0
100
AcDbLine
 10
-3918.417595881178
 20
817.3974250982708
 30
0.0
 11
-3935.163324705922
 21
821.2250609038582
 31
0.0
  0
LINE
  5
A0
330
1F
100
AcDbEntity
  8
0
100
AcDbLine
 10
-3935.163324705922
 20
821.2250609038582
 30
0.0
 11
-3920.303803665959
 21
808.2304057823527
 31
0.0
  0
LINE
  5
A1
330
1F
100
AcDbEntity
  8
0
100
AcDbLine
 10
-3920.303803665959
 20
808.2304057823527
 30
0.0
 11
-3902.47941585246
 21
807.0859792820994
 31
0.0
  0
LINE
  5
A2
330
1F
100
AcDbEntity
  8
0
100
AcDbLine
 10
-3902.47941585246
 20
807.0859792820994
 30
0.0
 11
-3860.159384040824
 21
800.4573728288372
 31
0.0
  0
LINE
  5
A3
330
1F
100
AcDbEntity
  8
0
100
AcDbLine
 10
-3860.159384040824
 20
800.4573728288372
 30
0.0
 11
-3827.79228786653
 21
797.8502299459631
 31
0.0
  0
LINE
  5
A4
330
1F
100
AcDbEntity
  8
0
100
AcDbLine
 10
-3807.245568794494
 20
802.5614405440725
 30
0.0
 11
-3827.79228786653
 21
797.8502299459631
 31
0.0
  0
LINE
  5
A5
330
1F
100
AcDbEntity
  8
0
100
AcDbLine
 10
-3777.326179734943
 20
805.1885218165212
 30
0.0
 11
-3807.245568794494
 21
802.5614405440725
 31
0.0
  0
LINE
  5
A6
330
1F
100
AcDbEntity
  8
0
100
AcDbLine
 10
-3728.61568001629
 20
807.2228804732806
 30
0.0
 11
-3777.326179734943
 21
805.1885218165212
 31
0.0
  0
LINE
  5
A7
330
1F
100
AcDbEntity
  8
0
100
AcDbLine
 10
-3719.168940885769
 20
811.9501359703588
 30
0.0
 11
-3728.61568001629
 21
807.2228804732806
 31
0.0
  0
LINE
  5
A8
330
1F
100
AcDbEntity
  8
0
100
AcDbLine
 10
-3729.064366743989
 20
826.7881791626525
 30
0.0
 11
-3719.168940885769
 21
811.9501359703588
 31
0.0
  0
LINE
  5
A9
330
1F
100
AcDbEntity
  8
0
100
AcDbLine
 10
-3742.717839181588
 20
841.2895621148616
 30
0.0
 11
-3729.064366743989
 21
826.7881791626525
 31
0.0
  0
LINE
  5
AA
330
1F
100
AcDbEntity
  8
0
100
AcDbLine
 10
-3746.411985800655
 20
838.3583981873222
 30
0.0
 11
-3742.717839181588
 21
841.2895621148616
 31
0.0
  0
LINE
  5
AB
330
1F
100
AcDbEntity
  8
0
100
AcDbLine
 10
-3799.838087267712
 20
831.3105877385988
 30
0.0
 11
-3746.411985800655
 21
838.3583981873222
 31
0.0
  0
LINE
  5
AC
330
1F
100
AcDbEntity
  8
0
100
AcDbLine
 10
-3812.05288949313
 20
827.3374604794565
 30
0.0
 11
-3799.838087267712
 21
831.3105877385988
 31
0.0
  0
LINE
  5
AD
330
1F
100
AcDbEntity
  8
0
100
AcDbLine
 10
-3825.189262062559
 20
819.7892902051387
 30
0.0
 11
-3812.05288949313
 21
827.3374604794565
 31
0.0
  0
LINE
  5
AE
330
1F
100
AcDbEntity
  8
0
100
AcDbLine
 10
-3833.761378065475
 20
816.721519037846
 30
0.0
 11
-3825.189262062559
 21
819.7892902051387
 31
0.0
  0
LINE
  5
AF
330
1F
100
AcDbEntity
  8
0
100
AcDbLine
 10
-3833.761378065475
 20
816.721519037846
 30
0.0
 11
-3865.66324977114
 21
816.01300038499
 31
0.0
  0
LINE
  5
B0
330
1F
100
AcDbEntity
  8
0
100
AcDbLine
 10
-3572.737591757736
 20
820.8923156303714
 30
0.0
 11
-3564.895386903126
 21
817.4302242577265
 31
0.0
  0
LINE
  5
B1
330
1F
100
AcDbEntity
  8
0
100
AcDbLine
 10
-3594.974479193666
 20
820.3209534286508
 30
0.0
 11
-3572.737591757736
 21
820.8923156303714
 31
0.0
  0
LINE
  5
B2
330
1F
100
AcDbEntity
  8
0
100
AcDbLine
 10
-3655.846912757468
 20
821.3752377093894
 30
0.0
 11
-3594.974479193666
 21
820.3209534286508
 31
0.0
  0
LINE
  5
B3
330
1F
100
AcDbEntity
  8
0
100
AcDbLine
 10
-3658.94022805407
 20
821.4288125954529
 30
0.0
 11
-3655.846912757468
 21
821.3752377093894
 31
0.0
  0
LINE
  5
B4
330
1F
100
AcDbEntity
  8
0
100
AcDbLine
 10
-3656.238412322775
 20
817.5744703211785
 30
0.0
 11
-3658.94022805407
 21
821.4288125954529
 31
0.0
  0
LINE
  5
B5
330
1F
100
AcDbEntity
  8
0
100
AcDbLine
 10
-3656.238412322775
 20
817.5744703211785
 30
0.0
 11
-3591.570521140508
 21
816.3895506708133
 31
0.0
  0
LINE
  5
B6
330
1F
100
AcDbEntity
  8
0
100
AcDbLine
 10
-3591.570521140508
 20
816.3895506708133
 30
0.0
 11
-3564.895386903126
 21
817.4302242577265
 31
0.0
  0
LINE
  5
B7
330
1F
100
AcDbEntity
  8
0
100
AcDbLine
 10
-3928.481177674865
 20
824.1179078241385
 30
0.0
 11
-3935.163324705922
 21
821.2250609038582
 31
0.0
  0
LINE
  5
B8
330
1F
100
AcDbEntity
  8
0
100
AcDbLine
 10
-3871.961646219715
 20
820.2891057893856
 30
0.0
 11
-3865.66324977114
 21
816.01300038499
 31
0.0
  0
LINE
  5
B9
330
1F
100
AcDbEntity
  8
0
100
AcDbLine
 10
-3871.961646219715
 20
820.2891057893856
 30
0.0
 11
-3904.807084952106
 21
820.2891058356568
 31
0.0
  0
LINE
  5
BA
330
1F
100
AcDbEntity
  8
0
100
AcDbLine
 10
-3904.807084952106
 20
820.2891058356568
 30
0.0
 11
-3919.479575116915
 21
821.1512357041405
 31
0.0
  0
LINE
  5
BB
330
1F
100
AcDbEntity
  8
0
100
AcDbLine
 10
-3919.479575116915
 20
821.1512357041405
 30
0.0
 11
-3928.481177674865
 21
824.1179078241385
 31
0.0
  0
LINE
  5
BC
330
1F
100
AcDbEntity
  8
0
100
AcDbLine
 10
-3887.318772823459
 20
827.4974388598604
 30
0.0
 11
-3871.961646219715
 21
820.2891057893856
 31
0.0
  0
LINE
  5
BD
330
1F
100
AcDbEntity
  8
0
100
AcDbLine
 10
-3922.5163662443
 20
833.7746196185047
 30
0.0
 11
-3887.318772823459
 21
827.4974388598604
 31
0.0
  0
LINE
  5
BE
330
1F
100
AcDbEntity
  8
0
100
AcDbLine
 10
-3922.5163662443
 20
833.7746196185047
 30
0.0
 11
-3932.714427696468
 21
830.4792532517833
 31
0.0
  0
LINE
  5
BF
330
1F
100
AcDbEntity
  8
0
100
AcDbLine
 10
-3932.165543659705
 20
827.3374606486003
 30
0.0
 11
-3932.714427696468
 21
830.4792532517833
 31
0.0
  0
LINE
  5
C0
330
1F
100
AcDbEntity
  8
0
100
AcDbLine
 10
-3928.481177674865
 20
824.1179078241385
 30
0.0
 11
-3932.165543659705
 21
827.3374606486003
 31
0.0
  0
LINE
  5
C1
330
1F
100
AcDbEntity
  8
0
100
AcDbLine
 10
-3632.040243512729
 20
800.5196191136431
 30
0.0
 11
-3613.681787600281
 21
798.3479224699818
 31
0.0
  0
LINE
  5
C2
330
1F
100
AcDbEntity
  8
0
100
AcDbLine
 10
-3613.681787600281
 20
798.3479224699818
 30
0.0
 11
-3553.514610723063
 21
796.5039576442017
 31
0.0
  0
LINE
  5
C3
330
1F
100
AcDbEntity
  8
0
100
AcDbLine
 10
-3553.514610723063
 20
796.5039576442017
 30
0.0
 11
-3537.541078709421
 21
797.69701875461
 31
0.0
  0
LINE
  5
C4
330
1F
100
AcDbEntity
  8
0
100
AcDbLine
 10
-3565.135038279257
 20
800.1934556799617
 30
0.0
 11
-3537.541078709421
 21
797.69701875461
 31
0.0
  0
LINE
  5
C5
330
1F
100
AcDbEntity
  8
0
100
AcDbLine
 10
-3613.127424443996
 20
807.0481471588163
 30
0.0
 11
-3565.135038279257
 21
800.1934556799617
 31
0.0
  0
LINE
  5
C6
330
1F
100
AcDbEntity
  8
0
100
AcDbLine
 10
-3613.127424443996
 20
807.0481471588163
 30
0.0
 11
-3635.3282747548
 21
807.5933528234012
 31
0.0
  0
LINE
  5
C7
330
1F
100
AcDbEntity
  8
0
100
AcDbLine
 10
-3640.269437391392
 20
805.1963414299277
 30
0.0
 11
-3635.3282747548
 21
807.5933528234012
 31
0.0
  0
LINE
  5
C8
330
1F
100
AcDbEntity
  8
0
100
AcDbLine
 10
-3640.269437391392
 20
805.1963414299277
 30
0.0
 11
-3632.040243512729
 21
800.5196191136431
 31
0.0
  0
LINE
  5
C9
330
1F
100
AcDbEntity
  8
0
100
AcDbLine
 10
-3920.303803665959
 20
808.2304057823527
 30
0.0
 11
-3900.515488630551
 21
803.3552273329141
 31
0.0
  0
LINE
  5
CA
330
1F
100
AcDbEntity
  8
0
100
AcDbLine
 10
-3900.515488630551
 20
803.3552273329141
 30
0.0
 11
-3852.48393912428
 21
798.4183826565817
 31
0.0
  0
LINE
  5
CB
330
1F
100
AcDbEntity
  8
0
100
AcDbLine
 10
-3852.48393912428
 20
798.4183826565817
 30
0.0
 11
-3827.79228786653
 21
797.8502299459631
 31
0.0
  0
LINE
  5
CC
330
1F
100
AcDbEntity
  8
0
100
AcDbLine
 10
-3657.849065755972
 20
829.264566708166
 30
0.0
 11
-3647.582635696137
 21
850.103291713687
 31
0.0
  0
LINE
  5
CD
330
1F
100
AcDbEntity
  8
0
100
AcDbLine
 10
-3657.849065755972
 20
829.264566708166
 30
0.0
 11
-3655.986165334169
 21
829.4694778377707
 31
0.0
  0
LINE
  5
CE
330
1F
100
AcDbEntity
  8
0
100
AcDbLine
 10
-3643.406703275276
 20
830.8551010130935
 30
0.0
 11
-3655.986165334169
 21
829.4694778377707
 31
0.0
  0
LINE
  5
CF
330
1F
100
AcDbEntity
  8
0
100
AcDbLine
 10
-3643.406703275276
 20
830.8551010130935
 30
0.0
 11
-3605.052323947766
 21
828.2712335836983
 31
0.0
  0
LINE
  5
D0
330
1F
100
AcDbEntity
  8
0
100
AcDbLine
 10
-3605.052323947766
 20
828.2712335836983
 30
0.0
 11
-3587.175499823
 21
826.0876526517027
 31
0.0
  0
LINE
  5
D1
330
1F
100
AcDbEntity
  8
0
100
AcDbLine
 10
-3572.737591757736
 20
820.8923156303714
 30
0.0
 11
-3587.175499823
 21
826.0876526517027
 31
0.0
  0
LINE
  5
D2
330
1F
100
AcDbEntity
  8
0
100
AcDbLine
 10
-3564.895386903126
 20
817.4302242577265
 30
0.0
 11
-3561.776236087254
 21
816.0532154534664
 31
0.0
  0
LINE
  5
D3
330
1F
100
AcDbEntity
  8
0
100
AcDbLine
 10
-3561.776236087254
 20
816.0532154534664
 30
0.0
 11
-3539.784419387099
 21
819.8909661698032
 31
0.0
  0
LINE
  5
D4
330
1F
100
AcDbEntity
  8
0
100
AcDbLine
 10
-3539.784419387099
 20
819.8909661698032
 30
0.0
 11
-3531.009703588881
 21
830.2681323631293
 31
0.0
  0
LINE
  5
D5
330
1F
100
AcDbEntity
  8
0
100
AcDbLine
 10
-3531.009703588881
 20
830.2681323631293
 30
0.0
 11
-3534.72049220362
 21
831.4740235074446
 31
0.0
  0
LINE
  5
D6
330
1F
100
AcDbEntity
  8
0
100
AcDbLine
 10
-3534.72049220362
 20
831.4740235074446
 30
0.0
 11
-3540.96761825678
 21
833.5041478985164
 31
0.0
  0
LINE
  5
D7
330
1F
100
AcDbEntity
  8
0
100
AcDbLine
 10
-3557.151871317527
 20
838.5849612397872
 30
0.0
 11
-3540.96761825678
 21
833.5041478985164
 31
0.0
  0
LINE
  5
D8
330
1F
100
AcDbEntity
  8
0
100
AcDbLine
 10
-3617.509425818783
 20
848.8687499118741
 30
0.0
 11
-3557.151871317527
 21
838.5849612397872
 31
0.0
  0
LINE
  5
D9
330
1F
100
AcDbEntity
  8
0
100
AcDbLine
 10
-3647.582635696137
 20
850.103291713687
 30
0.0
 11
-3617.509425818783
 21
848.8687499118741
 31
0.0
  0
LINE
  5
DA
330
1F
100
AcDbEntity
  8
0
100
AcDbLine
 10
-3529.92661155719
 20
852.2994571642242
 30
0.0
 11
-3545.456633578976
 21
858.7553017627848
 31
0.0
  0
LINE
  5
DB
330
1F
100
AcDbEntity
  8
0
100
AcDbLine
 10
-3538.001410178745
 20
852.8532510859849
 30
0.0
 11
-3545.456633578976
 21
858.7553017627848
 31
0.0
  0
LINE
  5
DC
330
1F
100
AcDbEntity
  8
0
100
AcDbLine
 10
-3535.982823012567
 20
844.4254506372133
 30
0.0
 11
-3538.001410178745
 21
852.8532510859849
 31
0.0
  0
LINE
  5
DD
330
1F
100
AcDbEntity
  8
0
100
AcDbLine
 10
-3535.982823012567
 20
844.4254506372133
 30
0.0
 11
-3529.92661155719
 21
852.2994571642242
 31
0.0
  0
LINE
  5
DE
330
1F
100
AcDbEntity
  8
0
100
AcDbLine
 10
-3759.61982378749
 20
1061.638594229802
 30
0.0
 11
-3800.220727627122
 21
1084.792765451642
 31
0.0
  0
LINE
  5
DF
330
1F
100
AcDbEntity
  8
0
100
AcDbLine
 10
-3800.220727627122
 20
1084.792765451642
 30
0.0
 11
-3827.432655027621
 21
1112.700738585449
 31
0.0
  0
LINE
  5
E0
330
1F
100
AcDbEntity
  8
0
100
AcDbLine
 10
-3954.227797937469
 20
1105.216229164399
 30
0.0
 11
-3827.432655027621
 21
1112.700738585449
 31
0.0
  0
LINE
  5
E1
330
1F
100
AcDbEntity
  8
0
100
AcDbLine
 10
-3954.227797937469
 20
1105.216229164399
 30
0.0
 11
-3904.713233566981
 21
1070.525937987925
 31
0.0
  0
LINE
  5
E2
330
1F
100
AcDbEntity
  8
0
100
AcDbLine
 10
-3904.713233566981
 20
1070.525937987925
 30
0.0
 11
-3853.869754875219
 21
1037.764821600092
 31
0.0
  0
LINE
  5
E3
330
1F
100
AcDbEntity
  8
0
100
AcDbLine
 10
-3853.869754875219
 20
1037.764821600092
 30
0.0
 11
-3797.888224776471
 21
993.1829927402447
 31
0.0
  0
LINE
  5
E4
330
1F
100
AcDbEntity
  8
0
100
AcDbLine
 10
-3686.815271297053
 20
913.5183506708295
 30
0.0
 11
-3671.184212467348
 21
898.0427094475015
 31
0.0
  0
LINE
  5
E5
330
1F
100
AcDbEntity
  8
0
100
AcDbLine
 10
-3671.184212467348
 20
898.0427094475015
 30
0.0
 11
-3660.301552965338
 21
880.3993895870755
 31
0.0
  0
LINE
  5
E6
330
1F
100
AcDbEntity
  8
0
100
AcDbLine
 10
-3660.301552965338
 20
880.3993895870755
 30
0.0
 11
-3650.004631131892
 21
867.6761858283477
 31
0.0
  0
LINE
  5
E7
330
1F
100
AcDbEntity
  8
0
100
AcDbLine
 10
-3650.004631131892
 20
867.6761858283477
 30
0.0
 11
-3645.070992418072
 21
857.2132179924681
 31
0.0
  0
LINE
  5
E8
330
1F
100
AcDbEntity
  8
0
100
AcDbLine
 10
-3647.582635696137
 20
850.103291713687
 30
0.0
 11
-3645.070992418072
 21
857.2132179924681
 31
0.0
  0
LINE
  5
E9
330
1F
100
AcDbEntity
  8
0
100
AcDbLine
 10
-3540.96761825678
 20
833.5041478985164
 30
0.0
 11
-3540.260992253163
 21
836.0324626754061
 31
0.0
  0
LINE
  5
EA
330
1F
100
AcDbEntity
  8
0
100
AcDbLine
 10
-3540.260992253163
 20
836.0324626754061
 30
0.0
 11
-3535.982823012567
 21
844.4254506372133
 31
0.0
  0
LINE
  5
EB
330
1F
100
AcDbEntity
  8
0
100
AcDbLine
 10
-3545.456633578976
 20
858.7553017627848
 30
0.0
 11
-3547.927290110799
 21
860.7113471625065
 31
0.0
  0
LINE
  5
EC
330
1F
100
AcDbEntity
  8
0
100
AcDbLine
 10
-3547.927290110799
 20
860.7113471625065
 30
0.0
 11
-3563.031593866908
 21
866.7775228732083
 31
0.0
  0
LINE
  5
ED
330
1F
100
AcDbEntity
  8
0
100
AcDbLine
 10
-3563.031593866908
 20
866.7775228732083
 30
0.0
 11
-3596.085479519799
 21
888.1536453356672
 31
0.0
  0
LINE
  5
EE
330
1F
100
AcDbEntity
  8
0
100
AcDbLine
 10
-3596.085479519799
 20
888.1536453356672
 30
0.0
 11
-3608.675810105349
 21
900.0488959606529
 31
0.0
  0
LINE
  5
EF
330
1F
100
AcDbEntity
  8
0
100
AcDbLine
 10
-3608.675810105349
 20
900.0488959606529
 30
0.0
 11
-3675.908637473568
 21
995.9839966456602
 31
0.0
  0
LINE
  5
F0
330
1F
100
AcDbEntity
  8
0
100
AcDbLine
 10
-3675.908637473568
 20
995.9839966456602
 30
0.0
 11
-3709.510934188305
 21
1025.818573360584
 31
0.0
  0
LINE
  5
F1
330
1F
100
AcDbEntity
  8
0
100
AcDbLine
 10
-3709.510934188305
 20
1025.818573360584
 30
0.0
 11
-3759.61982378749
 21
1061.638594229802
 31
0.0
  0
LINE
  5
F2
330
1F
100
AcDbEntity
  8
0
100
AcDbLine
 10
-4199.205337800834
 20
1484.951685585914
 30
0.0
 11
-4260.718826234322
 21
1588.286966992951
 31
0.0
  0
LINE
  5
F3
330
1F
100
AcDbEntity
  8
0
100
AcDbLine
 10
-3525.594838160411
 20
847.5496473979956
 30
0.0
 11
-3534.72049220362
 21
831.4740235074446
 31
0.0
  0
LINE
  5
F4
330
1F
100
AcDbEntity
  8
0
100
AcDbLine
 10
-4267.943078650257
 20
1644.262800039391
 30
0.0
 11
-4251.594997088874
 21
1642.359303504536
 31
0.0
  0
LINE
  5
F5
330
1F
100
AcDbEntity
  8
0
100
AcDbLine
 10
-4251.594997088874
 20
1642.359303504536
 30
0.0
 11
-4273.063377961461
 21
1650.82787264948
 31
0.0
  0
LINE
  5
F6
330
1F
100
AcDbEntity
  8
0
100
AcDbLine
 10
-4273.063377961461
 20
1650.82787264948
 30
0.0
 11
-4295.737482346195
 21
1669.318049841194
 31
0.0
  0
LINE
  5
F7
330
1F
100
AcDbEntity
  8
0
100
AcDbLine
 10
-4295.737482346195
 20
1669.318049841194
 30
0.0
 11
-4306.269484649505
 21
1683.670448644143
 31
0.0
  0
LINE
  5
F8
330
1F
100
AcDbEntity
  8
0
100
AcDbLine
 10
-4306.269484649505
 20
1683.670448644143
 30
0.0
 11
-4312.906299014579
 21
1695.700016571544
 31
0.0
  0
LINE
  5
F9
330
1F
100
AcDbEntity
  8
0
100
AcDbLine
 10
-4312.906299014579
 20
1695.700016571544
 30
0.0
 11
-4307.01106816109
 21
1705.845456461518
 31
0.0
  0
LINE
  5
FA
330
1F
100
AcDbEntity
  8
0
100
AcDbLine
 10
-4307.01106816109
 20
1705.845456461518
 30
0.0
 11
-4292.130466103774
 21
1710.363999211314
 31
0.0
  0
LINE
  5
FB
330
1F
100
AcDbEntity
  8
0
100
AcDbLine
 10
-4292.130466103774
 20
1710.363999211314
 30
0.0
 11
-4269.88759863303
 21
1711.964017397133
 31
0.0
  0
LINE
  5
FC
330
1F
100
AcDbEntity
  8
0
100
AcDbLine
 10
-4269.88759863303
 20
1711.964017397133
 30
0.0
 11
-4253.246718857721
 21
1710.035955627266
 31
0.0
  0
LINE
  5
FD
330
1F
100
AcDbEntity
  8
0
100
AcDbLine
 10
-4253.246718857721
 20
1710.035955627266
 30
0.0
 11
-4249.177019886767
 21
1709.564293842023
 31
0.0
  0
LINE
  5
FE
330
1F
100
AcDbEntity
  8
0
100
AcDbLine
 10
-4249.177019886767
 20
1709.564293842023
 30
0.0
 11
-4362.926777699579
 21
1750.457814559175
 31
0.0
  0
LINE
  5
FF
330
1F
100
AcDbEntity
  8
0
100
AcDbLine
 10
-4362.926777699579
 20
1750.457814559175
 30
0.0
 11
-4367.954276478895
 21
1751.709106689813
 31
0.0
  0
LINE
  5
100
330
1F
100
AcDbEntity
  8
0
100
AcDbLine
 10
-4367.954276478895
 20
1751.709106689813
 30
0.0
 11
-4384.219249791984
 21
1755.757339213559
 31
0.0
  0
LINE
  5
101
330
1F
100
AcDbEntity
  8
0
100
AcDbLine
 10
-4384.219249791984
 20
1755.757339213559
 30
0.0
 11
-4494.886581203315
 21
1769.99496287229
 31
0.0
  0
LINE
  5
102
330
1F
100
AcDbEntity
  8
0
100
AcDbLine
 10
-4494.886581203315
 20
1769.99496287229
 30
0.0
 11
-4507.432167625887
 21
1741.541379241939
 31
0.0
  0
LINE
  5
103
330
1F
100
AcDbEntity
  8
0
100
AcDbLine
 10
-4507.432167625887
 20
1741.541379241939
 30
0.0
 11
-4517.705145487445
 21
1719.41562474014
 31
0.0
  0
LINE
  5
104
330
1F
100
AcDbEntity
  8
0
100
AcDbLine
 10
-4517.705145487445
 20
1719.41562474014
 30
0.0
 11
-4534.913609242766
 21
1703.468740277226
 31
0.0
  0
LINE
  5
105
330
1F
100
AcDbEntity
  8
0
100
AcDbLine
 10
-4534.913609242766
 20
1703.468740277226
 30
0.0
 11
-4570.333543822214
 21
1685.98634078916
 31
0.0
  0
LINE
  5
106
330
1F
100
AcDbEntity
  8
0
100
AcDbLine
 10
-4570.333543822214
 20
1685.98634078916
 30
0.0
 11
-4602.071046653084
 21
1691.731208417203
 31
0.0
  0
LINE
  5
107
330
1F
100
AcDbEntity
  8
0
100
AcDbLine
 10
-4602.071046653084
 20
1691.731208417203
 30
0.0
 11
-4627.401175996608
 21
1698.51977253261
 31
0.0
  0
LINE
  5
108
330
1F
100
AcDbEntity
  8
0
100
AcDbLine
 10
-4627.401175996608
 20
1698.51977253261
 30
0.0
 11
-4651.863205124319
 21
1708.4281631728
 31
0.0
  0
LINE
  5
109
330
1F
100
AcDbEntity
  8
0
100
AcDbLine
 10
-4651.863205124319
 20
1708.4281631728
 30
0.0
 11
-4670.508662715378
 21
1718.169133181478
 31
0.0
  0
LINE
  5
10A
330
1F
100
AcDbEntity
  8
0
100
AcDbLine
 10
-4670.508662715378
 20
1718.169133181478
 30
0.0
 11
-4687.278579652241
 21
1731.497400695885
 31
0.0
  0
LINE
  5
10B
330
1F
100
AcDbEntity
  8
0
100
AcDbLine
 10
-4687.278579652241
 20
1731.497400695885
 30
0.0
 11
-4695.317967371286
 21
1741.331500323565
 31
0.0
  0
LINE
  5
10C
330
1F
100
AcDbEntity
  8
0
100
AcDbLine
 10
-4695.317967371286
 20
1741.331500323565
 30
0.0
 11
-4690.152470090749
 21
1755.205643774328
 31
0.0
  0
LINE
  5
10D
330
1F
100
AcDbEntity
  8
0
100
AcDbLine
 10
-4690.152470090749
 20
1755.205643774328
 30
0.0
 11
-4677.695443413197
 21
1763.749410974991
 31
0.0
  0
LINE
  5
10E
330
1F
100
AcDbEntity
  8
0
100
AcDbLine
 10
-4746.267067167982
 20
1740.369261548522
 30
0.0
 11
-4677.695443413197
 21
1763.749410974991
 31
0.0
  0
LINE
  5
10F
330
1F
100
AcDbEntity
  8
0
100
AcDbLine
 10
-4768.466801185531
 20
1732.800050406398
 30
0.0
 11
-4746.267067167982
 21
1740.369261548522
 31
0.0
  0
LINE
  5
110
330
1F
100
AcDbEntity
  8
0
100
AcDbLine
 10
-4789.640662892389
 20
1716.052998567249
 30
0.0
 11
-4768.466801185531
 21
1732.800050406398
 31
0.0
  0
LINE
  5
111
330
1F
100
AcDbEntity
  8
0
100
AcDbLine
 10
-4806.555175692782
 20
1697.347706383597
 30
0.0
 11
-4789.640662892389
 21
1716.052998567249
 31
0.0
  0
LINE
  5
112
330
1F
100
AcDbEntity
  8
0
100
AcDbLine
 10
-4779.89412698649
 20
1683.57773075281
 30
0.0
 11
-4806.555175692782
 21
1697.347706383597
 31
0.0
  0
LINE
  5
113
330
1F
100
AcDbEntity
  8
0
100
AcDbLine
 10
-4716.609475522036
 20
1650.892413200548
 30
0.0
 11
-4779.89412698649
 21
1683.57773075281
 31
0.0
  0
LINE
  5
114
330
1F
100
AcDbEntity
  8
0
100
AcDbLine
 10
-4696.791801545717
 20
1643.821715268926
 30
0.0
 11
-4716.609475522036
 21
1650.892413200548
 31
0.0
  0
LINE
  5
115
330
1F
100
AcDbEntity
  8
0
100
AcDbLine
 10
-4696.791801545717
 20
1643.821715268926
 30
0.0
 11
-4640.647761553772
 21
1597.877490945945
 31
0.0
  0
LINE
  5
116
330
1F
100
AcDbEntity
  8
0
100
AcDbLine
 10
-4640.647761553772
 20
1597.877490945945
 30
0.0
 11
-4587.59886991469
 21
1562.743287101372
 31
0.0
  0
LINE
  5
117
330
1F
100
AcDbEntity
  8
0
100
AcDbLine
 10
-4587.59886991469
 20
1562.743287101372
 30
0.0
 11
-4542.365323410761
 21
1517.99762834832
 31
0.0
  0
LINE
  5
118
330
1F
100
AcDbEntity
  8
0
100
AcDbLine
 10
-4542.365323410761
 20
1517.99762834832
 30
0.0
 11
-4488.848257385089
 21
1466.561236810483
 31
0.0
  0
LINE
  5
119
330
1F
100
AcDbEntity
  8
0
100
AcDbLine
 10
-4488.848257385089
 20
1466.561236810483
 30
0.0
 11
-4440.757040201239
 21
1381.605267955188
 31
0.0
  0
LINE
  5
11A
330
1F
100
AcDbEntity
  8
0
100
AcDbLine
 10
-4440.757040201239
 20
1381.605267955188
 30
0.0
 11
-4436.721525503168
 21
1381.164413041156
 31
0.0
  0
LINE
  5
11B
330
1F
100
AcDbEntity
  8
0
100
AcDbLine
 10
-4436.721525503168
 20
1381.164413041156
 30
0.0
 11
-4378.84372237971
 21
1374.842452751238
 31
0.0
  0
LINE
  5
11C
330
1F
100
AcDbEntity
  8
0
100
AcDbLine
 10
-4378.84372237971
 20
1374.842452751238
 30
0.0
 11
-4258.047170400736
 21
1370.936591302578
 31
0.0
  0
LINE
  5
11D
330
1F
100
AcDbEntity
  8
0
100
AcDbLine
 10
-4258.047170400736
 20
1370.936591302578
 30
0.0
 11
-4136.442791081478
 21
1370.93659113643
 31
0.0
  0
LINE
  5
11E
330
1F
100
AcDbEntity
  8
0
100
AcDbLine
 10
-4136.442791081478
 20
1370.93659113643
 30
0.0
 11
-4028.598638126587
 21
1377.821470906947
 31
0.0
  0
LINE
  5
11F
330
1F
100
AcDbEntity
  8
0
100
AcDbLine
 10
-4028.598638126587
 20
1377.821470906947
 30
0.0
 11
-4025.122943611014
 21
1378.043324688385
 31
0.0
  0
LINE
  5
120
330
1F
100
AcDbEntity
  8
0
100
AcDbLine
 10
-4025.122943611014
 20
1378.043324688385
 30
0.0
 11
-4115.278138805646
 21
1431.20610859768
 31
0.0
  0
LINE
  5
121
330
1F
100
AcDbEntity
  8
0
100
AcDbLine
 10
-4115.278138805646
 20
1431.20610859768
 30
0.0
 11
-4148.365573972844
 21
1427.601997394304
 31
0.0
  0
LINE
  5
122
330
1F
100
AcDbEntity
  8
0
100
AcDbLine
 10
-4148.365573972844
 20
1427.601997394304
 30
0.0
 11
-4175.277323325623
 21
1423.620696461445
 31
0.0
  0
LINE
  5
123
330
1F
100
AcDbEntity
  8
0
100
AcDbLine
 10
-4175.277323325623
 20
1423.620696461445
 30
0.0
 11
-4209.701368901599
 21
1417.934644984107
 31
0.0
  0
LINE
  5
124
330
1F
100
AcDbEntity
  8
0
100
AcDbLine
 10
-4209.701368901599
 20
1417.934644984107
 30
0.0
 11
-4217.626649520433
 21
1418.746426763138
 31
0.0
  0
LINE
  5
125
330
1F
100
AcDbEntity
  8
0
100
AcDbLine
 10
-4217.626649520433
 20
1418.746426763138
 30
0.0
 11
-4222.039178601455
 21
1420.002310564191
 31
0.0
  0
LINE
  5
126
330
1F
100
AcDbEntity
  8
0
100
AcDbLine
 10
-4222.039178601455
 20
1420.002310564191
 30
0.0
 11
-4224.903409442346
 21
1421.923882844093
 31
0.0
  0
LINE
  5
127
330
1F
100
AcDbEntity
  8
0
100
AcDbLine
 10
-4226.484905823679
 20
1423.921016015827
 30
0.0
 11
-4224.903409442346
 21
1421.923882844093
 31
0.0
  0
LINE
  5
128
330
1F
100
AcDbEntity
  8
0
100
AcDbLine
 10
-4226.484905823679
 20
1423.921016015827
 30
0.0
 11
-4225.899658958096
 21
1426.067914942859
 31
0.0
  0
LINE
  5
129
330
1F
100
AcDbEntity
  8
0
100
AcDbLine
 10
-4225.899658958096
 20
1426.067914942859
 30
0.0
 11
-4217.847847860515
 21
1427.623734736381
 31
0.0
  0
LINE
  5
12A
330
1F
100
AcDbEntity
  8
0
100
AcDbLine
 10
-4217.847847860515
 20
1427.623734736381
 30
0.0
 11
-4185.126255091312
 21
1438.247838054026
 31
0.0
  0
LINE
  5
12B
330
1F
100
AcDbEntity
  8
0
100
AcDbLine
 10
-4185.126255091312
 20
1438.247838054026
 30
0.0
 11
-4190.230321534244
 21
1440.110265440211
 31
0.0
  0
LINE
  5
12C
330
1F
100
AcDbEntity
  8
0
100
AcDbLine
 10
-4190.230321534244
 20
1440.110265440211
 30
0.0
 11
-4264.883201332671
 21
1432.127481120083
 31
0.0
  0
LINE
  5
12D
330
1F
100
AcDbEntity
  8
0
100
AcDbLine
 10
-4264.883201332671
 20
1432.127481120083
 30
0.0
 11
-4271.28575854113
 21
1432.990756974785
 31
0.0
  0
LINE
  5
12E
330
1F
100
AcDbEntity
  8
0
100
AcDbLine
 10
-4271.28575854113
 20
1432.990756974785
 30
0.0
 11
-4275.776162520755
 21
1434.876188447046
 31
0.0
  0
LINE
  5
12F
330
1F
100
AcDbEntity
  8
0
100
AcDbLine
 10
-4275.776162520755
 20
1434.876188447046
 30
0.0
 11
-4278.989146869838
 21
1437.234811669604
 31
0.0
  0
LINE
  5
130
330
1F
100
AcDbEntity
  8
0
100
AcDbLine
 10
-4278.989146869838
 20
1437.234811669604
 30
0.0
 11
-4280.40736741769
 21
1439.517031329419
 31
0.0
  0
LINE
  5
131
330
1F
100
AcDbEntity
  8
0
100
AcDbLine
 10
-4280.40736741769
 20
1439.517031329419
 30
0.0
 11
-4279.518458963353
 21
1441.486212353298
 31
0.0
  0
LINE
  5
132
330
1F
100
AcDbEntity
  8
0
100
AcDbLine
 10
-4279.518458963353
 20
1441.486212353298
 30
0.0
 11
-4274.301248510647
 21
1442.826369495125
 31
0.0
  0
LINE
  5
133
330
1F
100
AcDbEntity
  8
0
100
AcDbLine
 10
-4274.301248510647
 20
1442.826369495125
 30
0.0
 11
-4241.032465653132
 21
1448.985660378031
 31
0.0
  0
LINE
  5
134
330
1F
100
AcDbEntity
  8
0
100
AcDbLine
 10
-4241.032465653132
 20
1448.985660378031
 30
0.0
 11
-4234.934457342285
 21
1450.646257436237
 31
0.0
  0
LINE
  5
135
330
1F
100
AcDbEntity
  8
0
100
AcDbLine
 10
-4234.934457342285
 20
1450.646257436237
 30
0.0
 11
-4210.322603839495
 21
1453.02163745543
 31
0.0
  0
LINE
  5
136
330
1F
100
AcDbEntity
  8
0
100
AcDbLine
 10
-4210.322603839495
 20
1453.02163745543
 30
0.0
 11
-4218.407120233754
 21
1454.44780424889
 31
0.0
  0
LINE
  5
137
330
1F
100
AcDbEntity
  8
0
100
AcDbLine
 10
-4218.407120233754
 20
1454.44780424889
 30
0.0
 11
-4250.268107006443
 21
1454.447804292217
 31
0.0
  0
LINE
  5
138
330
1F
100
AcDbEntity
  8
0
100
AcDbLine
 10
-4250.268107006443
 20
1454.447804292217
 30
0.0
 11
-4291.408083358761
 21
1448.194747968781
 31
0.0
  0
LINE
  5
139
330
1F
100
AcDbEntity
  8
0
100
AcDbLine
 10
-4291.408083358761
 20
1448.194747968781
 30
0.0
 11
-4297.814871219894
 21
1448.318198107921
 31
0.0
  0
LINE
  5
13A
330
1F
100
AcDbEntity
  8
0
100
AcDbLine
 10
-4297.814871219894
 20
1448.318198107921
 30
0.0
 11
-4302.197342038338
 21
1449.433353356173
 31
0.0
  0
LINE
  5
13B
330
1F
100
AcDbEntity
  8
0
100
AcDbLine
 10
-4302.197342038338
 20
1449.433353356173
 30
0.0
 11
-4306.760256959869
 21
1451.665789741672
 31
0.0
  0
LINE
  5
13C
330
1F
100
AcDbEntity
  8
0
100
AcDbLine
 10
-4306.760256959869
 20
1451.665789741672
 30
0.0
 11
-4308.855190440438
 21
1453.740521205279
 31
0.0
  0
LINE
  5
13D
330
1F
100
AcDbEntity
  8
0
100
AcDbLine
 10
-4308.855190440438
 20
1453.740521205279
 30
0.0
 11
-4310.008162721184
 21
1455.897087017224
 31
0.0
  0
LINE
  5
13E
330
1F
100
AcDbEntity
  8
0
100
AcDbLine
 10
-4310.008162721184
 20
1455.897087017224
 30
0.0
 11
-4308.180920482258
 21
1457.975650030445
 31
0.0
  0
LINE
  5
13F
330
1F
100
AcDbEntity
  8
0
100
AcDbLine
 10
-4308.180920482258
 20
1457.975650030445
 30
0.0
 11
-4268.532024942137
 21
1466.790514624129
 31
0.0
  0
LINE
  5
140
330
1F
100
AcDbEntity
  8
0
100
AcDbLine
 10
-4268.532024942137
 20
1466.790514624129
 30
0.0
 11
-4262.182020964023
 21
1467.522779817415
 31
0.0
  0
LINE
  5
141
330
1F
100
AcDbEntity
  8
0
100
AcDbLine
 10
-4262.182020964023
 20
1467.522779817415
 30
0.0
 11
-4224.854321061618
 21
1468.391042145838
 31
0.0
  0
LINE
  5
142
330
1F
100
AcDbEntity
  8
0
100
AcDbLine
 10
-4224.854321061618
 20
1468.391042145838
 30
0.0
 11
-4257.708913233228
 21
1471.929177776011
 31
0.0
  0
LINE
  5
143
330
1F
100
AcDbEntity
  8
0
100
AcDbLine
 10
-4257.708913233228
 20
1471.929177776011
 30
0.0
 11
-4283.151703991151
 21
1470.208059965085
 31
0.0
  0
LINE
  5
144
330
1F
100
AcDbEntity
  8
0
100
AcDbLine
 10
-4283.151703991151
 20
1470.208059965085
 30
0.0
 11
-4294.86777074115
 21
1468.201019305555
 31
0.0
  0
LINE
  5
145
330
1F
100
AcDbEntity
  8
0
100
AcDbLine
 10
-4294.86777074115
 20
1468.201019305555
 30
0.0
 11
-4302.155374210303
 21
1468.60232081169
 31
0.0
  0
LINE
  5
146
330
1F
100
AcDbEntity
  8
0
100
AcDbLine
 10
-4302.155374210303
 20
1468.60232081169
 30
0.0
 11
-4307.34750210618
 21
1469.873459473681
 31
0.0
  0
LINE
  5
147
330
1F
100
AcDbEntity
  8
0
100
AcDbLine
 10
-4307.34750210618
 20
1469.873459473681
 30
0.0
 11
-4310.554505741813
 21
1471.614592724918
 31
0.0
  0
LINE
  5
148
330
1F
100
AcDbEntity
  8
0
100
AcDbLine
 10
-4312.250930220076
 20
1473.557355208668
 30
0.0
 11
-4312.007195869324
 21
1475.502203594462
 31
0.0
  0
LINE
  5
149
330
1F
100
AcDbEntity
  8
0
100
AcDbLine
 10
-4312.007195869324
 20
1475.502203594462
 30
0.0
 11
-4305.609808537495
 21
1479.060166676653
 31
0.0
  0
LINE
  5
14A
330
1F
100
AcDbEntity
  8
0
100
AcDbLine
 10
-4305.609808537495
 20
1479.060166676653
 30
0.0
 11
-4271.633134591126
 21
1484.778602638297
 31
0.0
  0
LINE
  5
14B
330
1F
100
AcDbEntity
  8
0
100
AcDbLine
 10
-4195.038129893483
 20
1478.238739533569
 30
0.0
 11
-4199.205337800834
 21
1484.951685585914
 31
0.0
  0
LINE
  5
14C
330
1F
100
AcDbEntity
  8
0
100
AcDbLine
 10
-3522.794541411612
 20
801.5481919962331
 30
0.0
 11
-3537.541078709421
 21
797.69701875461
 31
0.0
  0
LINE
  5
14D
330
1F
100
AcDbEntity
  8
0
100
AcDbLine
 10
-3513.54524676688
 20
806.2589017675268
 30
0.0
 11
-3522.794541411612
 21
801.5481919962331
 31
0.0
  0
LINE
  5
14E
330
1F
100
AcDbEntity
  8
0
100
AcDbLine
 10
-3499.091429740319
 20
809.7685813435293
 30
0.0
 11
-3513.54524676688
 21
806.2589017675268
 31
0.0
  0
LINE
  5
14F
330
1F
100
AcDbEntity
  8
0
100
AcDbLine
 10
-3525.594838160411
 20
847.5496473979956
 30
0.0
 11
-3499.091429740319
 21
809.7685813435293
 31
0.0
  0
LINE
  5
150
330
1F
100
AcDbEntity
  8
0
100
AcDbLine
 10
-4682.382809319629
 20
1778.116836908411
 30
0.0
 11
-4677.695443413197
 21
1763.749410974991
 31
0.0
  0
LINE
  5
151
330
1F
100
AcDbEntity
  8
0
100
AcDbLine
 10
-4390.345193449534
 20
1281.903531494425
 30
0.0
 11
-4388.33110387799
 21
1280.193873735771
 31
0.0
  0
LINE
  5
152
330
1F
100
AcDbEntity
  8
0
100
AcDbLine
 10
-4388.33110387799
 20
1280.193873735771
 30
0.0
 11
-4378.057627609091
 21
1276.742986514959
 31
0.0
  0
LINE
  5
153
330
1F
100
AcDbEntity
  8
0
100
AcDbLine
 10
-4358.884506744173
 20
1277.039172383008
 30
0.0
 11
-4355.679650688306
 21
1275.273573664
 31
0.0
  0
LINE
  5
154
330
1F
100
AcDbEntity
  8
0
100
AcDbLine
 10
-4358.884506744173
 20
1277.039172383008
 30
0.0
 11
-4362.758620344767
 21
1277.787474269947
 31
0.0
  0
LINE
  5
155
330
1F
100
AcDbEntity
  8
0
100
AcDbLine
 10
-4390.345193449534
 20
1281.903531494425
 30
0.0
 11
-4379.25957185361
 21
1278.215218571593
 31
0.0
  0
LINE
  5
156
330
1F
100
AcDbEntity
  8
0
100
AcDbLine
 10
-4330.701033412905
 20
1263.510381884751
 30
0.0
 11
-4332.553955717859
 21
1262.322579054495
 31
0.0
  0
LINE
  5
157
330
1F
100
AcDbEntity
  8
0
100
AcDbLine
 10
-4332.553955717859
 20
1262.322579054495
 30
0.0
 11
-4338.499114236582
 21
1262.157933399615
 31
0.0
  0
LINE
  5
158
330
1F
100
AcDbEntity
  8
0
100
AcDbLine
 10
-4338.499114236582
 20
1262.157933399615
 30
0.0
 11
-4338.051636931313
 21
1260.785599341866
 31
0.0
  0
LINE
  5
159
330
1F
100
AcDbEntity
  8
0
100
AcDbLine
 10
-4255.390648097555
 20
1181.754783130954
 30
0.0
 11
-4338.051636931313
 21
1260.785599341866
 31
0.0
  0
LINE
  5
15A
330
1F
100
AcDbEntity
  8
0
100
AcDbLine
 10
-4220.452198234464
 20
1119.537598570932
 30
0.0
 11
-4255.390648097555
 21
1181.754783130954
 31
0.0
  0
LINE
  5
15B
330
1F
100
AcDbEntity
  8
0
100
AcDbLine
 10
-4124.41297797172
 20
1109.870940402858
 30
0.0
 11
-4220.452198234464
 21
1119.537598570932
 31
0.0
  0
LINE
  5
15C
330
1F
100
AcDbEntity
  8
0
100
AcDbLine
 10
-3954.227797937469
 20
1105.216229164399
 30
0.0
 11
-3975.348143281868
 21
1103.96946466564
 31
0.0
  0
LINE
  5
15D
330
1F
100
AcDbEntity
  8
0
100
AcDbLine
 10
-3747.087221726778
 20
1117.443461992048
 30
0.0
 11
-3827.432655027621
 21
1112.700738585449
 31
0.0
  0
LINE
  5
15E
330
1F
100
AcDbEntity
  8
0
100
AcDbLine
 10
-3810.315173137268
 20
1166.510304623607
 30
0.0
 11
-3747.087221726778
 21
1117.443461992048
 31
0.0
  0
LINE
  5
15F
330
1F
100
AcDbEntity
  8
0
100
AcDbLine
 10
-3863.437375407538
 20
1217.085806201948
 30
0.0
 11
-3810.315173137268
 21
1166.510304623607
 31
0.0
  0
LINE
  5
160
330
1F
100
AcDbEntity
  8
0
100
AcDbLine
 10
-3960.460287671303
 20
1318.68307863413
 30
0.0
 11
-3936.684745640473
 21
1295.63036963755
 31
0.0
  0
LINE
  5
161
330
1F
100
AcDbEntity
  8
0
100
AcDbLine
 10
-4028.598638126587
 20
1377.821470906947
 30
0.0
 11
-3960.460287671303
 21
1318.68307863413
 31
0.0
  0
LINE
  5
162
330
1F
100
AcDbEntity
  8
0
100
AcDbLine
 10
-4405.310415756757
 20
1329.4444285655
 30
0.0
 11
-4436.721525503168
 21
1381.164413041156
 31
0.0
  0
LINE
  5
163
330
1F
100
AcDbEntity
  8
0
100
AcDbLine
 10
-4399.39905534414
 20
1325.853277186732
 30
0.0
 11
-4405.310415756757
 21
1329.4444285655
 31
0.0
  0
LINE
  5
164
330
1F
100
AcDbEntity
  8
0
100
AcDbLine
 10
-4399.39905534414
 20
1325.853277186732
 30
0.0
 11
-4377.014380454822
 21
1305.919261667824
 31
0.0
  0
LINE
  5
165
330
1F
100
AcDbEntity
  8
0
100
AcDbLine
 10
-4351.364426007942
 20
1286.572534549776
 30
0.0
 11
-4357.677141035132
 21
1294.167596432662
 31
0.0
  0
LINE
  5
166
330
1F
100
AcDbEntity
  8
0
100
AcDbLine
 10
-4360.94522515579
 20
1282.171233021668
 30
0.0
 11
-4353.046632643316
 21
1282.784765672334
 31
0.0
  0
LINE
  5
167
330
1F
100
AcDbEntity
  8
0
100
AcDbLine
 10
-4360.94522515579
 20
1282.171233021668
 30
0.0
 11
-4354.031513793166
 21
1275.170191156979
 31
0.0
  0
LINE
  5
168
330
1F
100
AcDbEntity
  8
0
100
AcDbLine
 10
-4334.102145238146
 20
1267.358398609154
 30
0.0
 11
-4332.421538513769
 21
1266.623918181427
 31
0.0
  0
LINE
  5
169
330
1F
100
AcDbEntity
  8
0
100
AcDbLine
 10
-4330.701033412905
 20
1263.510381884751
 30
0.0
 11
-4332.421538513769
 21
1266.623918181427
 31
0.0
  0
LINE
  5
16A
330
1F
100
AcDbEntity
  8
0
100
AcDbLine
 10
-4129.044785990085
 20
1594.018244989688
 30
0.0
 11
-4051.935022438451
 21
1566.425314519073
 31
0.0
  0
LINE
  5
16B
330
1F
100
AcDbEntity
  8
0
100
AcDbLine
 10
-4083.494047514351
 20
1514.991277778176
 30
0.0
 11
-4051.935022438451
 21
1566.425314519073
 31
0.0
  0
LINE
  5
16C
330
1F
100
AcDbEntity
  8
0
100
AcDbLine
 10
-4140.790130352329
 20
1477.078160856075
 30
0.0
 11
-4083.494047514351
 21
1514.991277778176
 31
0.0
  0
LINE
  5
16D
330
1F
100
AcDbEntity
  8
0
100
AcDbLine
 10
-4164.570833332229
 20
1475.974280665398
 30
0.0
 11
-4140.790130352329
 21
1477.078160856075
 31
0.0
  0
LINE
  5
16E
330
1F
100
AcDbEntity
  8
0
100
AcDbLine
 10
-4184.152206612315
 20
1477.740184617267
 30
0.0
 11
-4164.570833332229
 21
1475.974280665398
 31
0.0
  0
LINE
  5
16F
330
1F
100
AcDbEntity
  8
0
100
AcDbLine
 10
-4199.205337800834
 20
1484.951685585914
 30
0.0
 11
-4184.152206612315
 21
1477.740184617267
 31
0.0
  0
LINE
  5
170
330
1F
100
AcDbEntity
  8
0
100
AcDbLine
 10
-4105.563985973866
 20
1432.264295911152
 30
0.0
 11
-4115.278138805646
 21
1431.20610859768
 31
0.0
  0
LINE
  5
171
330
1F
100
AcDbEntity
  8
0
100
AcDbLine
 10
-4082.244422613631
 20
1443.382955820742
 30
0.0
 11
-4105.563985973866
 21
1432.264295911152
 31
0.0
  0
LINE
  5
172
330
1F
100
AcDbEntity
  8
0
100
AcDbLine
 10
-4060.557790141276
 20
1458.757153402104
 30
0.0
 11
-4072.534116962624
 21
1451.931120926542
 31
0.0
  0
LINE
  5
173
330
1F
100
AcDbEntity
  8
0
100
AcDbLine
 10
-3986.160748612779
 20
1497.587536476427
 30
0.0
 11
-4060.557790141276
 21
1458.757153402104
 31
0.0
  0
LINE
  5
174
330
1F
100
AcDbEntity
  8
0
100
AcDbLine
 10
-3941.313024811099
 20
1540.518579738403
 30
0.0
 11
-3986.160748612779
 21
1497.587536476427
 31
0.0
  0
LINE
  5
175
330
1F
100
AcDbEntity
  8
0
100
AcDbLine
 10
-3925.194152479911
 20
1551.280599935287
 30
0.0
 11
-3941.313024811099
 21
1540.518579738403
 31
0.0
  0
LINE
  5
176
330
1F
100
AcDbEntity
  8
0
100
AcDbLine
 10
-3925.182400358581
 20
1556.997200822421
 30
0.0
 11
-3925.194152479911
 21
1551.280599935287
 31
0.0
  0
LINE
  5
177
330
1F
100
AcDbEntity
  8
0
100
AcDbLine
 10
-3930.770405080557
 20
1563.240410878529
 30
0.0
 11
-3925.182400358581
 21
1556.997200822421
 31
0.0
  0
LINE
  5
178
330
1F
100
AcDbEntity
  8
0
100
AcDbLine
 10
-3941.418114836971
 20
1570.733226506489
 30
0.0
 11
-3930.770405080557
 21
1563.240410878529
 31
0.0
  0
LINE
  5
179
330
1F
100
AcDbEntity
  8
0
100
AcDbLine
 10
-3962.230152058488
 20
1581.66317893305
 30
0.0
 11
-3941.418114836971
 21
1570.733226506489
 31
0.0
  0
LINE
  5
17A
330
1F
100
AcDbEntity
  8
0
100
AcDbLine
 10
-4017.401424659022
 20
1608.800761631154
 30
0.0
 11
-3962.230152058488
 21
1581.66317893305
 31
0.0
  0
LINE
  5
17B
330
1F
100
AcDbEntity
  8
0
100
AcDbLine
 10
-4100.774843372019
 20
1644.793995984001
 30
0.0
 11
-4017.401424659022
 21
1608.800761631154
 31
0.0
  0
LINE
  5
17C
330
1F
100
AcDbEntity
  8
0
100
AcDbLine
 10
-4160.385320182737
 20
1666.549257504774
 30
0.0
 11
-4100.774843372019
 21
1644.793995984001
 31
0.0
  0
LINE
  5
17D
330
1F
100
AcDbEntity
  8
0
100
AcDbLine
 10
-4200.709776998557
 20
1686.32906457482
 30
0.0
 11
-4160.385320182737
 21
1666.549257504774
 31
0.0
  0
LINE
  5
17E
330
1F
100
AcDbEntity
  8
0
100
AcDbLine
 10
-4617.519285367936
 20
1890.0301111049
 30
0.0
 11
-4613.798602920753
 21
1892.230139105249
 31
0.0
  0
LINE
  5
17F
330
1F
100
AcDbEntity
  8
0
100
AcDbLine
 10
-4617.519285367936
 20
1890.0301111049
 30
0.0
 11
-4631.304768938413
 21
1902.468558165783
 31
0.0
  0
LINE
  5
180
330
1F
100
AcDbEntity
  8
0
100
AcDbLine
 10
-4631.304768938413
 20
1902.468558165783
 30
0.0
 11
-4654.116820134717
 21
1917.792133316751
 31
0.0
  0
LINE
  5
181
330
1F
100
AcDbEntity
  8
0
100
AcDbLine
 10
-4654.116820134717
 20
1917.792133316751
 30
0.0
 11
-4642.89713897289
 21
1906.460020542115
 31
0.0
  0
LINE
  5
182
330
1F
100
AcDbEntity
  8
0
100
AcDbLine
 10
-4642.89713897289
 20
1906.460020542115
 30
0.0
 11
-4663.40630400684
 21
1916.845811254724
 31
0.0
  0
LINE
  5
183
330
1F
100
AcDbEntity
  8
0
100
AcDbLine
 10
-4663.40630400684
 20
1916.845811254724
 30
0.0
 11
-4701.49608298093
 21
1941.086347075452
 31
0.0
  0
LINE
  5
184
330
1F
100
AcDbEntity
  8
0
100
AcDbLine
 10
-4701.49608298093
 20
1941.086347075452
 30
0.0
 11
-4752.0719914049
 21
1966.284903712701
 31
0.0
  0
LINE
  5
185
330
1F
100
AcDbEntity
  8
0
100
AcDbLine
 10
-4752.0719914049
 20
1966.284903712701
 30
0.0
 11
-4719.152383433783
 21
1942.759022555603
 31
0.0
  0
LINE
  5
186
330
1F
100
AcDbEntity
  8
0
100
AcDbLine
 10
-4719.152383433783
 20
1942.759022555603
 30
0.0
 11
-4688.023468792533
 21
1920.632826102781
 31
0.0
  0
LINE
  5
187
330
1F
100
AcDbEntity
  8
0
100
AcDbLine
 10
-4688.023468792533
 20
1920.632826102781
 30
0.0
 11
-4718.314295960704
 21
1936.792176614457
 31
0.0
  0
LINE
  5
188
330
1F
100
AcDbEntity
  8
0
100
AcDbLine
 10
-4718.314295960704
 20
1936.792176614457
 30
0.0
 11
-4704.237894516897
 21
1924.188926616766
 31
0.0
  0
LINE
  5
189
330
1F
100
AcDbEntity
  8
0
100
AcDbLine
 10
-4704.237894516897
 20
1924.188926616766
 30
0.0
 11
-4729.842509638052
 21
1941.281190136615
 31
0.0
  0
LINE
  5
18A
330
1F
100
AcDbEntity
  8
0
100
AcDbLine
 10
-4729.842509638052
 20
1941.281190136615
 30
0.0
 11
-4748.458197504847
 21
1950.827519084925
 31
0.0
  0
LINE
  5
18B
330
1F
100
AcDbEntity
  8
0
100
AcDbLine
 10
-4748.458197504847
 20
1950.827519084925
 30
0.0
 11
-4746.475577699314
 21
1925.289095124262
 31
0.0
  0
LINE
  5
18C
330
1F
100
AcDbEntity
  8
0
100
AcDbLine
 10
-4746.475577699314
 20
1925.289095124262
 30
0.0
 11
-4796.116131325625
 21
1973.050588509548
 31
0.0
  0
LINE
  5
18D
330
1F
100
AcDbEntity
  8
0
100
AcDbLine
 10
-4796.116131325625
 20
1973.050588509548
 30
0.0
 11
-4774.878024673993
 21
1925.735707042934
 31
0.0
  0
LINE
  5
18E
330
1F
100
AcDbEntity
  8
0
100
AcDbLine
 10
-4774.878024673993
 20
1925.735707042934
 30
0.0
 11
-4783.212334953449
 21
1933.784922990963
 31
0.0
  0
LINE
  5
18F
330
1F
100
AcDbEntity
  8
0
100
AcDbLine
 10
-4783.212334953449
 20
1933.784922990963
 30
0.0
 11
-4783.863531513388
 21
1922.389414388935
 31
0.0
  0
LINE
  5
190
330
1F
100
AcDbEntity
  8
0
100
AcDbLine
 10
-4783.863531513388
 20
1922.389414388935
 30
0.0
 11
-4789.836582074975
 21
1930.651290619588
 31
0.0
  0
LINE
  5
191
330
1F
100
AcDbEntity
  8
0
100
AcDbLine
 10
-4789.836582074975
 20
1930.651290619588
 30
0.0
 11
-4809.426564566098
 21
1971.004155427609
 31
0.0
  0
LINE
  5
192
330
1F
100
AcDbEntity
  8
0
100
AcDbLine
 10
-4809.426564566098
 20
1971.004155427609
 30
0.0
 11
-4817.493448068234
 21
1959.894144064444
 31
0.0
  0
LINE
  5
193
330
1F
100
AcDbEntity
  8
0
100
AcDbLine
 10
-4817.493448068234
 20
1959.894144064444
 30
0.0
 11
-4814.146719945375
 21
1934.904241884562
 31
0.0
  0
LINE
  5
194
330
1F
100
AcDbEntity
  8
0
100
AcDbLine
 10
-4814.146719945375
 20
1934.904241884562
 30
0.0
 11
-4814.220231799457
 21
1925.289095213926
 31
0.0
  0
LINE
  5
195
330
1F
100
AcDbEntity
  8
0
100
AcDbLine
 10
-4814.220231799457
 20
1925.289095213926
 30
0.0
 11
-4823.079805233117
 21
1922.612353956598
 31
0.0
  0
LINE
  5
196
330
1F
100
AcDbEntity
  8
0
100
AcDbLine
 10
-4823.079805233117
 20
1922.612353956598
 30
0.0
 11
-4830.070204098383
 21
1926.852077680753
 31
0.0
  0
LINE
  5
197
330
1F
100
AcDbEntity
  8
0
100
AcDbLine
 10
-4830.070204098383
 20
1926.852077680753
 30
0.0
 11
-4836.476764010544
 21
1937.818231203977
 31
0.0
  0
LINE
  5
198
330
1F
100
AcDbEntity
  8
0
100
AcDbLine
 10
-4836.476764010544
 20
1937.818231203977
 30
0.0
 11
-4846.013105551447
 21
1958.310960629651
 31
0.0
  0
LINE
  5
199
330
1F
100
AcDbEntity
  8
0
100
AcDbLine
 10
-4846.013105551447
 20
1958.310960629651
 30
0.0
 11
-4852.554167045098
 21
1940.735910872719
 31
0.0
  0
LINE
  5
19A
330
1F
100
AcDbEntity
  8
0
100
AcDbLine
 10
-4852.554167045098
 20
1940.735910872719
 30
0.0
 11
-4854.773974380728
 21
1916.155280489887
 31
0.0
  0
LINE
  5
19B
330
1F
100
AcDbEntity
  8
0
100
AcDbLine
 10
-4854.773974380728
 20
1916.155280489887
 30
0.0
 11
-4863.308678904901
 21
1926.181927445604
 31
0.0
  0
LINE
  5
19C
330
1F
100
AcDbEntity
  8
0
100
AcDbLine
 10
-4863.308678904901
 20
1926.181927445604
 30
0.0
 11
-4858.73682067574
 21
1915.871999147117
 31
0.0
  0
LINE
  5
19D
330
1F
100
AcDbEntity
  8
0
100
AcDbLine
 10
-4858.73682067574
 20
1915.871999147117
 30
0.0
 11
-4847.269241670971
 21
1896.503731912968
 31
0.0
  0
LINE
  5
19E
330
1F
100
AcDbEntity
  8
0
100
AcDbLine
 10
-4847.269241670971
 20
1896.503731912968
 30
0.0
 11
-4840.675686355123
 21
1889.661121178784
 31
0.0
  0
LINE
  5
19F
330
1F
100
AcDbEntity
  8
0
100
AcDbLine
 10
-4840.675686355123
 20
1889.661121178784
 30
0.0
 11
-4847.310564210935
 21
1891.632833498124
 31
0.0
  0
LINE
  5
1A0
330
1F
100
AcDbEntity
  8
0
100
AcDbLine
 10
-4847.310564210935
 20
1891.632833498124
 30
0.0
 11
-4850.379802274337
 21
1888.478333077305
 31
0.0
  0
LINE
  5
1A1
330
1F
100
AcDbEntity
  8
0
100
AcDbLine
 10
-4850.379802274337
 20
1888.478333077305
 30
0.0
 11
-4838.386313946732
 21
1876.059646382482
 31
0.0
  0
LINE
  5
1A2
330
1F
100
AcDbEntity
  8
0
100
AcDbLine
 10
-4838.386313946732
 20
1876.059646382482
 30
0.0
 11
-4829.389732496099
 21
1867.419810881623
 31
0.0
  0
LINE
  5
1A3
330
1F
100
AcDbEntity
  8
0
100
AcDbLine
 10
-4829.389732496099
 20
1867.419810881623
 30
0.0
 11
-4819.193212076036
 21
1860.006580350165
 31
0.0
  0
LINE
  5
1A4
330
1F
100
AcDbEntity
  8
0
100
AcDbLine
 10
-4819.193212076036
 20
1860.006580350165
 30
0.0
 11
-4796.160500307313
 21
1849.379918419115
 31
0.0
  0
LINE
  5
1A5
330
1F
100
AcDbEntity
  8
0
100
AcDbLine
 10
-4796.160500307313
 20
1849.379918419115
 30
0.0
 11
-4790.897901365552
 21
1848.862157809518
 31
0.0
  0
LINE
  5
1A6
330
1F
100
AcDbEntity
  8
0
100
AcDbLine
 10
-4790.897901365552
 20
1848.862157809518
 30
0.0
 11
-4772.217057239185
 21
1836.745785307547
 31
0.0
  0
LINE
  5
1A7
330
1F
100
AcDbEntity
  8
0
100
AcDbLine
 10
-4772.217057239185
 20
1836.745785307547
 30
0.0
 11
-4738.042785232054
 21
1822.726221006432
 31
0.0
  0
LINE
  5
1A8
330
1F
100
AcDbEntity
  8
0
100
AcDbLine
 10
-4738.042785232054
 20
1822.726221006432
 30
0.0
 11
-4721.086670621725
 21
1817.525268700101
 31
0.0
  0
LINE
  5
1A9
330
1F
100
AcDbEntity
  8
0
100
AcDbLine
 10
-4721.086670621725
 20
1817.525268700101
 30
0.0
 11
-4703.480707986781
 21
1812.124988383784
 31
0.0
  0
LINE
  5
1AA
330
1F
100
AcDbEntity
  8
0
100
AcDbLine
 10
-4703.480707986781
 20
1812.124988383784
 30
0.0
 11
-4674.202748194335
 21
1806.007308077395
 31
0.0
  0
LINE
  5
1AB
330
1F
100
AcDbEntity
  8
0
100
AcDbLine
 10
-4674.202748194335
 20
1806.007308077395
 30
0.0
 11
-4649.959567884947
 21
1805.174306584579
 31
0.0
  0
LINE
  5
1AC
330
1F
100
AcDbEntity
  8
0
100
AcDbLine
 10
-4649.959567884947
 20
1805.174306584579
 30
0.0
 11
-4629.106845886275
 21
1807.952349015541
 31
0.0
  0
LINE
  5
1AD
330
1F
100
AcDbEntity
  8
0
100
AcDbLine
 10
-4629.106845886275
 20
1807.952349015541
 30
0.0
 11
-4613.779706271551
 21
1817.699287594208
 31
0.0
  0
LINE
  5
1AE
330
1F
100
AcDbEntity
  8
0
100
AcDbLine
 10
-4613.779706271551
 20
1817.699287594208
 30
0.0
 11
-4606.144920754003
 21
1827.203964872089
 31
0.0
  0
LINE
  5
1AF
330
1F
100
AcDbEntity
  8
0
100
AcDbLine
 10
-4606.144920754003
 20
1827.203964872089
 30
0.0
 11
-4596.167231883267
 21
1837.308383495665
 31
0.0
  0
LINE
  5
1B0
330
1F
100
AcDbEntity
  8
0
100
AcDbLine
 10
-4596.167231883267
 20
1837.308383495665
 30
0.0
 11
-4594.734013024527
 21
1845.4772067481
 31
0.0
  0
LINE
  5
1B1
330
1F
100
AcDbEntity
  8
0
100
AcDbLine
 10
-4594.734013024527
 20
1845.4772067481
 30
0.0
 11
-4597.581425863778
 21
1853.043682826026
 31
0.0
  0
LINE
  5
1B2
330
1F
100
AcDbEntity
  8
0
100
AcDbLine
 10
-4597.581425863778
 20
1853.043682826026
 30
0.0
 11
-4591.29871400168
 21
1850.646877832286
 31
0.0
  0
LINE
  5
1B3
330
1F
100
AcDbEntity
  8
0
100
AcDbLine
 10
-4591.29871400168
 20
1850.646877832286
 30
0.0
 11
-4584.652892759595
 21
1849.328815125679
 31
0.0
  0
LINE
  5
1B4
330
1F
100
AcDbEntity
  8
0
100
AcDbLine
 10
-4584.652892759595
 20
1849.328815125679
 30
0.0
 11
-4579.237040437738
 21
1849.53166896674
 31
0.0
  0
LINE
  5
1B5
330
1F
100
AcDbEntity
  8
0
100
AcDbLine
 10
-4579.237040437738
 20
1849.53166896674
 30
0.0
 11
-4576.794325342515
 21
1851.864175112685
 31
0.0
  0
LINE
  5
1B6
330
1F
100
AcDbEntity
  8
0
100
AcDbLine
 10
-4574.074389126868
 20
1859.124251056084
 30
0.0
 11
-4576.794325342515
 21
1851.864175112685
 31
0.0
  0
LINE
  5
1B7
330
1F
100
AcDbEntity
  8
0
100
AcDbLine
 10
-4574.074389126868
 20
1859.124251056084
 30
0.0
 11
-4597.311773438461
 21
1888.312018866148
 31
0.0
  0
LINE
  5
1B8
330
1F
100
AcDbEntity
  8
0
100
AcDbLine
 10
-4601.912880945054
 20
1890.927771934124
 30
0.0
 11
-4597.311773438461
 21
1888.312018866148
 31
0.0
  0
LINE
  5
1B9
330
1F
100
AcDbEntity
  8
0
100
AcDbLine
 10
-4610.676146613422
 20
1893.094690652696
 30
0.0
 11
-4601.912880945054
 21
1890.927771934124
 31
0.0
  0
LINE
  5
1BA
330
1F
100
AcDbEntity
  8
0
100
AcDbLine
 10
-4610.676146613422
 20
1893.094690652696
 30
0.0
 11
-4613.798602920753
 21
1892.230139105249
 31
0.0
  0
LINE
  5
1BB
330
1F
100
AcDbEntity
  8
0
100
AcDbLine
 10
-3819.456570184575
 20
832.2821276152266
 30
0.0
 11
-3812.05288949313
 21
827.3374604794565
 31
0.0
  0
LINE
  5
1BC
330
1F
100
AcDbEntity
  8
0
100
AcDbLine
 10
-3877.14705100033
 20
847.8480884394651
 30
0.0
 11
-3878.968452003979
 21
847.8480884420273
 31
0.0
  0
LINE
  5
1BD
330
1F
100
AcDbEntity
  8
0
100
AcDbLine
 10
-3878.968452003979
 20
847.8480884420273
 30
0.0
 11
-3922.5163662443
 21
833.7746196185047
 31
0.0
  0
LINE
  5
1BE
330
1F
100
AcDbEntity
  8
0
100
AcDbLine
 10
-4350.069536013597
 20
1269.095476158387
 30
0.0
 11
-4367.15192662655
 21
1273.033412894456
 31
0.0
  0
LINE
  5
1BF
330
1F
100
AcDbEntity
  8
0
100
AcDbLine
 10
-4343.289428665622
 20
1266.443868463709
 30
0.0
 11
-4350.069536013597
 21
1269.095476158387
 31
0.0
  0
LINE
  5
1C0
330
1F
100
AcDbEntity
  8
0
100
AcDbLine
 10
-4338.735507480862
 20
1262.882909831558
 30
0.0
 11
-4343.289428665622
 21
1266.443868463709
 31
0.0
  0
LINE
  5
1C1
330
1F
100
AcDbEntity
  8
0
100
AcDbLine
 10
-4338.499114236582
 20
1262.157933399615
 30
0.0
 11
-4338.735507480862
 21
1262.882909831558
 31
0.0
  0
LINE
  5
1C2
330
1F
100
AcDbEntity
  8
0
100
AcDbLine
 10
-3742.717839181588
 20
841.2895621148616
 30
0.0
 11
-3749.400670342561
 21
848.9845858112737
 31
0.0
  0
LINE
  5
1C3
330
1F
100
AcDbEntity
  8
0
100
AcDbLine
 10
-4882.050692651073
 20
2000.146795997431
 30
0.0
 11
-4897.040363584008
 21
1991.368446853311
 31
0.0
  0
LINE
  5
1C4
330
1F
100
AcDbEntity
  8
0
100
AcDbLine
 10
-4642.787805833323
 20
1515.295591035471
 30
0.0
 11
-4666.349503569991
 21
1548.105076354508
 31
0.0
  0
LINE
  5
1C5
330
1F
100
AcDbEntity
  8
0
100
AcDbLine
 10
-4621.578381480974
 20
1480.433662910533
 30
0.0
 11
-4642.787805833323
 21
1515.295591035471
 31
0.0
  0
LINE
  5
1C6
330
1F
100
AcDbEntity
  8
0
100
AcDbLine
 10
-4591.638960853367
 20
1450.541438900884
 30
0.0
 11
-4621.578381480974
 21
1480.433662910533
 31
0.0
  0
LINE
  5
1C7
330
1F
100
AcDbEntity
  8
0
100
AcDbLine
 10
-4515.460216162018
 20
1377.047291583327
 30
0.0
 11
-4591.638960853367
 21
1450.541438900884
 31
0.0
  0
LINE
  5
1C8
330
1F
100
AcDbEntity
  8
0
100
AcDbLine
 10
-4741.212422476302
 20
1988.536420444645
 30
0.0
 11
-4780.31911559005
 21
2000.598072808783
 31
0.0
  0
LINE
  5
1C9
330
1F
100
AcDbEntity
  8
0
100
AcDbLine
 10
-4698.404055023735
 20
1796.926406456452
 30
0.0
 11
-4682.382809319629
 21
1778.116836908411
 31
0.0
  0
LINE
  5
1CA
330
1F
100
AcDbEntity
  8
0
100
AcDbLine
 10
-4611.795015952323
 20
1918.301338284441
 30
0.0
 11
-4671.170786831673
 21
1956.6782211516
 31
0.0
  0
LINE
  5
1CB
330
1F
100
AcDbEntity
  8
0
100
AcDbLine
 10
-4897.040363584008
 20
1991.368446853311
 30
0.0
 11
-4909.486909763656
 21
1974.873983058364
 31
0.0
  0
LINE
  5
1CC
330
1F
100
AcDbEntity
  8
0
100
AcDbLine
 10
-4874.417494209
 20
1894.026890796217
 30
0.0
 11
-4841.80187670874
 21
1860.384386594997
 31
0.0
  0
LINE
  5
1CD
330
1F
100
AcDbEntity
  8
0
100
AcDbLine
 10
-4841.80187670874
 20
1860.384386594997
 30
0.0
 11
-4787.327599669649
 21
1798.65993173318
 31
0.0
  0
LINE
  5
1CE
330
1F
100
AcDbEntity
  8
0
100
AcDbLine
 10
-4787.327599669649
 20
1798.65993173318
 30
0.0
 11
-4746.267067167982
 21
1740.369261548522
 31
0.0
  0
LINE
  5
1CF
330
1F
100
AcDbEntity
  8
0
100
AcDbLine
 10
-4367.954276478895
 20
1751.709106689813
 30
0.0
 11
-4504.793862161383
 21
1840.27304568924
 31
0.0
  0
LINE
  5
1D0
330
1F
100
AcDbEntity
  8
0
100
AcDbLine
 10
-4780.31911559005
 20
2000.598072808783
 30
0.0
 11
-4813.366154576718
 21
2006.452827554785
 31
0.0
  0
LINE
  5
1D1
330
1F
100
AcDbEntity
  8
0
100
AcDbLine
 10
-4502.755103261556
 20
1362.946506703997
 30
0.0
 11
-4515.460216162018
 21
1377.047291583327
 31
0.0
  0
LINE
  5
1D2
330
1F
100
AcDbEntity
  8
0
100
AcDbLine
 10
-4497.756069318865
 20
1352.33401758136
 30
0.0
 11
-4502.755103261556
 21
1362.946506703997
 31
0.0
  0
LINE
  5
1D3
330
1F
100
AcDbEntity
  8
0
100
AcDbLine
 10
-4478.590887524489
 20
1339.51496323006
 30
0.0
 11
-4497.756069318865
 21
1352.33401758136
 31
0.0
  0
LINE
  5
1D4
330
1F
100
AcDbEntity
  8
0
100
AcDbLine
 10
-4469.835531924566
 20
1331.263211914529
 30
0.0
 11
-4478.590887524489
 21
1339.51496323006
 31
0.0
  0
LINE
  5
1D5
330
1F
100
AcDbEntity
  8
0
100
AcDbLine
 10
-4456.503312071347
 20
1310.466351720337
 30
0.0
 11
-4469.835531924566
 21
1331.263211914529
 31
0.0
  0
LINE
  5
1D6
330
1F
100
AcDbEntity
  8
0
100
AcDbLine
 10
-4452.722394551415
 20
1301.788596023243
 30
0.0
 11
-4456.503312071347
 21
1310.466351720337
 31
0.0
  0
LINE
  5
1D7
330
1F
100
AcDbEntity
  8
0
100
AcDbLine
 10
-4449.617892136926
 20
1298.695998234545
 30
0.0
 11
-4452.722394551415
 21
1301.788596023243
 31
0.0
  0
LINE
  5
1D8
330
1F
100
AcDbEntity
  8
0
100
AcDbLine
 10
-4401.217821261157
 20
1290.701719930978
 30
0.0
 11
-4390.345193449534
 21
1281.903531494425
 31
0.0
  0
LINE
  5
1D9
330
1F
100
AcDbEntity
  8
0
100
AcDbLine
 10
-4408.034151101101
 20
1299.310623506012
 30
0.0
 11
-4401.217821261157
 21
1290.701719930978
 31
0.0
  0
LINE
  5
1DA
330
1F
100
AcDbEntity
  8
0
100
AcDbLine
 10
-4410.642929878806
 20
1305.626841368369
 30
0.0
 11
-4408.034151101101
 21
1299.310623506012
 31
0.0
  0
LINE
  5
1DB
330
1F
100
AcDbEntity
  8
0
100
AcDbLine
 10
-4403.59440466347
 20
1307.056507626209
 30
0.0
 11
-4410.642929878806
 21
1305.626841368369
 31
0.0
  0
LINE
  5
1DC
330
1F
100
AcDbEntity
  8
0
100
AcDbLine
 10
-4373.113252514458
 20
1286.265323090888
 30
0.0
 11
-4403.59440466347
 21
1307.056507626209
 31
0.0
  0
LINE
  5
1DD
330
1F
100
AcDbEntity
  8
0
100
AcDbLine
 10
-4405.310415756757
 20
1329.4444285655
 30
0.0
 11
-4416.247097460341
 21
1335.992342893059
 31
0.0
  0
LINE
  5
1DE
330
1F
100
AcDbEntity
  8
0
100
AcDbLine
 10
-4416.247097460341
 20
1335.992342893059
 30
0.0
 11
-4438.108931545906
 21
1346.411964033575
 31
0.0
  0
LINE
  5
1DF
330
1F
100
AcDbEntity
  8
0
100
AcDbLine
 10
-4438.108931545906
 20
1346.411964033575
 30
0.0
 11
-4450.027678845381
 21
1355.27140193872
 31
0.0
  0
LINE
  5
1E0
330
1F
100
AcDbEntity
  8
0
100
AcDbLine
 10
-4450.027678845381
 20
1355.27140193872
 30
0.0
 11
-4456.533277473088
 21
1362.893322485042
 31
0.0
  0
LINE
  5
1E1
330
1F
100
AcDbEntity
  8
0
100
AcDbLine
 10
-4527.993014805357
 20
1494.991712606536
 30
0.0
 11
-4519.179596633206
 21
1482.680184600054
 31
0.0
  0
LINE
  5
1E2
330
1F
100
AcDbEntity
  8
0
100
AcDbLine
 10
-4527.993014805357
 20
1494.991712606536
 30
0.0
 11
-4542.365323410761
 21
1517.99762834832
 31
0.0
  0
LINE
  5
1E3
330
1F
100
AcDbEntity
  8
0
100
AcDbLine
 10
-4666.349503569991
 20
1548.105076354508
 30
0.0
 11
-4779.89412698649
 21
1683.57773075281
 31
0.0
  0
LINE
  5
1E4
330
1F
100
AcDbEntity
  8
0
100
AcDbLine
 10
-4827.988956511728
 20
2007.331800602549
 30
0.0
 11
-4836.453944159498
 21
2004.694916501305
 31
0.0
  0
LINE
  5
1E5
330
1F
100
AcDbEntity
  8
0
100
AcDbLine
 10
-3659.661114253001
 20
824.4994598788472
 30
0.0
 11
-3655.846912757468
 21
821.3752377093894
 31
0.0
  0
LINE
  5
1E6
330
1F
100
AcDbEntity
  8
0
100
AcDbLine
 10
-3655.986165334169
 20
829.4694778377707
 30
0.0
 11
-3659.661114253001
 21
824.4994598788472
 31
0.0
  0
LINE
  5
1E7
330
1F
100
AcDbEntity
  8
0
100
AcDbLine
 10
-4909.486909763656
 20
1974.873983058364
 30
0.0
 11
-4912.606282021756
 21
1951.721989205283
 31
0.0
  0
LINE
  5
1E8
330
1F
100
AcDbEntity
  8
0
100
AcDbLine
 10
-4905.99638550565
 20
1933.668980785641
 30
0.0
 11
-4874.417494209
 21
1894.026890796217
 31
0.0
  0
LINE
  5
1E9
330
1F
100
AcDbEntity
  8
0
100
AcDbLine
 10
-4594.734013024527
 20
1845.4772067481
 30
0.0
 11
-4583.802514952605
 21
1818.515403456226
 31
0.0
  0
LINE
  5
1EA
330
1F
100
AcDbEntity
  8
0
100
AcDbLine
 10
-4583.802514952605
 20
1818.515403456226
 30
0.0
 11
-4573.783498453073
 21
1804.295435015046
 31
0.0
  0
LINE
  5
1EB
330
1F
100
AcDbEntity
  8
0
100
AcDbLine
 10
-4573.783498453073
 20
1804.295435015046
 30
0.0
 11
-4560.765787603213
 21
1793.626350289669
 31
0.0
  0
LINE
  5
1EC
330
1F
100
AcDbEntity
  8
0
100
AcDbLine
 10
-4560.765787603213
 20
1793.626350289669
 30
0.0
 11
-4541.297807661807
 21
1782.311544486477
 31
0.0
  0
LINE
  5
1ED
330
1F
100
AcDbEntity
  8
0
100
AcDbLine
 10
-4541.297807661807
 20
1782.311544486477
 30
0.0
 11
-4506.763293512163
 21
1771.96632387704
 31
0.0
  0
LINE
  5
1EE
330
1F
100
AcDbEntity
  8
0
100
AcDbLine
 10
-4506.763293512163
 20
1771.96632387704
 30
0.0
 11
-4494.886581203315
 21
1769.99496287229
 31
0.0
  0
LINE
  5
1EF
330
1F
100
AcDbEntity
  8
0
100
AcDbLine
 10
-4434.516912394803
 20
1290.982515414644
 30
0.0
 11
-4449.617892136926
 21
1298.695998234545
 31
0.0
  0
LINE
  5
1F0
330
1F
100
AcDbEntity
  8
0
100
AcDbLine
 10
-4401.982395343793
 20
1270.443049328347
 30
0.0
 11
-4434.516912394803
 21
1290.982515414644
 31
0.0
  0
LINE
  5
1F1
330
1F
100
AcDbEntity
  8
0
100
AcDbLine
 10
-4395.721934240015
 20
1268.612721062024
 30
0.0
 11
-4401.982395343793
 21
1270.443049328347
 31
0.0
  0
LINE
  5
1F2
330
1F
100
AcDbEntity
  8
0
100
AcDbLine
 10
-4342.094274653912
 20
1260.147552347544
 30
0.0
 11
-4368.156904005894
 21
1263.942875531737
 31
0.0
  0
LINE
  5
1F3
330
1F
100
AcDbEntity
  8
0
100
AcDbLine
 10
-4338.051636931313
 20
1260.785599341866
 30
0.0
 11
-4342.094274653912
 21
1260.147552347544
 31
0.0
  0
LINE
  5
1F4
330
1F
100
AcDbEntity
  8
0
100
AcDbLine
 10
-4912.606282021756
 20
1951.721989205283
 30
0.0
 11
-4905.99638550565
 21
1933.668980785641
 31
0.0
  0
LINE
  5
1F5
330
1F
100
AcDbEntity
  8
0
100
AcDbLine
 10
-4858.967517575617
 20
2005.971708350085
 30
0.0
 11
-4882.050692651073
 21
2000.146795997431
 31
0.0
  0
LINE
  5
1F6
330
1F
100
AcDbEntity
  8
0
100
AcDbLine
 10
-4813.366154576718
 20
2006.452827554785
 30
0.0
 11
-4827.988956511728
 21
2007.331800602549
 31
0.0
  0
LINE
  5
1F7
330
1F
100
AcDbEntity
  8
0
100
AcDbLine
 10
-4836.453944159498
 20
2004.694916501305
 30
0.0
 11
-4858.967517575617
 21
2005.971708350085
 31
0.0
  0
LINE
  5
1F8
330
1F
100
AcDbEntity
  8
0
100
AcDbLine
 10
-3902.071933945964
 20
1258.514386153387
 30
0.0
 11
488.5130449003389
 21
1413.836828387537
 31
0.0
  0
LINE
  5
1F9
330
1F
100
AcDbEntity
  8
0
100
AcDbLine
 10
2740.928118828624
 20
690.1643507066145
 30
0.0
 11
4118.231638832324
 21
741.1123161553038
 31
0.0
  0
LINE
  5
1FA
330
1F
100
AcDbEntity
  8
0
100
AcDbLine
 10
2836.768760742105
 20
619.9268095163741
 30
0.0
 11
2964.702296085487
 21
-21.37531217857669
 31
0.0
  0
LINE
  5
1FB
330
1F
100
AcDbEntity
  8
0
100
AcDbLine
 10
4118.231638832324
 20
741.1123161553038
 30
0.0
 11
3903.472542427974
 21
1534.645297382499
 31
0.0
  0
LINE
  5
1FC
330
1F
100
AcDbEntity
  8
0
100
AcDbLine
 10
3903.472542427974
 20
1534.645297382499
 30
0.0
 11
578.0984514988537
 21
1417.006024339435
 31
0.0
  0
LINE
  5
1FD
330
1F
100
AcDbEntity
  8
0
100
AcDbLine
 10
633.6954575484148
 20
-506.0734504293348
 30
0.0
 11
732.9790626594536
 21
-502.1786028667983
 31
0.0
  0
LINE
  5
1FE
330
1F
100
AcDbEntity
  8
0
100
AcDbLine
 10
732.9790626594536
 20
-502.1786028667983
 30
0.0
 11
677.7456762675151
 21
182.2393192837774
 31
0.0
  0
LINE
  5
1FF
330
1F
100
AcDbEntity
  8
0
100
AcDbLine
 10
677.7456762675151
 20
182.2393192837774
 30
0.0
 11
1753.257384481351
 21
222.9529150708254
 31
0.0
  0
LINE
  5
200
330
1F
100
AcDbEntity
  8
0
100
AcDbLine
 10
1753.257384481351
 20
222.9529150708254
 30
0.0
 11
1847.206549421747
 21
-458.4680002343328
 31
0.0
  0
LINE
  5
201
330
1F
100
AcDbEntity
  8
0
100
AcDbLine
 10
1847.206549421747
 20
-458.4680002343328
 30
0.0
 11
1946.008464326847
 21
-454.5920491444052
 31
0.0
  0
LINE
  5
202
330
1F
100
AcDbEntity
  8
0
100
AcDbLine
 10
1946.008464326847
 20
-454.5920491444052
 30
0.0
 11
1899.706691929381
 21
-130.6999758914992
 31
0.0
  0
LINE
  5
203
330
1F
100
AcDbEntity
  8
0
100
AcDbLine
 10
1839.268886180315
 20
292.0770625095799
 30
0.0
 11
672.4338141386972
 21
248.0606255342732
 31
0.0
  0
LINE
  5
204
330
1F
100
AcDbEntity
  8
0
100
AcDbLine
 10
2820.968624575284
 20
-95.16146361560021
 30
0.0
 11
3050.752116046569
 21
-86.29735760722818
 31
0.0
  0
LINE
  5
205
330
1F
100
AcDbEntity
  8
0
100
AcDbLine
 10
-5042.885269961731
 20
-2142.226390266342
 30
0.0
 11
5048.186091961524
 21
-1718.129123173645
 31
0.0
  0
LINE
  5
206
330
1F
100
AcDbEntity
  8
0
100
AcDbLine
 10
5048.186091961524
 20
-1718.129123173645
 30
0.0
 11
4926.106593091342
 21
-1287.272484293615
 31
0.0
  0
LINE
  5
207
330
1F
100
AcDbEntity
  8
0
100
AcDbLine
 10
4926.106593091342
 20
-1287.272484293615
 30
0.0
 11
4670.03840433182
 21
-1297.808851885522
 31
0.0
  0
LINE
  5
208
330
1F
100
AcDbEntity
  8
0
100
AcDbLine
 10
4374.955432443455
 20
-207.4798538947744
 30
0.0
 11
4328.815955119798
 21
-36.99488908577679
 31
0.0
  0
LINE
  5
209
330
1F
100
AcDbEntity
  8
0
100
AcDbLine
 10
4617.481973885889
 20
-198.0399158679083
 30
0.0
 11
4374.955432443455
 21
-207.4798538947744
 31
0.0
  0
LINE
  5
20A
330
1F
100
AcDbEntity
  8
0
100
AcDbLine
 10
4071.169515298776
 20
1730.067193544741
 30
0.0
 11
4617.481973885889
 21
-198.0399158679083
 31
0.0
  0
LINE
  5
20B
330
1F
100
AcDbEntity
  8
0
100
AcDbLine
 10
-4366.114165938298
 20
1283.910389953377
 30
0.0
 11
-4367.300380659653
 21
1277.905207607512
 31
0.0
  0
LINE
  5
20C
330
1F
100
AcDbEntity
  8
0
100
AcDbLine
 10
-4369.996814577037
 20
1264.254578369855
 30
0.0
 11
-5042.885269961731
 21
-2142.226390266342
 31
0.0
  0
LINE
  5
20D
330
1F
100
AcDbEntity
  8
0
100
AcDbLine
 10
2820.968624575284
 20
-95.16146361560021
 30
0.0
 11
2808.010134448916
 21
-27.39835028183291
 31
0.0
  0
LINE
  5
20E
330
1F
100
AcDbEntity
  8
0
100
AcDbLine
 10
2880.341862756383
 20
-24.61801493435912
 30
0.0
 11
2740.928118828624
 21
690.1643507066145
 31
0.0
  0
LINE
  5
20F
330
1F
100
AcDbEntity
  8
0
100
AcDbLine
 10
2808.010134448916
 20
-27.39835028183291
 30
0.0
 11
2880.341862756383
 21
-24.61801493435912
 31
0.0
  0
LINE
  5
210
330
1F
100
AcDbEntity
  8
0
100
AcDbLine
 10
1889.983808580341
 20
-62.6860601630929
 30
0.0
 11
1839.268886180315
 21
292.0770625095799
 31
0.0
  0
LINE
  5
211
330
1F
100
AcDbEntity
  8
0
100
AcDbLine
 10
1889.983808580341
 20
-62.6860601630929
 30
0.0
 11
1962.582754119685
 21
-59.89545334094777
 31
0.0
  0
LINE
  5
212
330
1F
100
AcDbEntity
  8
0
100
AcDbLine
 10
1962.582754119685
 20
-59.89545334094777
 30
0.0
 11
1972.561953129884
 21
-127.8895182976403
 31
0.0
  0
LINE
  5
213
330
1F
100
AcDbEntity
  8
0
100
AcDbLine
 10
1972.561953129884
 20
-127.8895182976403
 30
0.0
 11
1899.706691929381
 21
-130.6999758914992
 31
0.0
  0
LINE
  5
214
330
1F
100
AcDbEntity
  8
0
100
AcDbLine
 10
-4591.149758139614
 20
-1878.530706249693
 30
0.0
 11
4722.491159135487
 21
-1491.621321717136
 31
0.0
  0
LINE
  5
215
330
1F
100
AcDbEntity
  8
0
100
AcDbLine
 10
672.4338141386972
 20
248.0606255342732
 30
0.0
 11
578.0984514988537
 21
1417.006024339435
 31
0.0
  0
LINE
  5
216
330
1F
100
AcDbEntity
  8
0
100
AcDbLine
 10
2836.768760742105
 20
619.9268095163741
 30
0.0
 11
4137.950320738331
 21
668.2519591286363
 31
0.0
  0
LINE
  5
217
330
1F
100
AcDbEntity
  8
0
100
AcDbLine
 10
3050.752116046569
 20
-86.29735760722818
 30
0.0
 11
3036.988463974044
 21
-18.59672811295508
 31
0.0
  0
LINE
  5
218
330
1F
100
AcDbEntity
  8
0
100
AcDbLine
 10
3036.988463974044
 20
-18.59672811295508
 30
0.0
 11
2964.702296085487
 21
-21.37531217857669
 31
0.0
  0
LINE
  5
219
330
1F
100
AcDbEntity
  8
0
100
AcDbLine
 10
4328.815955119798
 20
-36.99488908577679
 30
0.0
 11
4256.648188339298
 21
-39.77882596058819
 31
0.0
  0
LINE
  5
21A
330
1F
100
AcDbEntity
  8
0
100
AcDbLine
 10
4256.648188339298
 20
-39.77882596058819
 30
0.0
 11
4238.671322597572
 21
27.59436128120775
 31
0.0
  0
LINE
  5
21B
330
1F
100
AcDbEntity
  8
0
100
AcDbLine
 10
4310.587598999076
 20
30.35872721046981
 30
0.0
 11
4137.950320738331
 21
668.2519591286363
 31
0.0
  0
LINE
  5
21C
330
1F
100
AcDbEntity
  8
0
100
AcDbLine
 10
4238.671322597572
 20
27.59436128120775
 30
0.0
 11
4310.587598999076
 21
30.35872721046981
 31
0.0
  0
LINE
  5
21D
330
1F
100
AcDbEntity
  8
0
100
AcDbLine
 10
-4062.789434825648
 20
1063.450013989008
 30
0.0
 11
-4065.664387608675
 21
1065.780939948493
 31
0.0
  0
LINE
  5
21E
330
1F
100
AcDbEntity
  8
0
100
AcDbLine
 10
-4065.664387608675
 20
1065.780939948493
 30
0.0
 11
-4091.145207367639
 21
1086.440028541449
 31
0.0
  0
LINE
  5
21F
330
1F
100
AcDbEntity
  8
0
100
AcDbLine
 10
-4379.25957185361
 20
1278.215218571593
 30
0.0
 11
-4367.300380659653
 21
1277.905207607512
 31
0.0
  0
LINE
  5
220
330
1F
100
AcDbEntity
  8
0
100
AcDbLine
 10
-4367.300380659653
 20
1277.905207607512
 30
0.0
 11
-4362.758620344767
 21
1277.787474269947
 31
0.0
  0
LINE
  5
221
330
1F
100
AcDbEntity
  8
0
100
AcDbLine
 10
-3936.684745640473
 20
1295.63036963755
 30
0.0
 11
-3902.071933945964
 21
1258.514386153387
 31
0.0
  0
LINE
  5
222
330
1F
100
AcDbEntity
  8
0
100
AcDbLine
 10
-3902.071933945964
 20
1258.514386153387
 30
0.0
 11
-3863.437375407538
 21
1217.085806201948
 31
0.0
  0
LINE
  5
223
330
1F
100
AcDbEntity
  8
0
100
AcDbLine
 10
-4072.534116962624
 20
1451.931120926542
 30
0.0
 11
-4080.634450574617
 21
1444.800244554983
 31
0.0
  0
LINE
  5
224
330
1F
100
AcDbEntity
  8
0
100
AcDbLine
 10
-4080.634450574617
 20
1444.800244554983
 30
0.0
 11
-4082.244422613631
 21
1443.382955820742
 31
0.0
  0
LINE
  5
225
330
1F
100
AcDbEntity
  8
0
100
AcDbLine
 10
-4360.94522515579
 20
1282.171233021668
 30
0.0
 11
-4366.114165938298
 21
1283.910389953377
 31
0.0
  0
LINE
  5
226
330
1F
100
AcDbEntity
  8
0
100
AcDbLine
 10
-4366.114165938298
 20
1283.910389953377
 30
0.0
 11
-4373.113252514458
 21
1286.265323090888
 31
0.0
  0
LINE
  5
227
330
1F
100
AcDbEntity
  8
0
100
AcDbLine
 10
-4368.156904005894
 20
1263.942875531737
 30
0.0
 11
-4369.996814577037
 21
1264.254578369855
 31
0.0
  0
LINE
  5
228
330
1F
100
AcDbEntity
  8
0
100
AcDbLine
 10
-4369.996814577037
 20
1264.254578369855
 30
0.0
 11
-4395.721934240015
 21
1268.612721062024
 31
0.0
  0
LINE
  5
229
330
1F
100
AcDbEntity
  8
0
100
AcDbLine
 10
-3797.888224776471
 20
993.1829927402447
 30
0.0
 11
-3686.815271297053
 21
913.5183506708295
 31
0.0
  0
LINE
  5
22A
330
1F
100
AcDbEntity
  8
0
100
AcDbLine
 10
-4260.718826234322
 20
1588.286966992951
 30
0.0
 11
-4267.943078650257
 21
1644.262800039391
 31
0.0
  0
LINE
  5
22B
330
1F
100
AcDbEntity
  8
0
100
AcDbLine
 10
-4253.246718857721
 20
1710.035955627266
 30
0.0
 11
-4200.709776998557
 21
1686.32906457482
 31
0.0
  0
LINE
  5
22C
330
1F
100
AcDbEntity
  8
0
100
AcDbLine
 10
-4251.594997088874
 20
1642.359303504536
 30
0.0
 11
-4129.044785990085
 21
1594.018244989688
 31
0.0
  0
LINE
  5
22D
330
1F
100
AcDbEntity
  8
0
100
AcDbLine
 10
-4456.533277473088
 20
1362.893322485042
 30
0.0
 11
-4519.179596633206
 21
1482.680184600054
 31
0.0
  0
LINE
  5
22E
330
1F
100
AcDbEntity
  8
0
100
AcDbLine
 10
488.5130449003389
 20
1413.836828387537
 30
0.0
 11
633.6954575484148
 21
-506.0734504293348
 31
0.0
  0
LINE
  5
22F
330
1F
100
AcDbEntity
  8
0
100
AcDbLine
 10
-4065.664387608675
 20
1065.780939948493
 30
0.0
 11
-4591.149758139614
 21
-1878.530706249693
 31
0.0
  0
LINE
  5
230
330
1F
100
AcDbEntity
  8
0
100
AcDbLine
 10
4670.03840433182
 20
-1297.808851885522
 30
0.0
 11
4722.491159135487
 21
-1491.621321717136
 31
0.0
  0
LINE
  5
231
330
1F
100
AcDbEntity
  8
0
100
AcDbLine
 10
4071.169515298776
 20
1730.067193544741
 30
0.0
 11
-4080.634450574617
 21
1444.800244554983
 31
0.0
  0
LINE
  5
232
330
1F
100
AcDbEntity
  8
0
100
AcDbLine
 10
-4403.59440466347
 20
1307.056507626209
 30
0.0
 11
-4420.619581155141
 21
1312.647897072709
 31
0.0
  0
LINE
  5
233
330
1F
100
AcDbEntity
  8
0
100
AcDbLine
 10
-4051.935022438451
 20
1566.425314519073
 30
0.0
 11
-4046.590378091816
 21
1575.136990314528
 31
0.0
  0
LINE
  5
234
330
1F
100
AcDbEntity
  8
0
100
AcDbLine
 10
-4696.791801545717
 20
1643.821715268926
 30
0.0
 11
-4714.145463337195
 21
1659.561550124967
 31
0.0
  0
LINE
  5
235
330
1F
100
AcDbEntity
  8
0
100
AcDbLine
 10
-4400.780891480161
 20
1273.857971222263
 30
0.0
 11
-4368.156904005894
 21
1263.942875531737
 31
0.0
  0
LINE
  5
236
330
1F
100
AcDbEntity
  8
0
100
AcDbLine
 10
-4432.318605044859
 20
1293.567259678764
 30
0.0
 11
-4400.780891480161
 21
1273.857971222263
 31
0.0
  0
LINE
  5
237
330
1F
100
AcDbEntity
  8
0
100
AcDbLine
 10
-4599.631012384327
 20
1858.491412535585
 30
0.0
 11
-4597.581425863778
 21
1853.043682826026
 31
0.0
  0
LINE
  5
238
330
1F
100
AcDbEntity
  8
0
 62
   250
100
AcDbLine
 10
-4065.664387608675
 20
1065.780939948492
 30
0.0
 11
-4079.085082469395
 21
990.5843495304441
 31
0.0
  0
LINE
  5
239
330
1F
100
AcDbEntity
  8
0
 62
   250
100
AcDbLine
 10
490.0273777164126
 20
1393.811102915006
 30
0.0
 11
508.0679163257267
 21
1155.24077693913
 31
0.0
  0
LINE
  5
23A
330
1F
100
AcDbEntity
  8
0
 62
   250
100
AcDbLine
 10
-4075.379873912882
 20
1011.344753751615
 30
0.0
 11
-4015.861228274746
 21
1013.478748435235
 31
0.0
  0
LINE
  5
23B
330
1F
100
AcDbEntity
  8
0
 62
   250
100
AcDbLine
 10
-3895.037033201186
 20
1017.810805846407
 30
0.0
 11
-3831.666523015547
 21
1020.082906133377
 31
0.0
  0
LINE
  5
23C
330
1F
100
AcDbEntity
  8
0
 62
   250
100
AcDbLine
 10
-3708.043105274597
 20
1024.515327493131
 30
0.0
 11
-2021.114261617352
 21
1084.998847328185
 31
0.0
  0
LINE
  5
23D
330
1F
100
AcDbEntity
  8
0
 62
   250
100
AcDbLine
 10
-1526.829234901511
 20
1102.721051990192
 30
0.0
 11
506.526441169808
 21
1175.625436089019
 31
0.0
  0
LINE
  5
23E
330
1F
100
AcDbEntity
  8
0
 62
   250
100
AcDbLine
 10
-3902.071933945964
 20
1258.514386153387
 30
0.0
 11
-3063.418219828111
 21
1288.182811589434
 31
0.0
  0
LINE
  5
23F
330
1F
100
AcDbEntity
  8
0
 62
   250
100
AcDbLine
 10
-4561.532450668179
 20
-1850.459865707671
 30
0.0
 11
-3448.156191299959
 21
-1804.266937134805
 31
0.0
  0
LINE
  5
240
330
1F
100
AcDbEntity
  8
0
 62
   250
100
AcDbLine
 10
-3085.328825121807
 20
1287.407696487131
 30
0.0
 11
-3254.844441377076
 21
-61.83933554263086
 31
0.0
  0
LINE
  5
241
330
1F
100
AcDbEntity
  8
0
 62
   250
100
AcDbLine
 10
-3273.326758542295
 20
-208.947974446156
 30
0.0
 11
-3473.892313928926
 21
-1805.334704535393
 31
0.0
  0
LINE
  5
242
330
1F
100
AcDbEntity
  8
0
 62
   250
100
AcDbLine
 10
-4586.830091665933
 20
-1854.327474305667
 30
0.0
 11
-4532.193446562128
 21
-1548.196572267821
 31
0.0
  0
LINE
  5
243
330
1F
100
AcDbEntity
  8
0
 62
   250
100
AcDbLine
 10
4716.121680155168
 20
-1468.086152642856
 30
0.0
 11
4636.333989283684
 21
-1173.271333328873
 31
0.0
  0
LINE
  5
244
330
1F
100
AcDbEntity
  8
0
 62
   250
100
AcDbLine
 10
-4536.437973194958
 20
-1571.978793236244
 30
0.0
 11
-151.9797170988032
 21
-1392.481674979253
 31
0.0
  0
LINE
  5
245
330
1F
100
AcDbEntity
  8
0
 62
   250
100
AcDbLine
 10
342.3053096170407
 20
-1372.245939408111
 30
0.0
 11
4642.538499794182
 21
-1196.196945351289
 31
0.0
  0
LINE
  5
246
330
1F
100
AcDbEntity
  8
0
 62
   250
100
AcDbLine
 10
1836.193008884346
 20
313.59356658443
 30
0.0
 11
1813.73471816432
 21
470.694730673433
 31
0.0
  0
LINE
  5
247
330
1F
100
AcDbEntity
  8
0
 62
   250
100
AcDbLine
 10
670.6912973950799
 20
269.6528140073095
 30
0.0
 11
657.9518905486
 21
427.51165506094
 31
0.0
  0
LINE
  5
248
330
1F
100
AcDbEntity
  8
0
 62
   250
100
AcDbLine
 10
1816.770290462988
 20
449.4601697826586
 30
0.0
 11
1459.555656671892
 21
436.0983944398395
 31
0.0
  0
LINE
  5
249
330
1F
100
AcDbEntity
  8
0
 62
   250
100
AcDbLine
 10
1018.229739961317
 20
419.590398422245
 30
0.0
 11
659.673507813664
 21
406.1784399846012
 31
0.0
  0
LINE
  5
24A
330
1F
100
AcDbEntity
  8
0
 62
   250
100
AcDbLine
 10
696.316532651891
 20
248.9615516372191
 30
0.0
 11
1110.055891374084
 21
264.5690122319153
 31
0.0
  0
LINE
  5
24B
330
1F
100
AcDbEntity
  8
0
 62
   250
100
AcDbLine
 10
601.2324921188724
 20
1417.824419998591
 30
0.0
 11
988.6741559205014
 21
1431.530654073292
 31
0.0
  0
LINE
  5
24C
330
1F
100
AcDbEntity
  8
0
 62
   250
100
AcDbLine
 10
1085.815353170929
 20
263.6545881220883
 30
0.0
 11
1031.511552756433
 21
792.2990528299368
 31
0.0
  0
LINE
  5
24D
330
1F
100
AcDbEntity
  8
0
 62
   250
100
AcDbLine
 10
1016.400152373796
 20
939.4076917334615
 30
0.0
 11
965.9305891068392
 21
1430.72607191405
 31
0.0
  0
LINE
  5
24E
330
1F
100
AcDbEntity
  8
0
 62
   250
100
AcDbLine
 10
4094.669214798335
 20
740.2407162877831
 30
0.0
 11
2983.209961935429
 21
699.1266213987096
 31
0.0
  0
LINE
  5
24F
330
1F
100
AcDbEntity
  8
0
 62
   250
100
AcDbLine
 10
3880.414729904529
 20
1533.829598387724
 30
0.0
 11
2817.167609609408
 21
1496.215899935619
 31
0.0
  0
LINE
  5
250
330
1F
100
AcDbEntity
  8
0
 62
   250
100
AcDbLine
 10
3007.116609706445
 20
700.0109544792119
 30
0.0
 11
2937.149752336145
 21
1033.789371230327
 31
0.0
  0
LINE
  5
251
330
1F
100
AcDbEntity
  8
0
 62
   250
100
AcDbLine
 10
2906.312739996376
 20
1180.898010133852
 30
0.0
 11
2840.045934398852
 21
1497.02524932702
 31
0.0
  0
LINE
  5
252
330
1F
100
AcDbEntity
  8
0
 62
   250
100
AcDbLine
 10
1870.313017674213
 20
-457.5615447178224
 30
0.0
 11
1924.626447351104
 21
-455.4308552756587
 31
0.0
  0
LINE
  5
253
330
1F
100
AcDbEntity
  8
0
 62
   250
100
AcDbLine
 10
2028.979860278379
 20
-1603.515779333524
 30
0.0
 11
2087.144546960767
 21
-1601.099488720036
 31
0.0
  0
LINE
  5
254
330
1F
100
AcDbEntity
  8
0
 62
   250
100
AcDbLine
 10
1901.848009497126
 20
-456.3244423191059
 30
0.0
 11
1969.801002072176
 21
-939.3476049943278
 31
0.0
  0
LINE
  5
255
330
1F
100
AcDbEntity
  8
0
 62
   250
100
AcDbLine
 10
1990.496639506563
 20
-1086.456243897853
 30
0.0
 11
2063.038909844975
 21
-1602.100890567399
 31
0.0
  0
LINE
  5
256
330
1F
100
AcDbEntity
  8
0
 62
   250
100
AcDbLine
 10
2843.939458073889
 20
-94.27534293770226
 30
0.0
 11
2905.705049904054
 21
-91.89267936971983
 31
0.0
  0
LINE
  5
257
330
1F
100
AcDbEntity
  8
0
 62
   250
100
AcDbLine
 10
3124.716854187449
 20
-1557.996424476653
 30
0.0
 11
3192.047433822697
 21
-1555.199362258099
 31
0.0
  0
LINE
  5
258
330
1F
100
AcDbEntity
  8
0
 62
   250
100
AcDbLine
 10
2883.152747838471
 20
-92.76265481905334
 30
0.0
 11
3005.936116052443
 21
-724.0481841741636
 31
0.0
  0
LINE
  5
259
330
1F
100
AcDbEntity
  8
0
 62
   250
100
AcDbLine
 10
3034.548357800484
 20
-871.1568230776884
 30
0.0
 11
3167.788831047186
 21
-1556.207118639611
 31
0.0
  0
LINE
  5
25A
330
1F
100
AcDbEntity
  8
0
 62
   250
100
AcDbLine
 10
2840.968463875805
 20
598.8746395524757
 30
0.0
 11
2867.215816278547
 21
467.3025483132759
 31
0.0
  0
LINE
  5
25B
330
1F
100
AcDbEntity
  8
0
 62
   250
100
AcDbLine
 10
4143.625484380073
 20
647.2822791524096
 30
0.0
 11
4179.039316988401
 21
516.4284776749768
 31
0.0
  0
LINE
  5
25C
330
1F
100
AcDbEntity
  8
0
 62
   250
100
AcDbLine
 10
2862.96844141275
 20
488.5936859790803
 30
0.0
 11
3271.859644832937
 21
503.8884468397182
 31
0.0
  0
LINE
  5
25D
330
1F
100
AcDbEntity
  8
0
 62
   250
100
AcDbLine
 10
3766.14467154878
 20
522.3774023794243
 30
0.0
 11
4173.307494287985
 21
537.6075123770198
 31
0.0
  0
LINE
  5
25E
330
1F
100
AcDbEntity
  8
0
 62
   250
100
AcDbLine
 10
2876.076587314913
 20
-2.749699915550674
 30
0.0
 11
2849.136613950974
 21
135.3731088468356
 31
0.0
  0
LINE
  5
25F
330
1F
100
AcDbEntity
  8
0
 62
   250
100
AcDbLine
 10
1886.848288264234
 20
-40.75233876701193
 30
0.0
 11
1867.021589816899
 21
97.94020221698968
 31
0.0
  0
LINE
  5
260
330
1F
100
AcDbEntity
  8
0
 62
   250
100
AcDbLine
 10
2853.353582654167
 20
113.7524652819911
 30
0.0
 11
2582.887485999917
 21
103.431917666334
 31
0.0
  0
LINE
  5
261
330
1F
100
AcDbEntity
  8
0
 62
   250
100
AcDbLine
 10
2141.561569289343
 20
86.59163641194226
 30
0.0
 11
1870.124579409223
 21
76.23404108534754
 31
0.0
  0
LINE
  5
262
330
1F
100
AcDbEntity
  8
0
 62
   250
100
AcDbLine
 10
679.4839093248305
 20
160.7002115988133
 30
0.0
 11
691.6948010636646
 21
9.390402488172112
 31
0.0
  0
LINE
  5
263
330
1F
100
AcDbEntity
  8
0
 62
   250
100
AcDbLine
 10
1756.217457645526
 20
201.4832642635796
 30
0.0
 11
1776.985514128176
 21
50.85086570532969
 31
0.0
  0
LINE
  5
264
330
1F
100
AcDbEntity
  8
0
 62
   250
100
AcDbLine
 10
689.9347463161065
 20
31.19991104603799
 30
0.0
 11
1011.8890072458
 21
43.48516350870165
 31
0.0
  0
LINE
  5
265
330
1F
100
AcDbEntity
  8
0
 62
   250
100
AcDbLine
 10
1453.214923956375
 20
60.32544476309304
 30
0.0
 11
1773.991628153468
 21
72.56576357056174
 31
0.0
  0
LINE
  5
266
330
1F
100
AcDbEntity
  8
0
 62
   250
100
AcDbLine
 10
656.8572853330436
 20
-505.1648231852903
 30
0.0
 11
706.5563135007469
 21
-503.2151544710759
 31
0.0
  0
LINE
  5
267
330
1F
100
AcDbEntity
  8
0
 62
   250
100
AcDbLine
 10
744.6215885698309
 20
-1656.870882116619
 30
0.0
 11
797.9215834334613
 21
-1654.656681634611
 31
0.0
  0
LINE
  5
268
330
1F
100
AcDbEntity
  8
0
 62
   250
100
AcDbLine
 10
683.7237837958992
 20
-504.1108635115364
 30
0.0
 11
721.7024963302345
 21
-989.8973413275293
 31
0.0
  0
LINE
  5
269
330
1F
100
AcDbEntity
  8
0
 62
   250
100
AcDbLine
 10
733.2034272193614
 20
-1137.005980231054
 30
0.0
 11
773.7517777278779
 21
-1655.660749188093
 31
0.0
  0
POLYLINE
  5
26A
330
1F
100
AcDbEntity
  8
0
 62
   250
100
AcDbPolyFaceMesh
 66
     1
 10
0.0
 20
0.0
 30
0.0
 70
    64
 71
     3
 72
     1
  0
VERTEX
  5
26B
330
26A
100
AcDbEntity
  8
0
100
AcDbVertex
100
AcDbPolyFaceMeshVertex
 10
506.5264411698082
 20
1175.625436089019
 30
0.0
 70
   192
  0
VERTEX
  5
26C
330
26A
100
AcDbEntity
  8
0
100
AcDbVertex
100
AcDbPolyFaceMeshVertex
 10
437.5037532961904
 20
1152.614468018829
 30
0.0
 70
   192
  0
VERTEX
  5
26D
330
26A
100
AcDbEntity
  8
0
100
AcDbVertex
100
AcDbPolyFaceMeshVertex
 10
434.5707839961007
 20
1193.534892951299
 30
0.0
 70
   192
  0
VERTEX
  5
26E
330
26A
100
AcDbEntity
  8
0
 62
   250
100
AcDbFaceRecord
 10
0.0
 20
0.0
 30
0.0
 70
   128
 71
     1
 72
     2
 73
     3
  0
SEQEND
  5
26F
330
26A
100
AcDbEntity
  8
0
 62
   250
  0
POLYLINE
  5
270
330
1F
100
AcDbEntity
  8
0
 62
   250
100
AcDbPolyFaceMesh
 66
     1
 10
0.0
 20
0.0
 30
0.0
 70
    64
 71
     3
 72
     1
  0
VERTEX
  5
271
330
270
100
AcDbEntity
  8
0
100
AcDbVertex
100
AcDbPolyFaceMeshVertex
 10
-3069.273497179774
 20
1227.060538990279
 30
0.0
 70
   192
  0
VERTEX
  5
272
330
270
100
AcDbEntity
  8
0
100
AcDbVertex
100
AcDbPolyFaceMeshVertex
 10
-3116.761866546694
 20
1225.37483077047
 30
0.0
 70
   192
  0
VERTEX
  5
273
330
270
100
AcDbEntity
  8
0
100
AcDbVertex
100
AcDbPolyFaceMeshVertex
 10
-3085.328825121807
 20
1287.407696487131
 30
0.0
 70
   192
  0
VERTEX
  5
274
330
270
100
AcDbEntity
  8
0
 62
   250
100
AcDbFaceRecord
 10
0.0
 20
0.0
 30
0.0
 70
   128
 71
     1
 72
     2
 73
     3
  0
SEQEND
  5
275
330
270
100
AcDbEntity
  8
0
 62
   250
  0
POLYLINE
  5
276
330
1F
100
AcDbEntity
  8
0
 62
   250
100
AcDbPolyFaceMesh
 66
     1
 10
0.0
 20
0.0
 30
0.0
 70
    64
 71
     3
 72
     1
  0
VERTEX
  5
277
330
276
100
AcDbEntity
  8
0
100
AcDbVertex
100
AcDbPolyFaceMeshVertex
 10
-3441.332399482872
 20
-1733.03058216658
 30
0.0
 70
   192
  0
VERTEX
  5
278
330
276
100
AcDbEntity
  8
0
100
AcDbVertex
100
AcDbPolyFaceMeshVertex
 10
-3473.892313928926
 20
-1805.334704535393
 30
0.0
 70
   192
  0
VERTEX
  5
279
330
276
100
AcDbEntity
  8
0
100
AcDbVertex
100
AcDbPolyFaceMeshVertex
 10
-3488.531446570906
 20
-1734.982176886648
 30
0.0
 70
   192
  0
VERTEX
  5
27A
330
276
100
AcDbEntity
  8
0
 62
   250
100
AcDbFaceRecord
 10
0.0
 20
0.0
 30
0.0
 70
   128
 71
     1
 72
     2
 73
     3
  0
SEQEND
  5
27B
330
276
100
AcDbEntity
  8
0
 62
   250
  0
POLYLINE
  5
27C
330
1F
100
AcDbEntity
  8
0
 62
   250
100
AcDbPolyFaceMesh
 66
     1
 10
0.0
 20
0.0
 30
0.0
 70
    64
 71
     3
 72
     1
  0
VERTEX
  5
27D
330
27C
100
AcDbEntity
  8
0
100
AcDbVertex
100
AcDbPolyFaceMeshVertex
 10
-4461.131966448173
 20
-1545.507033483961
 30
0.0
 70
   192
  0
VERTEX
  5
27E
330
27C
100
AcDbEntity
  8
0
100
AcDbVertex
100
AcDbPolyFaceMeshVertex
 10
-4469.389136128336
 20
-1592.676086108056
 30
0.0
 70
   192
  0
VERTEX
  5
27F
330
27C
100
AcDbEntity
  8
0
100
AcDbVertex
100
AcDbPolyFaceMeshVertex
 10
-4536.437973194958
 20
-1571.978793236243
 30
0.0
 70
   192
  0
VERTEX
  5
280
330
27C
100
AcDbEntity
  8
0
 62
   250
100
AcDbFaceRecord
 10
0.0
 20
0.0
 30
0.0
 70
   128
 71
     1
 72
     2
 73
     3
  0
SEQEND
  5
281
330
27C
100
AcDbEntity
  8
0
 62
   250
  0
POLYLINE
  5
282
330
1F
100
AcDbEntity
  8
0
 62
   250
100
AcDbPolyFaceMesh
 66
     1
 10
0.0
 20
0.0
 30
0.0
 70
    64
 71
     3
 72
     1
  0
VERTEX
  5
283
330
282
100
AcDbEntity
  8
0
100
AcDbVertex
100
AcDbPolyFaceMeshVertex
 10
4642.538499794182
 20
-1196.196945351289
 30
0.0
 70
   192
  0
VERTEX
  5
284
330
282
100
AcDbEntity
  8
0
100
AcDbVertex
100
AcDbPolyFaceMeshVertex
 10
4578.827751964574
 20
-1222.254079174062
 30
0.0
 70
   192
  0
VERTEX
  5
285
330
282
100
AcDbEntity
  8
0
100
AcDbVertex
100
AcDbPolyFaceMeshVertex
 10
4566.448554971947
 20
-1175.91665498149
 30
0.0
 70
   192
  0
VERTEX
  5
286
330
282
100
AcDbEntity
  8
0
 62
   250
100
AcDbFaceRecord
 10
0.0
 20
0.0
 30
0.0
 70
   128
 71
     1
 72
     2
 73
     3
  0
SEQEND
  5
287
330
282
100
AcDbEntity
  8
0
 62
   250
  0
POLYLINE
  5
288
330
1F
100
AcDbEntity
  8
0
 62
   250
100
AcDbPolyFaceMesh
 66
     1
 10
0.0
 20
0.0
 30
0.0
 70
    64
 71
     3
 72
     1
  0
VERTEX
  5
289
330
288
100
AcDbEntity
  8
0
100
AcDbVertex
100
AcDbPolyFaceMeshVertex
 10
1816.770290462988
 20
449.4601697826586
 30
0.0
 70
   192
  0
VERTEX
  5
28A
330
288
100
AcDbEntity
  8
0
100
AcDbVertex
100
AcDbPolyFaceMeshVertex
 10
1749.430367695426
 20
425.5165771693126
 30
0.0
 70
   192
  0
VERTEX
  5
28B
330
288
100
AcDbEntity
  8
0
100
AcDbVertex
100
AcDbPolyFaceMeshVertex
 10
1743.50493571444
 20
468.0954891542172
 30
0.0
 70
   192
  0
VERTEX
  5
28C
330
288
100
AcDbEntity
  8
0
 62
   250
100
AcDbFaceRecord
 10
0.0
 20
0.0
 30
0.0
 70
   128
 71
     1
 72
     2
 73
     3
  0
SEQEND
  5
28D
330
288
100
AcDbEntity
  8
0
 62
   250
  0
POLYLINE
  5
28E
330
1F
100
AcDbEntity
  8
0
 62
   250
100
AcDbPolyFaceMesh
 66
     1
 10
0.0
 20
0.0
 30
0.0
 70
    64
 71
     3
 72
     1
  0
VERTEX
  5
28F
330
28E
100
AcDbEntity
  8
0
100
AcDbVertex
100
AcDbPolyFaceMeshVertex
 10
731.9266943276483
 20
387.4624405359822
 30
0.0
 70
   192
  0
VERTEX
  5
290
330
28E
100
AcDbEntity
  8
0
100
AcDbVertex
100
AcDbPolyFaceMeshVertex
 10
659.6735078136646
 20
406.1784399846011
 30
0.0
 70
   192
  0
VERTEX
  5
291
330
28E
100
AcDbEntity
  8
0
100
AcDbVertex
100
AcDbPolyFaceMeshVertex
 10
728.3231711878778
 20
430.1161328991372
 30
0.0
 70
   192
  0
VERTEX
  5
292
330
28E
100
AcDbEntity
  8
0
 62
   250
100
AcDbFaceRecord
 10
0.0
 20
0.0
 30
0.0
 70
   128
 71
     1
 72
     2
 73
     3
  0
SEQEND
  5
293
330
28E
100
AcDbEntity
  8
0
 62
   250
  0
POLYLINE
  5
294
330
1F
100
AcDbEntity
  8
0
 62
   250
100
AcDbPolyFaceMesh
 66
     1
 10
0.0
 20
0.0
 30
0.0
 70
    64
 71
     3
 72
     1
  0
VERTEX
  5
295
330
294
100
AcDbEntity
  8
0
100
AcDbVertex
100
AcDbPolyFaceMeshVertex
 10
1102.599239130173
 20
328.8002616597666
 30
0.0
 70
   192
  0
VERTEX
  5
296
330
294
100
AcDbEntity
  8
0
100
AcDbVertex
100
AcDbPolyFaceMeshVertex
 10
1085.815353170928
 20
263.6545881220883
 30
0.0
 70
   192
  0
VERTEX
  5
297
330
294
100
AcDbEntity
  8
0
100
AcDbVertex
100
AcDbPolyFaceMeshVertex
 10
1055.826010278912
 20
327.0418840134291
 30
0.0
 70
   192
  0
VERTEX
  5
298
330
294
100
AcDbEntity
  8
0
 62
   250
100
AcDbFaceRecord
 10
0.0
 20
0.0
 30
0.0
 70
   128
 71
     1
 72
     2
 73
     3
  0
SEQEND
  5
299
330
294
100
AcDbEntity
  8
0
 62
   250
  0
POLYLINE
  5
29A
330
1F
100
AcDbEntity
  8
0
 62
   250
100
AcDbPolyFaceMesh
 66
     1
 10
0.0
 20
0.0
 30
0.0
 70
    64
 71
     3
 72
     1
  0
VERTEX
  5
29B
330
29A
100
AcDbEntity
  8
0
100
AcDbVertex
100
AcDbPolyFaceMeshVertex
 10
995.716891719433
 20
1370.864664842338
 30
0.0
 70
   192
  0
VERTEX
  5
29C
330
29A
100
AcDbEntity
  8
0
100
AcDbVertex
100
AcDbPolyFaceMeshVertex
 10
948.6120767373131
 20
1369.192525339239
 30
0.0
 70
   192
  0
VERTEX
  5
29D
330
29A
100
AcDbEntity
  8
0
100
AcDbVertex
100
AcDbPolyFaceMeshVertex
 10
965.9305891068391
 20
1430.72607191405
 30
0.0
 70
   192
  0
VERTEX
  5
29E
330
29A
100
AcDbEntity
  8
0
 62
   250
100
AcDbFaceRecord
 10
0.0
 20
0.0
 30
0.0
 70
   128
 71
     1
 72
     2
 73
     3
  0
SEQEND
  5
29F
330
29A
100
AcDbEntity
  8
0
 62
   250
  0
POLYLINE
  5
2A0
330
1F
100
AcDbEntity
  8
0
 62
   250
100
AcDbPolyFaceMesh
 66
     1
 10
0.0
 20
0.0
 30
0.0
 70
    64
 71
     3
 72
     1
  0
VERTEX
  5
2A1
330
2A0
100
AcDbEntity
  8
0
100
AcDbVertex
100
AcDbPolyFaceMeshVertex
 10
3017.253029299906
 20
763.6468885843121
 30
0.0
 70
   192
  0
VERTEX
  5
2A2
330
2A0
100
AcDbEntity
  8
0
100
AcDbVertex
100
AcDbPolyFaceMeshVertex
 10
3007.116609706443
 20
700.0109544792122
 30
0.0
 70
   192
  0
VERTEX
  5
2A3
330
2A0
100
AcDbEntity
  8
0
100
AcDbVertex
100
AcDbPolyFaceMeshVertex
 10
2970.659225353289
 20
761.9292610281324
 30
0.0
 70
   192
  0
VERTEX
  5
2A4
330
2A0
100
AcDbEntity
  8
0
 62
   250
100
AcDbFaceRecord
 10
0.0
 20
0.0
 30
0.0
 70
   128
 71
     1
 72
     2
 73
     3
  0
SEQEND
  5
2A5
330
2A0
100
AcDbEntity
  8
0
 62
   250
  0
POLYLINE
  5
2A6
330
1F
100
AcDbEntity
  8
0
 62
   250
100
AcDbPolyFaceMesh
 66
     1
 10
0.0
 20
0.0
 30
0.0
 70
    64
 71
     3
 72
     1
  0
VERTEX
  5
2A7
330
2A6
100
AcDbEntity
  8
0
100
AcDbVertex
100
AcDbPolyFaceMeshVertex
 10
2876.184195181671
 20
1437.388550730539
 30
0.0
 70
   192
  0
VERTEX
  5
2A8
330
2A6
100
AcDbEntity
  8
0
100
AcDbVertex
100
AcDbPolyFaceMeshVertex
 10
2829.256812717397
 20
1435.72268812497
 30
0.0
 70
   192
  0
VERTEX
  5
2A9
330
2A6
100
AcDbEntity
  8
0
100
AcDbVertex
100
AcDbPolyFaceMeshVertex
 10
2840.045934398852
 20
1497.02524932702
 30
0.0
 70
   192
  0
VERTEX
  5
2AA
330
2A6
100
AcDbEntity
  8
0
 62
   250
100
AcDbFaceRecord
 10
0.0
 20
0.0
 30
0.0
 70
   128
 71
     1
 72
     2
 73
     3
  0
SEQEND
  5
2AB
330
2A6
100
AcDbEntity
  8
0
 62
   250
  0
POLYLINE
  5
2AC
330
1F
100
AcDbEntity
  8
0
 62
   250
100
AcDbPolyFaceMesh
 66
     1
 10
0.0
 20
0.0
 30
0.0
 70
    64
 71
     3
 72
     1
  0
VERTEX
  5
2AD
330
2AC
100
AcDbEntity
  8
0
100
AcDbVertex
100
AcDbPolyFaceMeshVertex
 10
1934.806426526284
 20
-522.5816488604846
 30
0.0
 70
   192
  0
VERTEX
  5
2AE
330
2AC
100
AcDbEntity
  8
0
100
AcDbVertex
100
AcDbPolyFaceMeshVertex
 10
1887.790219849311
 20
-524.4324455230159
 30
0.0
 70
   192
  0
VERTEX
  5
2AF
330
2AC
100
AcDbEntity
  8
0
100
AcDbVertex
100
AcDbPolyFaceMeshVertex
 10
1901.848009497126
 20
-456.3244423191058
 30
0.0
 70
   192
  0
VERTEX
  5
2B0
330
2AC
100
AcDbEntity
  8
0
 62
   250
100
AcDbFaceRecord
 10
0.0
 20
0.0
 30
0.0
 70
   128
 71
     1
 72
     2
 73
     3
  0
SEQEND
  5
2B1
330
2AC
100
AcDbEntity
  8
0
 62
   250
  0
POLYLINE
  5
2B2
330
1F
100
AcDbEntity
  8
0
 62
   250
100
AcDbPolyFaceMesh
 66
     1
 10
0.0
 20
0.0
 30
0.0
 70
    64
 71
     3
 72
     1
  0
VERTEX
  5
2B3
330
2B2
100
AcDbEntity
  8
0
100
AcDbVertex
100
AcDbPolyFaceMeshVertex
 10
2076.441722324595
 20
-1530.499932232933
 30
0.0
 70
   192
  0
VERTEX
  5
2B4
330
2B2
100
AcDbEntity
  8
0
100
AcDbVertex
100
AcDbPolyFaceMeshVertex
 10
2063.038909844975
 20
-1602.100890567398
 30
0.0
 70
   192
  0
VERTEX
  5
2B5
330
2B2
100
AcDbEntity
  8
0
100
AcDbVertex
100
AcDbPolyFaceMeshVertex
 10
2029.75975362469
 20
-1532.432547520406
 30
0.0
 70
   192
  0
VERTEX
  5
2B6
330
2B2
100
AcDbEntity
  8
0
 62
   250
100
AcDbFaceRecord
 10
0.0
 20
0.0
 30
0.0
 70
   128
 71
     1
 72
     2
 73
     3
  0
SEQEND
  5
2B7
330
2B2
100
AcDbEntity
  8
0
 62
   250
  0
POLYLINE
  5
2B8
330
1F
100
AcDbEntity
  8
0
 62
   250
100
AcDbPolyFaceMesh
 66
     1
 10
0.0
 20
0.0
 30
0.0
 70
    64
 71
     3
 72
     1
  0
VERTEX
  5
2B9
330
2B8
100
AcDbEntity
  8
0
100
AcDbVertex
100
AcDbPolyFaceMeshVertex
 10
2919.437110981803
 20
-157.7876377023239
 30
0.0
 70
   192
  0
VERTEX
  5
2BA
330
2B8
100
AcDbEntity
  8
0
100
AcDbVertex
100
AcDbPolyFaceMeshVertex
 10
2872.513809669986
 20
-159.6040140270087
 30
0.0
 70
   192
  0
VERTEX
  5
2BB
330
2B8
100
AcDbEntity
  8
0
100
AcDbVertex
100
AcDbPolyFaceMeshVertex
 10
2883.152747838471
 20
-92.76265481905342
 30
0.0
 70
   192
  0
VERTEX
  5
2BC
330
2B8
100
AcDbEntity
  8
0
 62
   250
100
AcDbFaceRecord
 10
0.0
 20
0.0
 30
0.0
 70
   128
 71
     1
 72
     2
 73
     3
  0
SEQEND
  5
2BD
330
2B8
100
AcDbEntity
  8
0
 62
   250
  0
POLYLINE
  5
2BE
330
1F
100
AcDbEntity
  8
0
 62
   250
100
AcDbPolyFaceMesh
 66
     1
 10
0.0
 20
0.0
 30
0.0
 70
    64
 71
     3
 72
     1
  0
VERTEX
  5
2BF
330
2BE
100
AcDbEntity
  8
0
100
AcDbVertex
100
AcDbPolyFaceMeshVertex
 10
3177.369344489208
 20
-1484.76494711916
 30
0.0
 70
   192
  0
VERTEX
  5
2C0
330
2BE
100
AcDbEntity
  8
0
100
AcDbVertex
100
AcDbPolyFaceMeshVertex
 10
3167.788831047186
 20
-1556.207118639611
 30
0.0
 70
   192
  0
VERTEX
  5
2C1
330
2BE
100
AcDbEntity
  8
0
100
AcDbVertex
100
AcDbPolyFaceMeshVertex
 10
3130.790545268109
 20
-1486.693276516732
 30
0.0
 70
   192
  0
VERTEX
  5
2C2
330
2BE
100
AcDbEntity
  8
0
 62
   250
100
AcDbFaceRecord
 10
0.0
 20
0.0
 30
0.0
 70
   128
 71
     1
 72
     2
 73
     3
  0
SEQEND
  5
2C3
330
2BE
100
AcDbEntity
  8
0
 62
   250
  0
POLYLINE
  5
2C4
330
1F
100
AcDbEntity
  8
0
 62
   250
100
AcDbPolyFaceMesh
 66
     1
 10
0.0
 20
0.0
 30
0.0
 70
    64
 71
     3
 72
     1
  0
VERTEX
  5
2C5
330
2C4
100
AcDbEntity
  8
0
100
AcDbVertex
100
AcDbPolyFaceMeshVertex
 10
2937.428415985835
 20
469.9602324383991
 30
0.0
 70
   192
  0
VERTEX
  5
2C6
330
2C4
100
AcDbEntity
  8
0
100
AcDbVertex
100
AcDbPolyFaceMeshVertex
 10
2862.96844141275
 20
488.5936859790802
 30
0.0
 70
   192
  0
VERTEX
  5
2C7
330
2C4
100
AcDbEntity
  8
0
100
AcDbVertex
100
AcDbPolyFaceMeshVertex
 10
2928.79563115785
 20
512.4258029877724
 30
0.0
 70
   192
  0
VERTEX
  5
2C8
330
2C4
100
AcDbEntity
  8
0
 62
   250
100
AcDbFaceRecord
 10
0.0
 20
0.0
 30
0.0
 70
   128
 71
     1
 72
     2
 73
     3
  0
SEQEND
  5
2C9
330
2C4
100
AcDbEntity
  8
0
 62
   250
  0
POLYLINE
  5
2CA
330
1F
100
AcDbEntity
  8
0
 62
   250
100
AcDbPolyFaceMesh
 66
     1
 10
0.0
 20
0.0
 30
0.0
 70
    64
 71
     3
 72
     1
  0
VERTEX
  5
2CB
330
2CA
100
AcDbEntity
  8
0
100
AcDbVertex
100
AcDbPolyFaceMeshVertex
 10
4173.307494287986
 20
537.60751237702
 30
0.0
 70
   192
  0
VERTEX
  5
2CC
330
2CA
100
AcDbEntity
  8
0
100
AcDbVertex
100
AcDbPolyFaceMeshVertex
 10
4108.994106298555
 20
513.7771286693212
 30
0.0
 70
   192
  0
VERTEX
  5
2CD
330
2CA
100
AcDbEntity
  8
0
100
AcDbVertex
100
AcDbPolyFaceMeshVertex
 10
4097.686584836751
 20
556.154721156885
 30
0.0
 70
   192
  0
VERTEX
  5
2CE
330
2CA
100
AcDbEntity
  8
0
 62
   250
100
AcDbFaceRecord
 10
0.0
 20
0.0
 30
0.0
 70
   128
 71
     1
 72
     2
 73
     3
  0
SEQEND
  5
2CF
330
2CA
100
AcDbEntity
  8
0
 62
   250
  0
POLYLINE
  5
2D0
330
1F
100
AcDbEntity
  8
0
 62
   250
100
AcDbPolyFaceMesh
 66
     1
 10
0.0
 20
0.0
 30
0.0
 70
    64
 71
     3
 72
     1
  0
VERTEX
  5
2D1
330
2D0
100
AcDbEntity
  8
0
100
AcDbVertex
100
AcDbPolyFaceMeshVertex
 10
2853.353582654166
 20
113.7524652819911
 30
0.0
 70
   192
  0
VERTEX
  5
2D2
330
2D0
100
AcDbEntity
  8
0
100
AcDbVertex
100
AcDbPolyFaceMeshVertex
 10
2787.344958785325
 20
89.37771841344865
 30
0.0
 70
   192
  0
VERTEX
  5
2D3
330
2D0
100
AcDbEntity
  8
0
100
AcDbVertex
100
AcDbPolyFaceMeshVertex
 10
2779.052076791736
 20
132.7233523928504
 30
0.0
 70
   192
  0
VERTEX
  5
2D4
330
2D0
100
AcDbEntity
  8
0
 62
   250
100
AcDbFaceRecord
 10
0.0
 20
0.0
 30
0.0
 70
   128
 71
     1
 72
     2
 73
     3
  0
SEQEND
  5
2D5
330
2D0
100
AcDbEntity
  8
0
 62
   250
  0
POLYLINE
  5
2D6
330
1F
100
AcDbEntity
  8
0
 62
   250
100
AcDbPolyFaceMesh
 66
     1
 10
0.0
 20
0.0
 30
0.0
 70
    64
 71
     3
 72
     1
  0
VERTEX
  5
2D7
330
2D6
100
AcDbEntity
  8
0
100
AcDbVertex
100
AcDbPolyFaceMeshVertex
 10
1943.590136055859
 20
57.1875741407279
 30
0.0
 70
   192
  0
VERTEX
  5
2D8
330
2D6
100
AcDbEntity
  8
0
100
AcDbVertex
100
AcDbPolyFaceMeshVertex
 10
1870.124579409221
 20
76.23404108534781
 30
0.0
 70
   192
  0
VERTEX
  5
2D9
330
2D6
100
AcDbEntity
  8
0
100
AcDbVertex
100
AcDbPolyFaceMeshVertex
 10
1937.223625942806
 20
100.5944006845687
 30
0.0
 70
   192
  0
VERTEX
  5
2DA
330
2D6
100
AcDbEntity
  8
0
 62
   250
100
AcDbFaceRecord
 10
0.0
 20
0.0
 30
0.0
 70
   128
 71
     1
 72
     2
 73
     3
  0
SEQEND
  5
2DB
330
2D6
100
AcDbEntity
  8
0
 62
   250
  0
POLYLINE
  5
2DC
330
1F
100
AcDbEntity
  8
0
 62
   250
100
AcDbPolyFaceMesh
 66
     1
 10
0.0
 20
0.0
 30
0.0
 70
    64
 71
     3
 72
     1
  0
VERTEX
  5
2DD
330
2DC
100
AcDbEntity
  8
0
100
AcDbVertex
100
AcDbPolyFaceMeshVertex
 10
762.2182420450582
 20
12.10833857382525
 30
0.0
 70
   192
  0
VERTEX
  5
2DE
330
2DC
100
AcDbEntity
  8
0
100
AcDbVertex
100
AcDbPolyFaceMeshVertex
 10
689.9347463161064
 20
31.19991104603808
 30
0.0
 70
   192
  0
VERTEX
  5
2DF
330
2DC
100
AcDbEntity
  8
0
100
AcDbVertex
100
AcDbPolyFaceMeshVertex
 10
758.5456443183513
 20
55.61796044543399
 30
0.0
 70
   192
  0
VERTEX
  5
2E0
330
2DC
100
AcDbEntity
  8
0
 62
   250
100
AcDbFaceRecord
 10
0.0
 20
0.0
 30
0.0
 70
   128
 71
     1
 72
     2
 73
     3
  0
SEQEND
  5
2E1
330
2DC
100
AcDbEntity
  8
0
 62
   250
  0
POLYLINE
  5
2E2
330
1F
100
AcDbEntity
  8
0
 62
   250
100
AcDbPolyFaceMesh
 66
     1
 10
0.0
 20
0.0
 30
0.0
 70
    64
 71
     3
 72
     1
  0
VERTEX
  5
2E3
330
2E2
100
AcDbEntity
  8
0
100
AcDbVertex
100
AcDbPolyFaceMeshVertex
 10
1773.991628153468
 20
72.5657635705617
 30
0.0
 70
   192
  0
VERTEX
  5
2E4
330
2E2
100
AcDbEntity
  8
0
100
AcDbVertex
100
AcDbPolyFaceMeshVertex
 10
1706.596764131835
 20
48.1381200259456
 30
0.0
 70
   192
  0
VERTEX
  5
2E5
330
2E2
100
AcDbEntity
  8
0
100
AcDbVertex
100
AcDbPolyFaceMeshVertex
 10
1700.769034231702
 20
91.57782021133423
 30
0.0
 70
   192
  0
VERTEX
  5
2E6
330
2E2
100
AcDbEntity
  8
0
 62
   250
100
AcDbFaceRecord
 10
0.0
 20
0.0
 30
0.0
 70
   128
 71
     1
 72
     2
 73
     3
  0
SEQEND
  5
2E7
330
2E2
100
AcDbEntity
  8
0
 62
   250
  0
POLYLINE
  5
2E8
330
1F
100
AcDbEntity
  8
0
 62
   250
100
AcDbPolyFaceMesh
 66
     1
 10
0.0
 20
0.0
 30
0.0
 70
    64
 71
     3
 72
     1
  0
VERTEX
  5
2E9
330
2E8
100
AcDbEntity
  8
0
100
AcDbVertex
100
AcDbPolyFaceMeshVertex
 10
712.553600017625
 20
-570.5300330555028
 30
0.0
 70
   192
  0
VERTEX
  5
2EA
330
2E8
100
AcDbEntity
  8
0
100
AcDbVertex
100
AcDbPolyFaceMeshVertex
 10
665.4220670087072
 20
-572.3853539139712
 30
0.0
 70
   192
  0
VERTEX
  5
2EB
330
2E8
100
AcDbEntity
  8
0
100
AcDbVertex
100
AcDbPolyFaceMeshVertex
 10
683.7237837958991
 20
-504.1108635115364
 30
0.0
 70
   192
  0
VERTEX
  5
2EC
330
2E8
100
AcDbEntity
  8
0
 62
   250
100
AcDbFaceRecord
 10
0.0
 20
0.0
 30
0.0
 70
   128
 71
     1
 72
     2
 73
     3
  0
SEQEND
  5
2ED
330
2E8
100
AcDbEntity
  8
0
 62
   250
  0
POLYLINE
  5
2EE
330
1F
100
AcDbEntity
  8
0
 62
   250
100
AcDbPolyFaceMesh
 66
     1
 10
0.0
 20
0.0
 30
0.0
 70
    64
 71
     3
 72
     1
  0
VERTEX
  5
2EF
330
2EE
100
AcDbEntity
  8
0
100
AcDbVertex
100
AcDbPolyFaceMeshVertex
 10
791.6153653292705
 20
-1583.874480321234
 30
0.0
 70
   192
  0
VERTEX
  5
2F0
330
2EE
100
AcDbEntity
  8
0
100
AcDbVertex
100
AcDbPolyFaceMeshVertex
 10
773.7517777278771
 20
-1655.660749188093
 30
0.0
 70
   192
  0
VERTEX
  5
2F1
330
2EE
100
AcDbEntity
  8
0
100
AcDbVertex
100
AcDbPolyFaceMeshVertex
 10
744.8129937409843
 20
-1585.812097412819
 30
0.0
 70
   192
  0
VERTEX
  5
2F2
330
2EE
100
AcDbEntity
  8
0
 62
   250
100
AcDbFaceRecord
 10
0.0
 20
0.0
 30
0.0
 70
   128
 71
     1
 72
     2
 73
     3
  0
SEQEND
  5
2F3
330
2EE
100
AcDbEntity
  8
0
 62
   250
  0
MTEXT
  5
2F5
330
1F
100
AcDbEntity
  8
0
 62
   250
100
AcDbMText
 10
-2003.46122494893
 20
1057.234971283897
 30
0.0
 40
73.24995675058261
 41
0.0
 71
     7
 72
     1
  1
4000.0mm
  7
TAHOMA
  0
MTEXT
  5
2F6
330
1F
100
AcDbEntity
  8
0
 62
   250
100
AcDbMText
 10
-3493.575076649186
 20
-172.018633369685
 30
0.0
 40
73.24995675058268
 41
0.0
 71
     7
 72
     1
  1
2700.0mm
  7
TAHOMA
  0
MTEXT
  5
2F7
330
1F
100
AcDbEntity
  8
0
 62
   250
100
AcDbMText
 10
-134.3266804303805
 20
-1418.988785568974
 30
0.0
 40
73.24995675058261
 41
0.0
 71
     7
 72
     1
  1
7070.0mm
  7
TAHOMA
  0
MTEXT
  5
2F8
330
1F
100
AcDbEntity
  8
0
 62
   250
100
AcDbMText
 10
1035.882776629741
 20
391.2194180557511
 30
0.0
 40
73.24995675058261
 41
0.0
 71
     7
 72
     1
  1
980.0mm
  7
TAHOMA
  0
MTEXT
  5
2F9
330
1F
100
AcDbEntity
  8
0
 62
   250
100
AcDbMText
 10
794.4663758756166
 20
829.2283939064076
 30
0.0
 40
73.24995675058268
 41
0.0
 71
     7
 72
     1
  1
1140.0mm
  7
TAHOMA
  0
MTEXT
  5
2FA
330
1F
100
AcDbEntity
  8
0
 62
   250
100
AcDbMText
 10
2718.721324479395
 20
1070.718712306798
 30
0.0
 40
73.24995675058274
 41
0.0
 71
     7
 72
     1
  1
800.0mm
  7
TAHOMA
  0
MTEXT
  5
2FB
330
1F
100
AcDbEntity
  8
0
 62
   250
100
AcDbMText
 10
1777.138899102506
 20
-1049.526902821381
 30
0.0
 40
73.24995675058261
 41
0.0
 71
     7
 72
     1
  1
920.0mm
  7
TAHOMA
  0
MTEXT
  5
2FC
330
1F
100
AcDbEntity
  8
0
 62
   250
100
AcDbMText
 10
2790.752760236966
 20
-834.2274820012171
 30
0.0
 40
73.24995675058268
 41
0.0
 71
     7
 72
     1
  1
1200.0mm
  7
TAHOMA
  0
MTEXT
  5
2FD
330
1F
100
AcDbEntity
  8
0
 62
   250
100
AcDbMText
 10
3289.51268150136
 20
476.5079462342803
 30
0.0
 40
73.24995675058268
 41
0.0
 71
     7
 72
     1
  1
1120.0mm
  7
TAHOMA
  0
MTEXT
  5
2FE
330
1F
100
AcDbEntity
  8
0
 62
   250
100
AcDbMText
 10
2159.214605957764
 20
58.38679866384685
 30
0.0
 40
73.24995675058265
 41
0.0
 71
     7
 72
     1
  1
820.0mm
  7
TAHOMA
  0
MTEXT
  5
2FF
330
1F
100
AcDbEntity
  8
0
 62
   250
100
AcDbMText
 10
1029.542043914223
 20
15.28032576060576
 30
0.0
 40
73.24995675058265
 41
0.0
 71
     7
 72
     1
  1
900.0mm
  7
TAHOMA
  0
MTEXT
  5
300
330
1F
100
AcDbEntity
  8
0
 62
   250
100
AcDbMText
 10
524.4430400879315
 20
-1100.076639154583
 30
0.0
 40
73.24995675058261
 41
0.0
 71
     7
 72
     1
  1
920.0mm
  7
TAHOMA
  0
ENDSEC
  0
SECTION
  2
OBJECTS
  0
DICTIONARY
  5
C
330
0
100
AcDbDictionary
  3
ACAD_GROUP
350
D
  3
ACAD_LAYOUT
350
1A
  3
ACAD_MATERIAL
350
43
  3
ACAD_MLEADERSTYLE
350
323
  3
ACAD_MLINESTYLE
350
17
  3
ACAD_PLOTSETTINGS
350
19
  3
ACAD_SCALELIST
350
47
  3
ACAD_VISUALSTYLE
350
2A
  3
ACDBHEADERROUNDTRIPXREC
350
301
  3
ACDBVARIABLEDICTIONARY
350
321
  0
DICTIONARY
  5
328
330
8
100
AcDbDictionary
280
     1
  3
ACAD_XREC_ROUNDTRIP
360
329
  0
DICTIONARY
  5
D
102
{ACAD_REACTORS
330
C
102
}
330
C
100
AcDbDictionary
  0
DICTIONARY
  5
1A
102
{ACAD_REACTORS
330
C
102
}
330
C
100
AcDbDictionary
  0
DICTIONARY
  5
43
102
{ACAD_REACTORS
330
C
102
}
330
C
100
AcDbDictionary
  3
BYBLOCK
350
45
  3
BYLAYER
350
44
  3
GLOBAL
350
46
  0
DICTIONARY
  5
323
102
{ACAD_REACTORS
330
C
102
}
330
C
100
AcDbDictionary
  0
DICTIONARY
  5
17
102
{ACAD_REACTORS
330
C
102
}
330
C
100
AcDbDictionary
  3
STANDARD
350
18
  0
DICTIONARY
  5
19
102
{ACAD_REACTORS
330
C
102
}
330
C
100
AcDbDictionary
  0
DICTIONARY
  5
47
102
{ACAD_REACTORS
330
C
102
}
330
C
100
AcDbDictionary
  3
A0
350
48
  3
A1
350
49
  3
A2
350
4A
  3
A3
350
4B
  3
A4
350
4C
  3
A5
350
4D
  3
A6
350
4E
  3
A7
350
4F
  3
A8
350
50
  3
A9
350
51
  3
B0
350
52
  3
B1
350
53
  3
B2
350
54
  3
B3
350
55
  3
B4
350
56
  3
B5
350
57
  3
B6
350
58
  3
B7
350
59
  3
B8
350
5A
  3
B9
350
5B
  3
C0
350
5C
  3
C1
350
5D
  3
C2
350
5E
  3
C3
350
5F
  3
C4
350
60
  3
C5
350
61
  3
C6
350
62
  3
C7
350
63
  3
C8
350
64
  3
C9
350
65
  3
D0
350
66
  3
D1
350
67
  3
D2
350
68
  0
DICTIONARY
  5
2A
102
{ACAD_REACTORS
330
C
102
}
330
C
100
AcDbDictionary
  3
2DWIREFRAME
350
2F
  3
BASIC
350
32
  3
BRIGHTEN
350
36
  3
COLORCHANGE
350
3A
  3
CONCEPTUAL
350
34
  3
DIM
350
35
  3
EDGECOLOROFF
350
3D
  3
FACEPATTERN
350
39
  3
FLAT
350
2B
  3
FLATWITHEDGES
350
2C
  3
GOURAUD
350
2D
  3
GOURAUDWITHEDGES
350
2E
  3
HIDDEN
350
31
  3
JITTEROFF
350
3B
  3
LINEPATTERN
350
38
  3
OVERHANGOFF
350
3C
  3
REALISTIC
350
33
  3
SHADED
350
42
  3
SHADED_WITH_EDGES
350
41
  3
SHADES_OF_GRAY
350
3E
  3
SKETCHY
350
3F
  3
THICKEN
350
37
  3
WIREFRAME
350
30
  3
X-RAY
350
40
  0
DICTIONARY
  5
301
102
{ACAD_REACTORS
330
C
102
}
330
C
100
AcDbDictionary
  3
CEPSNTYPE
350
30A
  3
DIMSTYLEDATA
350
320
  3
FINGERPRINTGUID
350
30B
  3
HYPERLINKBASE
350
304
  3
INSUNITS
350
309
  3
LAYOUTDICT
350
306
  3
LWETCUNION
350
308
  3
PLOTSETDICT
350
307
  3
PSVPSCALE
350
30D
  3
PUCSBASE
350
310
  3
PUCSORGBACK
350
316
  3
PUCSORGBOTTOM
350
312
  3
PUCSORGFRONT
350
315
  3
PUCSORGLEFT
350
313
  3
PUCSORGRIGHT
350
314
  3
PUCSORGTOP
350
311
  3
PUCSORTHOREF
350
30E
  3
PUCSORTHOVIEW
350
30F
  3
STYLESHEET
350
305
  3
TSTACKALIGN
350
302
  3
TSTACKSIZE
350
303
  3
UCSBASE
350
319
  3
UCSORGBACK
350
31F
  3
UCSORGBOTTOM
350
31B
  3
UCSORGFRONT
350
31E
  3
UCSORGLEFT
350
31C
  3
UCSORGRIGHT
350
31D
  3
UCSORGTOP
350
31A
  3
UCSORTHOREF
350
317
  3
UCSORTHOVIEW
350
318
  3
VERSIONGUID
350
30C
  0
DICTIONARY
  5
321
102
{ACAD_REACTORS
330
C
102
}
330
C
100
AcDbDictionary
  3
CANNOSCALE
350
32A
  3
DIMASSOC
350
326
  3
HIDETEXT
350
327
  3
MSLTSCALE
350
32B
  0
XRECORD
  5
329
102
{ACAD_REACTORS
330
328
102
}
330
328
100
AcDbXrecord
102
VTR_0.000_0.000_1.000_1.000_GRIDDISPLAY
 70
     3
102
VTR_0.000_0.000_1.000_1.000_GRIDMAJOR
 70
     5
102
VTR_0.000_0.000_1.000_1.000_DEFAULTLIGHTING
280
     1
102
VTR_0.000_0.000_1.000_1.000_DEFAULTLIGHTINGTYPE
 70
     1
102
VTR_0.000_0.000_1.000_1.000_BRIGHTNESS
141
0.0
102
VTR_0.000_0.000_1.000_1.000_CONTRAST
142
0.0
  0
MATERIAL
  5
45
102
{ACAD_REACTORS
330
43
102
}
102
{ACAD_XDICTIONARY
360
32E
102
}
330
43
100
AcDbMaterial
  1
BYBLOCK
  0
MATERIAL
  5
44
102
{ACAD_REACTORS
330
43
102
}
102
{ACAD_XDICTIONARY
360
32C
102
}
330
43
100
AcDbMaterial
  1
BYLAYER
  0
MATERIAL
  5
46
102
{ACAD_REACTORS
330
43
102
}
102
{ACAD_XDICTIONARY
360
330
102
}
330
43
100
AcDbMaterial
  1
GLOBAL
  0
MLINESTYLE
  5
18
102
{ACAD_REACTORS
330
17
102
}
330
17
100
AcDbMlineStyle
  2
Standard
 70
     0
  3

 62
   256
 51
90.0
 52
90.0
 71
     2
 49
0.5
 62
   256
  6
BYLAYER
 49
-0.5
 62
   256
  6
BYLAYER
  0
ACAD_PROXY_OBJECT
  5
48
102
{ACAD_REACTORS
330
47
102
}
330
47
100
AcDbProxyObject
 90
      499
 91
      503
 93
       41
310
903313A31580
  0
ACAD_PROXY_OBJECT
  5
49
102
{ACAD_REACTORS
330
47
102
}
330
47
100
AcDbProxyObject
 90
      499
 91
      503
 93
      105
310
903313A324000000000000004000
  0
ACAD_PROXY_OBJECT
  5
4A
102
{ACAD_REACTORS
330
47
102
}
330
47
100
AcDbProxyObject
 90
      499
 91
      503
 93
      105
310
903313A344000000000000104000
  0
ACAD_PROXY_OBJECT
  5
4B
102
{ACAD_REACTORS
330
47
102
}
330
47
100
AcDbProxyObject
 90
      499
 91
      503
 93
      105
310
903313A354000000000000144000
  0
ACAD_PROXY_OBJECT
  5
4C
102
{ACAD_REACTORS
330
47
102
}
330
47
100
AcDbProxyObject
 90
      499
 91
      503
 93
      105
310
903313A384000000000000204000
  0
ACAD_PROXY_OBJECT
  5
4D
102
{ACAD_REACTORS
330
47
102
}
330
47
100
AcDbProxyObject
 90
      499
 91
      503
 93
      113
310
904313A31304000000000000244000
  0
ACAD_PROXY_OBJECT
  5
4E
102
{ACAD_REACTORS
330
47
102
}
330
47
100
AcDbProxyObject
 90
      499
 91
      503
 93
      113
310
904313A31364000000000000304000
  0
ACAD_PROXY_OBJECT
  5
4F
102
{ACAD_REACTORS
330
47
102
}
330
47
100
AcDbProxyObject
 90
      499
 91
      503
 93
      113
310
904313A32304000000000000344000
  0
ACAD_PROXY_OBJECT
  5
50
102
{ACAD_REACTORS
330
47
102
}
330
47
100
AcDbProxyObject
 90
      499
 91
      503
 93
      113
310
904313A333040000000000003E4000
  0
ACAD_PROXY_OBJECT
  5
51
102
{ACAD_REACTORS
330
47
102
}
330
47
100
AcDbProxyObject
 90
      499
 91
      503
 93
      113
310
904313A34304000000000000444000
  0
ACAD_PROXY_OBJECT
  5
52
102
{ACAD_REACTORS
330
47
102
}
330
47
100
AcDbProxyObject
 90
      499
 91
      503
 93
      113
310
904313A35304000000000000494000
  0
ACAD_PROXY_OBJECT
  5
53
102
{ACAD_REACTORS
330
47
102
}
330
47
100
AcDbProxyObject
 90
      499
 91
      503
 93
      121
310
905313A3130304000000000000594000
  0
ACAD_PROXY_OBJECT
  5
54
102
{ACAD_REACTORS
330
47
102
}
330
47
100
AcDbProxyObject
 90
      499
 91
      503
 93
      105
310
903323A310000000000000010100
  0
ACAD_PROXY_OBJECT
  5
55
102
{ACAD_REACTORS
330
47
102
}
330
47
100
AcDbProxyObject
 90
      499
 91
      503
 93
      105
310
903343A310000000000000410100
  0
ACAD_PROXY_OBJECT
  5
56
102
{ACAD_REACTORS
330
47
102
}
330
47
100
AcDbProxyObject
 90
      499
 91
      503
 93
      105
310
903383A310000000000000810100
  0
ACAD_PROXY_OBJECT
  5
57
102
{ACAD_REACTORS
330
47
102
}
330
47
100
AcDbProxyObject
 90
      499
 91
      503
 93
      113
310
90431303A310000000000000910100
  0
ACAD_PROXY_OBJECT
  5
58
102
{ACAD_REACTORS
330
47
102
}
330
47
100
AcDbProxyObject
 90
      499
 91
      503
 93
      121
310
9053130303A310000000000001650100
  0
ACAD_PROXY_OBJECT
  5
59
102
{ACAD_REACTORS
330
47
102
}
330
47
100
AcDbProxyObject
 90
      499
 91
      503
 93
      257
310
90E312F31323822203D2031272D3022000000000000200FC000000000000284000
  0
ACAD_PROXY_OBJECT
  5
5A
102
{ACAD_REACTORS
330
47
102
}
330
47
100
AcDbProxyObject
 90
      499
 91
      503
 93
      249
310
90D312F363422203D2031272D3022000000000000240FC000000000000284000
  0
ACAD_PROXY_OBJECT
  5
5B
102
{ACAD_REACTORS
330
47
102
}
330
47
100
AcDbProxyObject
 90
      499
 91
      503
 93
      249
310
90D312F333222203D2031272D3022000000000000280FC000000000000284000
  0
ACAD_PROXY_OBJECT
  5
5C
102
{ACAD_REACTORS
330
47
102
}
330
47
100
AcDbProxyObject
 90
      499
 91
      503
 93
      249
310
90D312F313622203D2031272D30220000000000002C0FC000000000000284000
  0
ACAD_PROXY_OBJECT
  5
5D
102
{ACAD_REACTORS
330
47
102
}
330
47
100
AcDbProxyObject
 90
      499
 91
      503
 93
      249
310
90D332F333222203D2031272D30220000000000002E0FC000000000000284000
  0
ACAD_PROXY_OBJECT
  5
5E
102
{ACAD_REACTORS
330
47
102
}
330
47
100
AcDbProxyObject
 90
      499
 91
      503
 93
      241
310
90C312F3822203D2031272D3022000000000000300FC000000000000284000
  0
ACAD_PROXY_OBJECT
  5
5F
102
{ACAD_REACTORS
330
47
102
}
330
47
100
AcDbProxyObject
 90
      499
 91
      503
 93
      249
310
90D332F313622203D2031272D3022000000000000320FC000000000000284000
  0
ACAD_PROXY_OBJECT
  5
60
102
{ACAD_REACTORS
330
47
102
}
330
47
100
AcDbProxyObject
 90
      499
 91
      503
 93
      241
310
90C312F3422203D2031272D3022000000000000340FC000000000000284000
  0
ACAD_PROXY_OBJECT
  5
61
102
{ACAD_REACTORS
330
47
102
}
330
47
100
AcDbProxyObject
 90
      499
 91
      503
 93
      241
310
90C332F3822203D2031272D3022000000000000360FC000000000000284000
  0
ACAD_PROXY_OBJECT
  5
62
102
{ACAD_REACTORS
330
47
102
}
330
47
100
AcDbProxyObject
 90
      499
 91
      503
 93
      241
310
90C312F3222203D2031272D3022000000000000380FC000000000000284000
  0
ACAD_PROXY_OBJECT
  5
63
102
{ACAD_REACTORS
330
47
102
}
330
47
100
AcDbProxyObject
 90
      499
 91
      503
 93
      241
310
90C332F3422203D2031272D30220000000000003A0FC000000000000284000
  0
ACAD_PROXY_OBJECT
  5
64
102
{ACAD_REACTORS
330
47
102
}
330
47
100
AcDbProxyObject
 90
      499
 91
      503
 93
      161
310
90A3122203D2031272D30224000000000000284000
  0
ACAD_PROXY_OBJECT
  5
65
102
{ACAD_REACTORS
330
47
102
}
330
47
100
AcDbProxyObject
 90
      499
 91
      503
 93
      257
310
90E312D312F3222203D2031272D30220000000000003E0FC000000000000284000
  0
ACAD_PROXY_OBJECT
  5
66
102
{ACAD_REACTORS
330
47
102
}
330
47
100
AcDbProxyObject
 90
      499
 91
      503
 93
      225
310
90A3322203D2031272D302200000000000002100000000000000284000
  0
ACAD_PROXY_OBJECT
  5
67
102
{ACAD_REACTORS
330
47
102
}
330
47
100
AcDbProxyObject
 90
      499
 91
      503
 93
      225
310
90A3622203D2031272D302200000000000006100000000000000284000
  0
ACAD_PROXY_OBJECT
  5
68
102
{ACAD_REACTORS
330
47
102
}
330
47
100
AcDbProxyObject
 90
      499
 91
      503
 93
      249
310
90D31272D3022203D2031272D30220000000000000A100000000000000284000
  0
ACAD_PROXY_OBJECT
  5
2F
102
{ACAD_REACTORS
330
2A
102
}
330
2A
100
AcDbProxyObject
 90
      499
 91
      501
 93
      436
310
42CC9915DA5C99599C985B595049028333333333333E33F0000000000000F90107901411070040501600405405064090741402480A0340
1001
ACAD
1000
AcDbSavedByObjectVersion
1070
     0
  0
ACAD_PROXY_OBJECT
  5
32
102
{ACAD_REACTORS
330
2A
102
}
330
2A
100
AcDbProxyObject
 90
      499
 91
      501
 93
      388
310
4150985CDA58D07406404333333333333E33F0000000000000F90107A41107004050150841D405064090741402480A0350
1001
ACAD
1000
AcDbSavedByObjectVersion
1070
     0
  0
ACAD_PROXY_OBJECT
  5
36
102
{ACAD_REACTORS
330
2A
102
}
330
2A
100
AcDbProxyObject
 90
      499
 91
      501
 93
      428
310
42109C9A59DA1D195B90C409028333333333333E33F0000000000000F9010790141107004050150841D405064090741402480A029950
1001
ACAD
1000
AcDbSavedByObjectVersion
1070
     0
  0
ACAD_PROXY_OBJECT
  5
3A
102
{ACAD_REACTORS
330
2A
102
}
330
2A
100
AcDbProxyObject
 90
      499
 91
      501
 93
      452
310
42D0DBDB1BDC90DA185B99D95104090240C333333333333E33F0000000000000F90108901411070040501508421405064090741402480A0350
1001
ACAD
1000
AcDbSavedByObjectVersion
1070
     0
  0
ACAD_PROXY_OBJECT
  5
34
102
{ACAD_REACTORS
330
2A
102
}
330
2A
100
AcDbProxyObject
 90
      499
 91
      501
 93
      500
310
4290DBDB98D95C1D1D585B10940D028333333333333E33F0000000000000F90107902409070040501000000000018199010841D405064090740C02480A0340
1001
ACAD
1000
AcDbSavedByObjectVersion
1070
     0
  0
ACAD_PROXY_OBJECT
  5
35
102
{ACAD_REACTORS
330
2A
102
}
330
2A
100
AcDbProxyObject
 90
      499
 91
      501
 93
      412
310
40D11A5B50B409028333333333333E33F0000000000000F9010790141107004050150841D405064090741402480A02677FFFFFD0
1001
ACAD
1000
AcDbSavedByObjectVersion
1070
     0
  0
ACAD_PROXY_OBJECT
  5
3D
102
{ACAD_REACTORS
330
2A
102
}
330
2A
100
AcDbProxyObject
 90
      499
 91
      501
 93
      452
310
43115919D950DBDB1BDC93D999916409028333333333333E33F0000000000000F9010790141107004050150841D405064090741402480A0350
1001
ACAD
1000
AcDbSavedByObjectVersion
1070
     0
  0
ACAD_PROXY_OBJECT
  5
39
102
{ACAD_REACTORS
330
2A
102
}
330
2A
100
AcDbProxyObject
 90
      499
 91
      501
 93
      444
310
42D19858D95C185D1D195C9B90F409028333333333333E33F0000000000000F9010790141107004050150841D405064090741402480A0350
1001
ACAD
1000
AcDbSavedByObjectVersion
1070
     0
  0
ACAD_PROXY_OBJECT
  5
2B
102
{ACAD_REACTORS
330
2A
102
}
330
2A
100
AcDbProxyObject
 90
      499
 91
      501
 93
      380
310
41119B185D240901404333333333333E33F0000000000000F9010740A907004050150841D405064090741402480A1B50
1001
ACAD
1000
AcDbSavedByObjectVersion
1070
     0
  0
ACAD_PROXY_OBJECT
  5
2C
102
{ACAD_REACTORS
330
2A
102
}
330
2A
100
AcDbProxyObject
 90
      499
 91
      501
 93
      468
310
43519B185D15DA5D1A115919D95CD0140901404333333333333E33F0000000000000F90107409019070040501600405405064090741402480A1B50
1001
ACAD
1000
AcDbSavedByObjectVersion
1070
     0
  0
ACAD_PROXY_OBJECT
  5
2D
102
{ACAD_REACTORS
330
2A
102
}
330
2A
100
AcDbProxyObject
 90
      499
 91
      501
 93
      404
310
41D1DBDD5C985D5910240902404333333333333E33F0000000000000F9010740A9070040501641D405064090741402480A1B50
1001
ACAD
1000
AcDbSavedByObjectVersion
1070
     0
  0
ACAD_PROXY_OBJECT
  5
2E
102
{ACAD_REACTORS
330
2A
102
}
330
2A
100
AcDbProxyObject
 90
      499
 91
      501
 93
      492
310
4411DBDD5C985D5915DA5D1A115919D95CD0340902404333333333333E33F0000000000000F90107409019070040501600405405064090741402480A1B50
1001
ACAD
1000
AcDbSavedByObjectVersion
1070
     0
  0
ACAD_PROXY_OBJECT
  5
31
102
{ACAD_REACTORS
330
2A
102
}
330
2A
100
AcDbProxyObject
 90
      499
 91
      501
 93
      476
310
41921A5919195B90640502408333333333333E33F0000000000000F901079024090700405020000000000001110200405405064090740C02480A0340
1001
ACAD
1000
AcDbSavedByObjectVersion
1070
     0
  0
ACAD_PROXY_OBJECT
  5
3B
102
{ACAD_REACTORS
330
2A
102
}
330
2A
100
AcDbProxyObject
 90
      499
 91
      501
 93
      428
310
42529A5D1D195C93D999914409028333333333333E33F0000000000000F9010790141107004050150A41D405064090741402480A0350
1001
ACAD
1000
AcDbSavedByObjectVersion
1070
     0
  0
ACAD_PROXY_OBJECT
  5
38
102
{ACAD_REACTORS
330
2A
102
}
330
2A
100
AcDbProxyObject
 90
      499
 91
      501
 93
      444
310
42D31A5B995C185D1D195C9B90E409028333333333333E33F0000000000000F9010790141107004050750841D405064090741402483A0350
1001
ACAD
1000
AcDbSavedByObjectVersion
1070
     0
  0
ACAD_PROXY_OBJECT
  5
3C
102
{ACAD_REACTORS
330
2A
102
}
330
2A
100
AcDbProxyObject
 90
      499
 91
      501
 93
      444
310
42D3DD995C9A185B99D3D999915409028333333333333E33F0000000000000F9010790141107004050150941D405064090741402480A0350
1001
ACAD
1000
AcDbSavedByObjectVersion
1070
     0
  0
ACAD_PROXY_OBJECT
  5
33
102
{ACAD_REACTORS
330
2A
102
}
330
2A
100
AcDbProxyObject
 90
      499
 91
      501
 93
      428
310
425499585B1A5CDD1A58D08409038333333333333E33F0000000000000F9010740A907004050150800405405064090740C02480A1B40
1001
ACAD
1000
AcDbSavedByObjectVersion
1070
     0
  0
ACAD_PROXY_OBJECT
  5
42
102
{ACAD_REACTORS
330
2A
102
}
330
2A
100
AcDbProxyObject
 90
      499
 91
      501
 93
      420
310
4194DA1859195911B40902404333333333333E33F0000000000000F9010740A41107004050150800405405064090840C02480A0B40
1001
ACAD
1000
AcDbSavedByObjectVersion
1070
     0
  0
ACAD_PROXY_OBJECT
  5
41
102
{ACAD_REACTORS
330
2A
102
}
330
2A
100
AcDbProxyObject
 90
      499
 91
      501
 93
      516
310
4454DA18591959081DDA5D1A08195919D95CD1A40902404333333333333E33F0000000000000F901074090142907004050250800405405064090740C02480A0B40
1001
ACAD
1000
AcDbSavedByObjectVersion
1070
     0
  0
ACAD_PROXY_OBJECT
  5
3E
102
{ACAD_REACTORS
330
2A
102
}
330
2A
100
AcDbProxyObject
 90
      499
 91
      501
 93
      532
310
4394DA1859195CC81BD98811DC985E5174090240C333333333333E33F0000000000000F901079024090741D01000000000000111010841D405064090740C02480A0340
1001
ACAD
1000
AcDbSavedByObjectVersion
1070
     0
  0
ACAD_PROXY_OBJECT
  5
3F
102
{ACAD_REACTORS
330
2A
102
}
330
2A
100
AcDbProxyObject
 90
      499
 91
      501
 93
      476
310
41D4DAD95D18DA1E51840502408333333333333E33F0000000000000F901079024090741D01000000000000111010B41D405064090741802480A0340
1001
ACAD
1000
AcDbSavedByObjectVersion
1070
     0
  0
ACAD_PROXY_OBJECT
  5
37
102
{ACAD_REACTORS
330
2A
102
}
330
2A
100
AcDbProxyObject
 90
      499
 91
      501
 93
      412
310
41D51A1A58DAD95B90D409028333333333333E33F0000000000000F9010790141107004050150C41D405064090741402480A0350
1001
ACAD
1000
AcDbSavedByObjectVersion
1070
     0
  0
ACAD_PROXY_OBJECT
  5
30
102
{ACAD_REACTORS
330
2A
102
}
330
2A
100
AcDbProxyObject
 90
      499
 91
      501
 93
      420
310
4255DA5C99599C985B595059028333333333333E33F0000000000000F90107901411070040501600405405064090740C02480A0340
1001
ACAD
1000
AcDbSavedByObjectVersion
1070
     0
  0
ACAD_PROXY_OBJECT
  5
40
102
{ACAD_REACTORS
330
2A
102
}
330
2A
100
AcDbProxyObject
 90
      499
 91
      501
 93
      404
310
41560B54985E51940902404000000000000E03F0000000000000F9010740501907004050150841D405064090740C02480A1B40
1001
ACAD
1000
AcDbSavedByObjectVersion
1070
     0
  0
XRECORD
  5
30A
102
{ACAD_REACTORS
330
301
102
}
330
301
100
AcDbXrecord
 90
        0
  0
XRECORD
  5
320
102
{ACAD_REACTORS
330
301
102
}
330
301
100
AcDbXrecord
1000
DSTYLE
1002
{
1070
   340
340
11
1002
}
  0
XRECORD
  5
30B
102
{ACAD_REACTORS
330
301
102
}
330
301
100
AcDbXrecord
  1
{3068C45F-D281-4DD0-835A-148ADE0604DF}
  0
XRECORD
  5
304
102
{ACAD_REACTORS
330
301
102
}
330
301
100
AcDbXrecord
  1

  0
XRECORD
  5
309
102
{ACAD_REACTORS
330
301
102
}
330
301
100
AcDbXrecord
 90
        1
  0
XRECORD
  5
306
102
{ACAD_REACTORS
330
301
102
}
330
301
100
AcDbXrecord
340
1A
  0
XRECORD
  5
308
102
{ACAD_REACTORS
330
301
102
}
330
301
100
AcDbXrecord
 90
    10781
  0
XRECORD
  5
307
102
{ACAD_REACTORS
330
301
102
}
330
301
100
AcDbXrecord
340
19
  0
XRECORD
  5
30D
102
{ACAD_REACTORS
330
301
102
}
330
301
100
AcDbXrecord
 40
0.0
  0
XRECORD
  5
310
102
{ACAD_REACTORS
330
301
102
}
330
301
100
AcDbXrecord
340
0
  0
XRECORD
  5
316
102
{ACAD_REACTORS
330
301
102
}
330
301
100
AcDbXrecord
 10
0.0
 20
0.0
 30
0.0
  0
XRECORD
  5
312
102
{ACAD_REACTORS
330
301
102
}
330
301
100
AcDbXrecord
 10
0.0
 20
0.0
 30
0.0
  0
XRECORD
  5
315
102
{ACAD_REACTORS
330
301
102
}
330
301
100
AcDbXrecord
 10
0.0
 20
0.0
 30
0.0
  0
XRECORD
  5
313
102
{ACAD_REACTORS
330
301
102
}
330
301
100
AcDbXrecord
 10
0.0
 20
0.0
 30
0.0
  0
XRECORD
  5
314
102
{ACAD_REACTORS
330
301
102
}
330
301
100
AcDbXrecord
 10
0.0
 20
0.0
 30
0.0
  0
XRECORD
  5
311
102
{ACAD_REACTORS
330
301
102
}
330
301
100
AcDbXrecord
 10
0.0
 20
0.0
 30
0.0
  0
XRECORD
  5
30E
102
{ACAD_REACTORS
330
301
102
}
330
301
100
AcDbXrecord
340
0
  0
XRECORD
  5
30F
102
{ACAD_REACTORS
330
301
102
}
330
301
100
AcDbXrecord
 70
     0
  0
XRECORD
  5
305
102
{ACAD_REACTORS
330
301
102
}
330
301
100
AcDbXrecord
  1

  0
XRECORD
  5
302
102
{ACAD_REACTORS
330
301
102
}
330
301
100
AcDbXrecord
 90
        1
  0
XRECORD
  5
303
102
{ACAD_REACTORS
330
301
102
}
330
301
100
AcDbXrecord
 90
       70
  0
XRECORD
  5
319
102
{ACAD_REACTORS
330
301
102
}
330
301
100
AcDbXrecord
340
0
  0
XRECORD
  5
31F
102
{ACAD_REACTORS
330
301
102
}
330
301
100
AcDbXrecord
 10
0.0
 20
0.0
 30
0.0
  0
XRECORD
  5
31B
102
{ACAD_REACTORS
330
301
102
}
330
301
100
AcDbXrecord
 10
0.0
 20
0.0
 30
0.0
  0
XRECORD
  5
31E
102
{ACAD_REACTORS
330
301
102
}
330
301
100
AcDbXrecord
 10
0.0
 20
0.0
 30
0.0
  0
XRECORD
  5
31C
102
{ACAD_REACTORS
330
301
102
}
330
301
100
AcDbXrecord
 10
0.0
 20
0.0
 30
0.0
  0
XRECORD
  5
31D
102
{ACAD_REACTORS
330
301
102
}
330
301
100
AcDbXrecord
 10
0.0
 20
0.0
 30
0.0
  0
XRECORD
  5
31A
102
{ACAD_REACTORS
330
301
102
}
330
301
100
AcDbXrecord
 10
0.0
 20
0.0
 30
0.0
  0
XRECORD
  5
317
102
{ACAD_REACTORS
330
301
102
}
330
301
100
AcDbXrecord
340
0
  0
XRECORD
  5
318
102
{ACAD_REACTORS
330
301
102
}
330
301
100
AcDbXrecord
 70
     0
  0
XRECORD
  5
30C
102
{ACAD_REACTORS
330
301
102
}
330
301
100
AcDbXrecord
  1
{FAEB1C32-E019-11D5-929B-00C0DF256EC4}
  0
DICTIONARYVAR
  5
32A
102
{ACAD_REACTORS
330
321
102
}
330
321
100
DictionaryVariables
280
     0
  1
1:1
  0
DICTIONARYVAR
  5
326
102
{ACAD_REACTORS
330
321
102
}
330
321
100
DictionaryVariables
280
     0
  1
2
  0
DICTIONARYVAR
  5
327
102
{ACAD_REACTORS
330
321
102
}
330
321
100
DictionaryVariables
280
     0
  1
1
  0
DICTIONARYVAR
  5
32B
102
{ACAD_REACTORS
330
321
102
}
330
321
100
DictionaryVariables
280
     0
  1
1
  0
DICTIONARY
  5
32E
330
45
100
AcDbDictionary
280
     1
  3
ACAD_XREC_ROUNDTRIP
360
32F
  0
DICTIONARY
  5
32C
330
44
100
AcDbDictionary
280
     1
  3
ACAD_XREC_ROUNDTRIP
360
32D
  0
DICTIONARY
  5
330
330
46
100
AcDbDictionary
280
     1
  3
ACAD_XREC_ROUNDTRIP
360
331
  0
XRECORD
  5
32F
102
{ACAD_REACTORS
330
32E
102
}
330
32E
100
AcDbXrecord
102
MATERIAL
148
0.0
149
0.0
149
0.0
 93
        0
 94
      127
282
     0
 72
     1
 77
     1
171
     1
175
     1
179
     1
273
     0
  0
XRECORD
  5
32D
102
{ACAD_REACTORS
330
32C
102
}
330
32C
100
AcDbXrecord
102
MATERIAL
148
0.0
149
0.0
149
0.0
 93
        0
 94
      127
282
     0
 72
     1
 77
     1
171
     1
175
     1
179
     1
273
     0
  0
XRECORD
  5
331
102
{ACAD_REACTORS
330
330
102
}
330
330
100
AcDbXrecord
102
MATERIAL
148
0.0
149
0.0
149
0.0
 93
        0
 94
      127
282
     0
 72
     1
 77
     1
171
     1
175
     1
179
     1
273
     0
  0
ENDSEC
  0
EOF
